<svg xmlns="http://www.w3.org/2000/svg" width="26" height="26" viewBox="0 0 423.755 423.755"><path d="M43.84 281.457c-18.585-44.869-18.586-94.29 0-139.159 10.649-25.709 26.678-48.152 46.86-66.135l60.86 60.86V15.099H29.635l39.88 39.88c-64.293 58.426-88.5 153.2-53.391 237.959 14.167 34.202 37.07 64.159 66.234 86.634 28.275 21.789 61.873 36.201 97.162 41.677l4.601-29.646c-63.343-9.829-115.784-51.006-140.281-110.146zm363.676 11.481c21.652-52.272 21.652-109.848 0-162.12-14.167-34.202-37.071-64.159-66.234-86.633-28.275-21.79-61.873-36.202-97.162-41.678l-4.601 29.646c63.342 9.829 115.783 51.005 140.28 110.146 18.586 44.869 18.586 94.29 0 139.159-10.649 25.709-26.678 48.152-46.859 66.135l-60.86-60.86v121.924h121.924l-39.801-39.801c22.915-20.757 41.131-46.508 53.313-75.918z" fill="#616161"/></svg>