<svg xmlns="http://www.w3.org/2000/svg" viewBox="0 0 29 41.03"><defs><style>.cls-1{isolation:isolate;}.cls-2{fill-rule:evenodd;}</style></defs><title>Asset 3</title><g id="Layer_2" data-name="Layer 2"><g id="Shape_2" data-name="Shape 2" class="cls-1"><g id="Shape_2-2" data-name="Shape 2"><path class="cls-2" d="M4.84,37.09a1.72,1.72,0,0,0,.81-.73,2.1,2.1,0,0,0,.27-1,2.17,2.17,0,0,0-.12-.72A2.07,2.07,0,0,0,5.46,34a1.78,1.78,0,0,0-.54-.45,1.48,1.48,0,0,0-.71-.17H0V41H3.68a3.85,3.85,0,0,0,1-.12,2.6,2.6,0,0,0,.82-.37,1.71,1.71,0,0,0,.75-1.47,2,2,0,0,0-.38-1.27A2,2,0,0,0,4.84,37.09ZM1.75,34.87H3.52a.63.63,0,0,1,.47.21.81.81,0,0,1,.2.58.72.72,0,0,1-.73.8H1.75Zm2.5,4.43a.76.76,0,0,1-.56.23H1.75V37.85h2a.63.63,0,0,1,.51.25.93.93,0,0,1,.2.6A.81.81,0,0,1,4.25,39.3Zm4.92-5.94L6.41,41H8.2l.57-1.72h2.35L11.71,41H13.5l-2.75-7.67Zm-.12,4.73.9-2.71.88,2.71Zm10.07-.23L15.6,33.35H14.24V41H16V36.64L19.46,41h1.4V33.35H19.12Zm9.66-4.51h-2l-2.76,3.31V33.35H22.31V41h1.74V38.77l.79-.83L27,41h2l-3-4.25ZM28.59,11.9l0,.17s0-.09,0-.13Zm0,.17v0l0,.16C28.64,12.19,28.63,12.13,28.62,12.07ZM10.24,24.44H5.62V7.81H19.47c-.3,1.3-.6,2.61-.9,3.91q-1,4.62-2.16,9.22l-.49,2.19-.29,1.31-.4,1.76h-.14l-.39-1.76-.19-.85-.09-.39-.17-.75L13.94,21q-1.15-4.74-2.23-9.26l-.77-3.26h-4q1,4.1,2.09,8.2c.65,2.58,1.32,5.15,2,7.72h0l.64,2.42h0l.09.34,1,3.73h4.79c.35-1.35.68-2.71,1-4.07h0l.6-2.42h0c.65-2.57,1.32-5.14,2-7.72s1.3-5.22,2-7.83c.12.09.23.19.34.29a6.56,6.56,0,0,1,1.5,2.54,13.69,13.69,0,0,1,.6,4.5,12,12,0,0,1-.66,4.42,6.65,6.65,0,0,1-1.61,2.48,4.42,4.42,0,0,1-2,1.08,9.42,9.42,0,0,1-1.34.2l-.61,2.45h.53a12.15,12.15,0,0,0,2.77-.3,8.12,8.12,0,0,0,1.26-.4c.13-.05.27-.1.4-.16A7.37,7.37,0,0,0,27,23.64a9.5,9.5,0,0,0,1.51-3.45A18.64,18.64,0,0,0,29,16a20.14,20.14,0,0,0-.38-3.94l0-.16a9.22,9.22,0,0,0-1.42-3.4,6.91,6.91,0,0,0-3.43-2.61A10.78,10.78,0,0,0,20,5.34H10.19L9.52,2.46h2.12c0-.62,0-1.22,0-1.8s0,0,0-.66H3.26V2.46H5.38l.73,2.87h-6V7.81h2V24.44H0v2.42H10.88ZM20.2,4.6a10.12,10.12,0,0,1,3.7.69l.71-2.84h2.16V0H18.57V2.46h2.12C20.53,3.18,20.37,3.89,20.2,4.6Z"/></g></g></g></svg>