<?xml version="1.0" encoding="utf-8"?>
<!-- Generator: Adobe Illustrator 21.1.0, SVG Export Plug-In . SVG Version: 6.00 Build 0)  -->
<svg version="1.1" id="Layer_1" xmlns="http://www.w3.org/2000/svg" xmlns:xlink="http://www.w3.org/1999/xlink" x="0px" y="0px"
	 viewBox="0 0 397.1 81.5" style="enable-background:new 0 0 397.1 81.5;" xml:space="preserve">
<style type="text/css">
	.st0{fill:#FFFFFF;}
</style>
<g>
	<g>
		<g>
			<g>
				<g>
					<polygon class="st0" points="40.6,3.7 46.7,16.7 34.7,16.7 					"/>
				</g>
				<g>
					<polygon class="st0" points="5,50.7 19.3,50.7 17,55.8 6.9,55.8 					"/>
				</g>
				<g>
					<polygon class="st0" points="76.4,50.6 62.4,50.6 64.6,55.7 74.5,55.6 					"/>
				</g>
				<g>
					<polygon class="st0" points="3.7,44 22.3,44 20.5,48.1 4.4,48.1 					"/>
				</g>
				<g>
					<polygon class="st0" points="77.7,43.8 59.2,43.8 61.1,48 77.1,47.9 					"/>
				</g>
				<g>
					<polygon class="st0" points="20.4,48.1 61.2,48 62.5,50.6 19.3,50.8 					"/>
				</g>
				<g>
					<polygon class="st0" points="3.4,40.4 24,40.3 25.8,36.8 4,36.8 					"/>
				</g>
				<g>
					<polygon class="st0" points="77.5,36.6 55.9,36.7 57.5,40.3 77.7,40.2 					"/>
				</g>
				<g>
					<polygon class="st0" points="5.4,29.8 28.8,29.8 27.5,32.5 4.6,32.4 					"/>
				</g>
				<g>
					<polygon class="st0" points="52.6,29.6 53.9,32.4 76.6,32.3 75.8,29.6 					"/>
				</g>
				<g>
					<polygon class="st0" points="8.3,23.1 7.2,25.3 30.9,25.1 31.9,23 					"/>
				</g>
				<g>
					<polygon class="st0" points="49.7,22.9 50.7,25.2 74.3,25.1 73.1,22.9 					"/>
				</g>
				<g>
					<polygon class="st0" points="24,40.4 57.6,40.2 59.2,43.8 22.3,43.9 					"/>
				</g>
				<g>
					<polygon class="st0" points="27.5,32.4 54,32.3 56,36.6 25.6,36.8 					"/>
				</g>
				<g>
					<polygon class="st0" points="30.8,25.2 50.7,25.2 52.8,29.6 28.8,29.6 					"/>
				</g>
				<g>
					<polygon class="st0" points="34.1,18.1 47.5,18.1 49.7,23 31.8,23 					"/>
				</g>
				<g>
					<polygon class="st0" points="16,57.9 65.6,57.8 64.6,55.7 17,55.8 					"/>
				</g>
				<g>
					<polygon class="st0" points="12.8,16.8 11.5,18.2 34.1,18.2 34.7,16.7 					"/>
				</g>
				<g>
					<polygon class="st0" points="46.6,16.7 47.4,18.2 69.8,18.1 68.6,16.6 					"/>
				</g>
				<g>
					<path class="st0" d="M65.6,57.7h7.9C69.3,66.9,57.3,77,41.8,77.6c-15.8,0.6-30-10.1-34-19.5L16,58l-3.1,6.8l55.9-0.3L65.6,57.7
						z"/>
				</g>
				<g>
					<path class="st0" d="M66.5,14.9L66.5,14.9C59.9,8.4,50.9,4.4,40.9,4.3l-0.3-0.7l-0.3,0.7C30.4,4.4,21.4,8.5,14.9,15
						C8.2,21.7,4.2,30.8,4.2,40.8c0,9,3.3,17.3,8.8,23.6l-0.2,0.4h0.5c0.5,0.6,1.1,1.2,1.7,1.7c6.6,6.6,15.8,10.6,25.8,10.6
						c10.1,0,19.2-4.1,25.8-10.8c0.6-0.6,1.2-1.2,1.7-1.9h0.4l-0.2-0.3c5.4-6.4,8.7-14.6,8.6-23.6C77.3,30.6,73.1,21.5,66.5,14.9
						 M40.6,3.4c10.3,0,19.7,4.1,26.5,10.9s11,16.1,11.1,26.4c0,10.3-4.2,19.7-10.9,26.4c-6.8,6.8-16.1,11-26.5,11
						c-10.3,0-19.7-4.1-26.5-10.9S3.3,51.1,3.2,40.8c0-10.3,4.2-19.6,10.9-26.4C20.9,7.6,30.3,3.4,40.6,3.4"/>
				</g>
			</g>
			<g>
				<path class="st0" d="M40.8,81.5C18.4,81.5,0.1,63.3,0,40.8C-0.1,18.4,18.2,0.1,40.6,0s40.8,18.2,40.8,40.7
					C81.5,63.1,63.3,81.4,40.8,81.5z M40.6,1C18.7,1.1,0.9,18.9,1,40.8s17.9,39.7,39.8,39.6c21.9,0,39.7-17.9,39.6-39.8
					C80.4,18.7,62.5,1,40.6,1z"/>
			</g>
		</g>
		<g>
			<g>
				<path class="st0" d="M94.9,25.9h6.2c-0.2,2.4-0.3,4.6-0.4,6.7c-0.1,2-0.1,3.9-0.1,5.7c0,2.4,0,4.6,0.1,6.6
					c0.1,2.1,0.2,4,0.4,5.9h-6.2c0.2-1.9,0.3-3.9,0.4-6s0.2-4.2,0.2-6.5c0-1.9,0-3.8-0.1-5.9C95.2,30.4,95,28.2,94.9,25.9z"/>
				<path class="st0" d="M105.9,25.9h6.1c-0.1,1.8-0.2,3.5-0.3,5.1c-0.1,1.6-0.1,3.2-0.1,4.7h9.7c0-2-0.1-3.8-0.1-5.4
					c-0.1-1.6-0.2-3.1-0.3-4.5h6c-0.2,2.1-0.3,4.2-0.4,6.3c-0.1,2.1-0.1,4.1-0.1,6.1c0,2.3,0,4.4,0.1,6.5s0.2,4.1,0.4,6h-6.1
					c0.1-1.9,0.2-3.9,0.3-5.7c0.1-1.9,0.1-3.8,0.1-5.6h-9.7c0,2.4,0.1,4.5,0.1,6.3c0.1,1.8,0.1,3.5,0.2,5h-6.1
					c0.2-1.8,0.3-3.8,0.4-5.9c0.1-2.1,0.2-4.3,0.2-6.6c0-1.9,0-3.8-0.1-5.9C106.2,30.4,106.1,28.2,105.9,25.9z"/>
				<path class="st0" d="M139.8,25.8h0.1c1.5,0,2.7,0.1,3.4,0.1c0.4,0,0.8,0,1.3,0s1.1,0,1.9-0.1c0.9,3.3,1.9,6.7,3,10.2
					c1.2,3.5,2.5,7.2,4,11h3.1c0,0.8,0,1.7-0.1,2.5c0,0.8,0,1.6,0,2.3s0,1.3,0,2s0,1.4,0.1,2.1h-4.1c0-0.6,0.1-1.1,0.1-1.7
					c0-0.6,0-1.2,0-1.8c0-0.4,0-0.8,0-1s0-0.4,0-0.6h-18.9c0,0.2,0,0.4,0,0.6c0,0.2,0,0.6,0,1c0,0.6,0,1.2,0,1.8s0.1,1.1,0.1,1.7
					h-4.1c0-0.8,0-1.7,0.1-2.5c0-0.8,0-1.6,0-2.3s0-1.3,0-2s0-1.4-0.1-2.1h3.1c1.8-4.6,3.4-8.7,4.5-12.2
					C138.4,31.3,139.3,28.3,139.8,25.8z M143,30c-1.3,4.1-2.4,7.6-3.3,10.4c-0.9,2.9-1.5,5.1-1.8,6.6h9.9c-0.5-2-1.1-4.4-1.9-7.2
					C145.1,37.1,144.1,33.8,143,30z"/>
				<path class="st0" d="M157.6,25.9h6.5c0.4,1.6,0.9,3.4,1.6,5.4c0.7,2,1.9,5.1,3.5,9.1c1.6-4,2.8-7,3.5-9.1c0.7-2,1.2-3.8,1.5-5.4
					h5.7c-1.4,3-3.1,6.8-5.1,11.2c-1.9,4.4-3.2,7.2-3.9,8.3c-1.3,2.3-2.6,3.8-4,4.7s-3.2,1.3-5.4,1.3c-0.3,0-0.6,0-0.9,0
					c-0.3,0-0.6-0.1-0.9-0.1l-0.9-4.2c0.5,0.1,0.9,0.2,1.3,0.2s0.7,0.1,0.9,0.1c1.3,0,2.3-0.3,3.2-0.8s1.6-1.3,2.1-2.4
					c-1.7-4.2-3.4-7.9-4.8-10.9C160,30.2,158.7,27.7,157.6,25.9z"/>
				<path class="st0" d="M197,26l0.6,4.9c-0.8-0.4-1.6-0.6-2.4-0.8c-0.8-0.2-1.7-0.3-2.6-0.3c-2.4,0-4.3,0.8-5.7,2.3
					c-1.4,1.6-2,3.7-2,6.5c0,2.7,0.6,4.8,1.8,6.2s2.9,2.2,5.2,2.2c0.9,0,1.9-0.2,2.9-0.5s2.1-0.8,3.2-1.5l-0.5,4.6
					c-0.9,0.5-1.9,0.9-3.1,1.2c-1.1,0.3-2.3,0.4-3.7,0.4c-3.5,0-6.2-1.1-8.1-3.2c-2-2.1-2.9-5.1-2.9-8.9c0-4.2,1.2-7.5,3.5-9.9
					s5.5-3.6,9.5-3.6c0.7,0,1.4,0,2.2,0.1C195.6,25.8,196.3,25.9,197,26z"/>
				<path class="st0" d="M200.3,25.9h18.6l0.5,4.4c-1.1-0.2-2.3-0.4-3.5-0.6c-1.2-0.1-2.5-0.2-3.7-0.2c0,1.1-0.1,2.2-0.1,3.2
					c0,1.1,0,2.1,0,3.2c0,3.1,0.1,5.9,0.2,8.4c0.1,2.4,0.3,4.6,0.5,6.4h-6.2c0.2-1.8,0.3-3.8,0.4-5.9c0.1-2.1,0.1-4.5,0.1-7.1
					c0-1.3,0-2.5,0-3.8s-0.1-2.7-0.1-4.4c-1.3,0-2.5,0.1-3.7,0.2s-2.4,0.3-3.5,0.6L200.3,25.9z"/>
				<path class="st0" d="M222.3,25.9h4.5c2.5,0,4.3,0.1,5.4,0.2c1.1,0.1,2.1,0.3,2.9,0.5c1.4,0.5,2.5,1.3,3.3,2.5s1.2,2.6,1.2,4.2
					c0,2.7-1,4.7-2.9,6.2c-1.9,1.4-4.7,2.2-8.2,2.2h-0.6c0,1.5,0.1,3,0.2,4.5c0.1,1.5,0.2,3.1,0.3,4.6h-6.1c0.2-1.8,0.3-3.8,0.4-5.9
					c0.1-2.1,0.2-4.3,0.2-6.6c0-1.9,0-3.8-0.1-5.9C222.6,30.4,222.4,28.2,222.3,25.9z M227.8,38c0.1,0,0.3,0,0.4,0
					c0.1,0,0.3,0,0.6,0c1.9,0,3.3-0.4,4.2-1.1c0.9-0.7,1.4-1.8,1.4-3.2s-0.4-2.5-1.2-3.2s-2.1-1-3.9-1c-0.1,0-0.3,0-0.5,0
					s-0.5,0-0.9,0.1c0,1.4-0.1,2.6-0.1,3.5c0,0.9,0,1.7,0,2.5V38z"/>
				<path class="st0" d="M242.6,25.9h6.2c-0.2,2.4-0.3,4.6-0.4,6.7c-0.1,2-0.1,3.9-0.1,5.7c0,2.4,0,4.6,0.1,6.6
					c0.1,2.1,0.2,4,0.4,5.9h-6.2c0.2-1.9,0.3-3.9,0.4-6c0.1-2.1,0.2-4.2,0.2-6.5c0-1.9,0-3.8-0.1-5.9
					C242.9,30.4,242.8,28.2,242.6,25.9z"/>
				<path class="st0" d="M260.5,25.9c0.5,0,1,0,1.5,0.1c0.5,0,1,0,1.6,0s1.1,0,1.7,0s1.1,0,1.7-0.1c1,3.9,2.3,7.9,3.7,12.1
					c1.4,4.2,3,8.4,4.8,12.8h-6.2c-0.4-1.6-0.7-2.9-1-4.1c-0.3-1.1-0.6-2-0.8-2.7h-8.2c-0.3,1.1-0.6,2.2-0.9,3.3s-0.5,2.3-0.8,3.5
					h-5.7c1.9-4.6,3.6-8.9,5-13.1C258.3,33.6,259.5,29.6,260.5,25.9z M263.5,30.1c-0.6,1.6-1.1,3.3-1.7,5c-0.5,1.7-1.1,3.4-1.7,5.2
					h6.3c-0.4-1.6-0.9-3.2-1.4-4.9C264.6,33.7,264.1,31.9,263.5,30.1z"/>
				<path class="st0" d="M283.1,25.9h16.7c-0.2,2.3-0.3,4.4-0.4,6.5c-0.1,2-0.1,4-0.1,5.9c0,2.4,0,4.6,0.1,6.6
					c0.1,2.1,0.2,4,0.4,5.9h-6c0.1-2.4,0.2-4.6,0.3-6.7c0.1-2.1,0.1-3.9,0.1-5.7c0-2.8,0-5.6-0.1-8.4c0-0.2,0-0.3,0-0.4H288
					c-0.5,8.6-1.3,14.4-2.4,17.3s-3,4.4-5.5,4.4c-0.5,0-1-0.1-1.5-0.2c-0.5-0.1-1-0.3-1.5-0.6l-0.1-4.1c0.3,0.1,0.5,0.2,0.7,0.2
					s0.4,0.1,0.6,0.1c0.9,0,1.7-0.3,2.2-0.8s0.9-1.5,1.3-2.9c0.4-1.6,0.7-3.8,1-6.7c0.3-2.8,0.4-5.8,0.4-8.8c0,0,0-0.2,0-0.6
					C283.2,26.6,283.1,26.2,283.1,25.9z"/>
				<path class="st0" d="M304.7,25.9h13.9l0.6,4.2c-1.1-0.2-2.2-0.3-3.3-0.4c-1.2-0.1-2.4-0.1-3.8-0.1h-1.9v6.2h1.7
					c3.9,0,6.7,0.6,8.4,1.7c1.8,1.1,2.6,3,2.6,5.4c0,2.8-1,4.8-3.1,6s-5.5,1.9-10.2,1.9h-5c0.2-1.8,0.3-3.8,0.4-5.9
					c0.1-2.1,0.2-4.3,0.2-6.6c0-1.9,0-3.8-0.1-5.9C305,30.4,304.9,28.2,304.7,25.9z M310.2,47.1c0.1,0,0.3,0,0.5,0s0.5,0,0.8,0
					c2.1,0,3.7-0.3,4.7-1c1.1-0.7,1.6-1.7,1.6-3c0-1.4-0.5-2.4-1.5-3.1s-2.5-1-4.7-1c-0.4,0-0.7,0-0.9,0c-0.2,0-0.4,0-0.6,0
					c0,2.8,0,4.6,0,5.6C310.1,45.8,310.2,46.5,310.2,47.1z"/>
				<path class="st0" d="M332.6,25.9c0.5,0,1,0,1.5,0.1c0.5,0,1,0,1.6,0s1.1,0,1.7,0s1.1,0,1.7-0.1c1,3.9,2.3,7.9,3.7,12.1
					c1.4,4.2,3,8.4,4.8,12.8h-6.2c-0.4-1.6-0.7-2.9-1-4.1c-0.3-1.1-0.6-2-0.8-2.7h-8.2c-0.3,1.1-0.6,2.2-0.9,3.3s-0.5,2.3-0.8,3.5
					H324c1.9-4.6,3.6-8.9,5-13.1C330.4,33.6,331.6,29.6,332.6,25.9z M335.6,30.1c-0.6,1.6-1.1,3.3-1.7,5c-0.5,1.7-1.1,3.4-1.7,5.2
					h6.3c-0.4-1.6-0.9-3.2-1.4-4.9C336.7,33.7,336.2,31.9,335.6,30.1z"/>
				<path class="st0" d="M350.5,25.9h6.1c-0.1,1.8-0.2,3.5-0.3,5.1c-0.1,1.6-0.1,3.2-0.1,4.7h9.7c0-2-0.1-3.8-0.1-5.4
					c-0.1-1.6-0.2-3.1-0.3-4.5h6c-0.2,2.1-0.3,4.2-0.4,6.3c-0.1,2.1-0.1,4.1-0.1,6.1c0,2.3,0,4.4,0.1,6.5s0.2,4.1,0.4,6h-6.1
					c0.1-1.9,0.2-3.9,0.3-5.7c0.1-1.9,0.1-3.8,0.1-5.6h-9.7c0,2.4,0.1,4.5,0.1,6.3c0.1,1.8,0.1,3.5,0.2,5h-6.1
					c0.2-1.8,0.3-3.8,0.4-5.9c0.1-2.1,0.2-4.3,0.2-6.6c0-1.9,0-3.8-0.1-5.9C350.8,30.4,350.6,28.2,350.5,25.9z"/>
				<path class="st0" d="M376.2,25.9h6.1c-0.1,2.1-0.3,4.2-0.3,6.2c-0.1,2-0.2,3.8-0.2,5.6c1.8-2.3,3.2-4.4,4.4-6.3
					c1.2-1.9,2.1-3.7,2.9-5.5h6.3l-1.1,1.6c-3.8,5.3-6.2,8.6-7.2,10.1c1.1,0.9,2.5,2.4,3.9,4.7c0.1,0.2,0.2,0.4,0.3,0.5
					c0.1,0.2,0.3,0.4,0.5,0.7c2.4,3.6,4.2,6,5.4,7.3H390c-1-2.5-2.3-4.8-3.7-6.9c-1.4-2.1-2.9-3.9-4.6-5.4c0,1.1,0,2.5,0.1,4.1
					s0.2,4.4,0.4,8.2h-6.1c0.2-1.8,0.3-3.8,0.4-5.9c0.1-2.1,0.2-4.3,0.2-6.6c0-1.9,0-3.8-0.1-5.9C376.6,30.4,376.4,28.2,376.2,25.9z
					"/>
			</g>
		</g>
	</g>
</g>
</svg>
