<?xml version="1.0" encoding="UTF-8"?><!DOCTYPE svg PUBLIC "-//W3C//DTD SVG 1.1//EN" "http://www.w3.org/Graphics/SVG/1.1/DTD/svg11.dtd"><svg xmlns="http://www.w3.org/2000/svg" xmlns:xlink="http://www.w3.org/1999/xlink" height="1128" viewBox="0 0 55 1128" width="55"><svg height="43" viewBox="0 0 490 490" width="47" x="4" y="4"><path d="M432.127 172.464c-3.3 12.4-7.8 36.5-9.5 49.3.1.2.2.3.3.4 2.4.8 4.7 1.9 6.9 3.2 1.8 1.1 3.4 2.3 4.9 3.7 0-1.4.1-2.7.1-4.1.3-13.4 3.7-38.5 6-52.5.7-4.2 1.5-8.6 2.9-12.9-6.3 2.1-9.9 6.7-11.6 12.9zm-83.7 69.4c13.8-18.2 21.3-37.7 22.2-57.9.7-13.5.6-27.2.6-40.5v-60c0-11.6-7.1-19.5-19-21.1l-5.1-.6c-6.8-.8-13.3-1.6-19.5-3-22.5-5-44.2-15.2-68.3-32-3.8-2.6-8-5.6-14.2-5.6s-10.4 3-14.1 5.6c-32.3 22.3-61.3 33.5-91.2 35.3-7.9.4-21 3.7-21 22.3l-.1 30c-.1 20.2-.1 40.5.1 60.7 0 8.1 1 16.6 3.1 26 4.5 20.2 15.2 38.7 32.7 56.5 21.4 21.7 48.4 38.5 83.1 51.5 2.3.8 4.7 1.1 7.2 1.1 3.4 0 6.8-.8 9.2-2l8.8-3.8c7.2-3.1 14.5-6.3 21.9-10 27.1-14.2 48-31.5 63.6-52.5zm-77.6 25.5c-6.6 3.3-13.4 6.2-20.1 9.1-1.9.8-3.8 1.6-5.8 2.5v-110.6h-95.8c-.1-18-.1-36-.1-53.9l.1-22.7c31.9-3.3 62.7-15.4 95.8-37.7v114.4h95.7c-.1 4.7-.1 9.5-.4 14.1-.6 14.2-5.9 27.5-16.2 41.1-12.8 17.4-30.3 31.8-53.2 43.7zm139.3-48.8l.8-6.1c1.2-9 6.4-25.9 8.4-35.2-6.2 2.1-9.8 6.6-11.4 12.8-2 7.7-7.5 24.1-8.8 32.4 3.5-1.3 7.2-2 10.9-2.2 0-.6 0-1.1.1-1.7zm-396.7 75c2.3 15.5 9.6 28.3 20.4 39.7l73 87.9 1.4 40.5c0 3.6 2.9 6.5 6.5 6.6l76.8.4c3.6 0 6.5-2.9 6.6-6.5l2.7-49.1c.7-5.1.8-10.3.8-14.4 0-5-.4-8.4-.4-8.4-3.6-15.3-9.1-45.1-49.9-74.6-3.9-2.8-9.5-8.3-12.5-12.1l-45.4-58.4c-4.7-7.9-15.9-10.6-24.5-5.4s-11.3 16.5-6.6 24.4l43.7 71.3c1.4 2.3.6 5.4-1.8 6.7-2.2 1.2-4.9.5-6.3-1.5l-1.8-2.7s-33-45.1-49.5-80.9c-3-6.5-4.7-13.1-5.1-20.2-.1-1.1-.1-2.6-.2-3.7-.5-16.3-3.1-39.4-5.8-55.5-.8-4.5-3.1-21.4-7.8-26.8-6.7-7.6-15.7-5.9-21.4-1.3-4.7 3.8-6.9 10.1-6.2 16.1l12.7 123.3.6 4.6z"/><path d="M483.527 149.664c-5.7-4.6-14.7-6.3-21.4 1.3-4.8 5.4-7.1 22.3-7.8 26.8-2.7 16.1-5.4 39.3-5.8 55.5 0 1.1-.1 2.6-.2 3.7-.4 7.1-2.1 13.7-5.1 20.2-16.4 35.7-49.5 80.9-49.5 80.9l-1.8 2.7c-1.4 2-4.1 2.7-6.3 1.5-2.4-1.3-3.2-4.4-1.8-6.7l43.7-71.3c4.7-7.9 2-19.1-6.6-24.4-8.6-5.3-19.8-2.6-24.5 5.4l-45.4 58.4c-3 3.8-8.6 9.3-12.5 12.1-40.9 29.4-46.3 59.3-49.9 74.6 0 0-.3 3.4-.4 8.4 0 4.1.1 9.2.8 14.4l2.7 49.1c0 3.6 3 6.5 6.6 6.5l76.8-.4c3.6 0 6.5-3 6.5-6.6l1.4-40.5 73-87.9c10.8-11.4 18.1-24.3 20.4-39.7l.7-4.5 12.7-123.3c.6-6.1-1.5-12.3-6.3-16.2zm-437.4 10c1.3 4.4 2.2 8.7 2.9 12.9 2.4 13.9 5.8 39.1 6 52.5 0 1.4.1 2.7.1 4.1 1.5-1.3 3.1-2.6 4.9-3.7 2.2-1.4 4.6-2.4 6.9-3.2.1-.2.2-.3.3-.4-1.7-12.7-6.2-36.8-9.5-49.3-1.7-6.3-5.3-10.9-11.6-12.9zm24.4 17.6c2 9.3 7.2 26.2 8.4 35.2l.8 6.1c.1.6.1 1.2.1 1.8 3.7.1 7.4.9 10.9 2.2-1.2-8.3-6.7-24.7-8.8-32.4-1.6-6.3-5.2-10.8-11.4-12.9z"/></svg><svg height="29" viewBox="0 0 482 482" width="20" x="4" y="51"><path d="M384.759 213.6c-4.7-3.7-46.2-49.4-69.7-70.7-.1-.1-.1-.1-.1-.2V44.3c0-24.4-19.9-44.3-44.3-44.3h-145.1c-22.7 0-41.2 18.6-41.2 41.2V272c0 24.4 19.9 44.3 44.3 44.3h52.9c1.8 0 3.3-1.6 3.1-3.4l-2.3-19.6c-.2-1.6-1.5-2.7-3.1-2.7h-6.3c-1.7 0-3.1-1.4-3.1-3.1V25.3c0-1.7 1.4-3.1 3.1-3.1h98c9.9 0 18 8.1 18 18v235.3c0 6.8-4.7 12.6-11 14.4h-.2c-10.7-5.8-23.3-30.6-25.2-34.5-.2-.3-.3-.7-.3-1-.7-6.3-7.8-67.3-40.3-67.3-.9 0-1.8 0-2.7.1 0 0-26 2.2-4.5 76.3 0 .2.1.3.1.5l9.5 82.1c0 .1 0 .2.1.4.8 3.1 11.6 45 39.5 74.7.5.6.8 1.3.8 2.1v7.1c0 .2-.1.3-.3.3h-2.5c-6.1 0-11.1 5-11.1 11.1v28.9c0 6.1 5 11.1 11.1 11.1h117.7c6.1 0 11.1-5 11.1-11.1V442c0-6.1-5-11.1-11.1-11.1-.2 0-.3-.1-.3-.3 3.9-36.2 17.9-160 25.4-169.7.2-.3.4-.6.5-1 1.3-4.5 7.8-32-10.5-46.3zm-254.1 74.1c0 1.6-1.3 2.8-2.8 2.8-9.8 0-17.8-8-17.8-17.8V40c0-9.8 8-17.8 17.8-17.8 1.6 0 2.8 1.3 2.8 2.8v262.7z" fill="#1471d1"/></svg><svg height="29" viewBox="0 0 482 482" width="20" x="4" y="84"><path d="M384.759 213.6c-4.7-3.7-46.2-49.4-69.7-70.7-.1-.1-.1-.1-.1-.2V44.3c0-24.4-19.9-44.3-44.3-44.3h-145.1c-22.7 0-41.2 18.6-41.2 41.2V272c0 24.4 19.9 44.3 44.3 44.3h52.9c1.8 0 3.3-1.6 3.1-3.4l-2.3-19.6c-.2-1.6-1.5-2.7-3.1-2.7h-6.3c-1.7 0-3.1-1.4-3.1-3.1V25.3c0-1.7 1.4-3.1 3.1-3.1h98c9.9 0 18 8.1 18 18v235.3c0 6.8-4.7 12.6-11 14.4h-.2c-10.7-5.8-23.3-30.6-25.2-34.5-.2-.3-.3-.7-.3-1-.7-6.3-7.8-67.3-40.3-67.3-.9 0-1.8 0-2.7.1 0 0-26 2.2-4.5 76.3 0 .2.1.3.1.5l9.5 82.1c0 .1 0 .2.1.4.8 3.1 11.6 45 39.5 74.7.5.6.8 1.3.8 2.1v7.1c0 .2-.1.3-.3.3h-2.5c-6.1 0-11.1 5-11.1 11.1v28.9c0 6.1 5 11.1 11.1 11.1h117.7c6.1 0 11.1-5 11.1-11.1V442c0-6.1-5-11.1-11.1-11.1-.2 0-.3-.1-.3-.3 3.9-36.2 17.9-160 25.4-169.7.2-.3.4-.6.5-1 1.3-4.5 7.8-32-10.5-46.3zm-254.1 74.1c0 1.6-1.3 2.8-2.8 2.8-9.8 0-17.8-8-17.8-17.8V40c0-9.8 8-17.8 17.8-17.8 1.6 0 2.8 1.3 2.8 2.8v262.7z" fill="#616161"/></svg><svg height="19" viewBox="0 0 489 489" width="27" x="4" y="117"><path d="M244.425 98.725c-93.4 0-178.1 51.1-240.6 134.1-5.1 6.8-5.1 16.3 0 23.1 62.5 83.1 147.2 134.2 240.6 134.2s178.1-51.1 240.6-134.1c5.1-6.8 5.1-16.3 0-23.1-62.5-83.1-147.2-134.2-240.6-134.2zm6.7 248.3c-62 3.9-113.2-47.2-109.3-109.3 3.2-51.2 44.7-92.7 95.9-95.9 62-3.9 113.2 47.2 109.3 109.3-3.3 51.1-44.8 92.6-95.9 95.9zm-3.1-47.4c-33.4 2.1-61-25.4-58.8-58.8 1.7-27.6 24.1-49.9 51.7-51.7 33.4-2.1 61 25.4 58.8 58.8-1.8 27.7-24.2 50-51.7 51.7z" fill="#c9c9c9"/></svg><svg height="25" viewBox="0 0 512 512" width="25" x="4" y="140"><path fill="#1471d1" d="M478.609 38.957H33.391C14.978 38.957 0 53.935 0 72.348v100.174c0 18.413 14.978 33.391 33.391 33.391h66.783v217.044c0 27.619 22.468 50.087 50.087 50.087h211.478c27.619 0 50.087-22.468 50.087-50.087V205.913h66.783c18.413 0 33.391-14.978 33.391-33.391V72.348c0-18.413-14.978-33.391-33.391-33.391zM244.87 439.652h-94.609c-9.206 0-16.696-7.49-16.696-16.696V139.13H244.87v300.522zm133.565-16.695c0 9.206-7.49 16.696-16.696 16.696h-50.087V139.13h66.783v283.827z"/></svg><svg height="25" viewBox="0 0 512 512" width="25" x="4" y="169"><path fill="#616161" d="M478.609 38.957H33.391C14.978 38.957 0 53.935 0 72.348v100.174c0 18.413 14.978 33.391 33.391 33.391h66.783v217.044c0 27.619 22.468 50.087 50.087 50.087h211.478c27.619 0 50.087-22.468 50.087-50.087V205.913h66.783c18.413 0 33.391-14.978 33.391-33.391V72.348c0-18.413-14.978-33.391-33.391-33.391zM244.87 439.652h-94.609c-9.206 0-16.696-7.49-16.696-16.696V139.13H244.87v300.522zm133.565-16.695c0 9.206-7.49 16.696-16.696 16.696h-50.087V139.13h66.783v283.827z"/></svg><svg height="25" viewBox="0 0 29 29" width="25" x="4" y="198"><path fill="#1471d1" d="M25.818.433H2.231C.998.433 0 1.451 0 2.699v22.654c0 1.25.998 2.262 2.231 2.262h23.587c1.23 0 2.229-1.012 2.229-2.262V2.699c.001-1.248-.998-2.266-2.229-2.266zM3.644 2.06h20.763c1.083 0 1.963.895 1.963 1.994V8.54H1.68V4.054c0-1.1.876-1.994 1.964-1.994zm6.024 8.736H26.37v5.982H9.668v-5.982zM1.68 23.995V10.796h5.812v15.193H3.644c-1.088.001-1.964-.892-1.964-1.994zm22.727 1.995H9.668v-6.957H26.37v4.963c0 1.101-.88 1.994-1.963 1.994z"/></svg><svg height="25" viewBox="0 0 489 489" width="25" x="4" y="227"><path d="M285.75 174.1c-38.9 0-70.4 31.5-70.4 70.4s31.5 70.4 70.4 70.4 70.4-31.5 70.4-70.4c-.1-38.9-31.6-70.4-70.4-70.4zm20.2 98.1c-3.1 3.7-7.1 6.2-11.7 7.5-2 .6-2.9 1.6-2.8 3.7s0 4.2 0 6.2c0 1.9-.9 2.8-2.8 2.9-2.2.1-4.5.1-6.7 0-2 0-2.9-1.1-2.9-3.1v-4.6c0-3.3-.1-3.5-3.4-4-4.1-.7-8.2-1.6-11.9-3.4-3-1.4-3.3-2.2-2.4-5.3.6-2.3 1.3-4.6 2-6.9.8-2.7 1.5-3 4-1.7 4.2 2.2 8.6 3.4 13.2 4 3 .4 5.9.1 8.7-1.1 5.2-2.3 6-8.3 1.6-11.9-1.5-1.2-3.2-2.1-4.9-2.9-4.5-2-9.3-3.5-13.5-6.1-6.9-4.2-11.4-9.9-10.8-18.3.6-9.6 6-15.5 14.8-18.7 3.6-1.3 3.6-1.3 3.7-5v-3.8c.1-2.9.6-3.3 3.4-3.4h2.6c6 0 6 0 6.1 6 0 4.3 0 4.3 4.3 5 3.3.5 6.4 1.5 9.4 2.8 1.7.7 2.3 1.9 1.8 3.6-.8 2.6-1.5 5.2-2.3 7.8-.8 2.4-1.6 2.8-3.9 1.7-4.7-2.3-9.7-3.2-14.9-3-1.4.1-2.7.3-4 .8-4.5 2-5.2 6.9-1.4 10 1.9 1.6 4.2 2.7 6.5 3.6 4 1.7 8 3.2 11.8 5.3 11.6 6.9 14.9 22 6.4 32.3z"/><circle cx="183.45" cy="248" r="19.5"/><circle cx="388.15" cy="248" r="19.5"/><path d="M441.15 129.8h-306.4c-17.7 0-32.1 14.4-32.1 32.1v165.2c0 17.7 14.4 32.1 32.1 32.1h306.4c17.7 0 32.1-14.4 32.1-32.1V161.9c0-17.7-14.4-32.1-32.1-32.1zm4.7 164.1c-1.9-.3-3.8-.5-5.7-.5-18 0-32.5 14.6-32.5 32.5 0 2 .2 4 .6 6h-237.9c.2-1.3.3-2.7.3-4 0-18-14.6-32.5-32.5-32.5-2.8 0-5.5.4-8 1v-99.7c2.6.7 5.3 1 8 1 18 0 32.5-14.6 32.5-32.5 0-2.7-.3-5.4-1-7.9h238.6c-.4 1.9-.6 3.9-.6 6 0 18 14.6 32.5 32.5 32.5 2 0 3.9-.2 5.7-.5v98.6z"/><path d="M272.45 403.9c0 7.4-6.1 13.5-13.5 13.5H57.05c-7.4 0-13.5-6.1-13.5-13.5V85.1c0-7.4 6.1-13.5 13.5-13.5h201.9c7.4 0 13.5 6.1 13.5 13.5v17.3h27.9V52.6c0-28.9-23.7-52.6-52.6-52.6H68.25c-28.9 0-52.6 23.7-52.6 52.6v383.7c0 28.9 23.7 52.6 52.6 52.6h179.5c28.9 0 52.6-23.7 52.6-52.6v-49.7h-27.9v17.3zm-91.8 62.9h-50.6c-7.5 0-13.6-6.1-13.6-13.6s6.1-13.6 13.6-13.6h50.6c7.5 0 13.6 6.1 13.6 13.6s-6.1 13.6-13.6 13.6z"/></svg><svg height="25" viewBox="0 0 489 489" width="25" x="4" y="256"><g class="smartphone" fill="#1471d1"><path d="M285.75 174.1c-38.9 0-70.4 31.5-70.4 70.4s31.5 70.4 70.4 70.4 70.4-31.5 70.4-70.4c-.1-38.9-31.6-70.4-70.4-70.4zm20.2 98.1c-3.1 3.7-7.1 6.2-11.7 7.5-2 .6-2.9 1.6-2.8 3.7s0 4.2 0 6.2c0 1.9-.9 2.8-2.8 2.9-2.2.1-4.5.1-6.7 0-2 0-2.9-1.1-2.9-3.1v-4.6c0-3.3-.1-3.5-3.4-4-4.1-.7-8.2-1.6-11.9-3.4-3-1.4-3.3-2.2-2.4-5.3.6-2.3 1.3-4.6 2-6.9.8-2.7 1.5-3 4-1.7 4.2 2.2 8.6 3.4 13.2 4 3 .4 5.9.1 8.7-1.1 5.2-2.3 6-8.3 1.6-11.9-1.5-1.2-3.2-2.1-4.9-2.9-4.5-2-9.3-3.5-13.5-6.1-6.9-4.2-11.4-9.9-10.8-18.3.6-9.6 6-15.5 14.8-18.7 3.6-1.3 3.6-1.3 3.7-5v-3.8c.1-2.9.6-3.3 3.4-3.4h2.6c6 0 6 0 6.1 6 0 4.3 0 4.3 4.3 5 3.3.5 6.4 1.5 9.4 2.8 1.7.7 2.3 1.9 1.8 3.6-.8 2.6-1.5 5.2-2.3 7.8-.8 2.4-1.6 2.8-3.9 1.7-4.7-2.3-9.7-3.2-14.9-3-1.4.1-2.7.3-4 .8-4.5 2-5.2 6.9-1.4 10 1.9 1.6 4.2 2.7 6.5 3.6 4 1.7 8 3.2 11.8 5.3 11.6 6.9 14.9 22 6.4 32.3z"/><circle cx="183.45" cy="248" r="19.5"/><circle cx="388.15" cy="248" r="19.5"/><path d="M441.15 129.8h-306.4c-17.7 0-32.1 14.4-32.1 32.1v165.2c0 17.7 14.4 32.1 32.1 32.1h306.4c17.7 0 32.1-14.4 32.1-32.1V161.9c0-17.7-14.4-32.1-32.1-32.1zm4.7 164.1c-1.9-.3-3.8-.5-5.7-.5-18 0-32.5 14.6-32.5 32.5 0 2 .2 4 .6 6h-237.9c.2-1.3.3-2.7.3-4 0-18-14.6-32.5-32.5-32.5-2.8 0-5.5.4-8 1v-99.7c2.6.7 5.3 1 8 1 18 0 32.5-14.6 32.5-32.5 0-2.7-.3-5.4-1-7.9h238.6c-.4 1.9-.6 3.9-.6 6 0 18 14.6 32.5 32.5 32.5 2 0 3.9-.2 5.7-.5v98.6z"/><path d="M272.45 403.9c0 7.4-6.1 13.5-13.5 13.5H57.05c-7.4 0-13.5-6.1-13.5-13.5V85.1c0-7.4 6.1-13.5 13.5-13.5h201.9c7.4 0 13.5 6.1 13.5 13.5v17.3h27.9V52.6c0-28.9-23.7-52.6-52.6-52.6H68.25c-28.9 0-52.6 23.7-52.6 52.6v383.7c0 28.9 23.7 52.6 52.6 52.6h179.5c28.9 0 52.6-23.7 52.6-52.6v-49.7h-27.9v17.3zm-91.8 62.9h-50.6c-7.5 0-13.6-6.1-13.6-13.6s6.1-13.6 13.6-13.6h50.6c7.5 0 13.6 6.1 13.6 13.6s-6.1 13.6-13.6 13.6z"/></g></svg><svg height="25" viewBox="0 0 297 297" width="25" x="4" y="285"><path d="M260.387 0H115.896C95.772 0 79.4 16.373 79.4 36.497v74.426c0 20.124 16.373 36.497 36.497 36.497h144.491c20.124 0 36.497-16.373 36.497-36.497V36.497C296.884 16.373 280.511 0 260.387 0zM115.896 20.049h144.491c9.02 0 16.361 7.3 16.441 16.302H99.456c.079-9.003 7.42-16.302 16.44-16.302zm144.491 107.322H115.896c-9.07 0-16.448-7.378-16.448-16.448V68.019h177.387v42.904c0 9.07-7.378 16.448-16.448 16.448zm-34.725 41.82H10.14c-5.536 0-10.024 4.488-10.024 10.024v107.761C.116 292.512 4.604 297 10.14 297h215.522c5.536 0 10.024-4.488 10.024-10.024V179.215c0-5.536-4.488-10.024-10.024-10.024zm-32.446 107.76H42.586c-3.305-10.676-11.745-19.116-22.421-22.421v-42.869c10.676-3.305 19.116-11.745 22.421-22.421h150.63c3.305 10.676 11.745 19.116 22.421 22.421v42.869c-10.676 3.305-19.116 11.745-22.421 22.421zm22.422-80.547a20.049 20.049 0 0 1-7.165-7.165h7.165v7.165zM27.33 189.239a20.049 20.049 0 0 1-7.165 7.165v-7.165h7.165zm-7.165 80.547a20.049 20.049 0 0 1 7.165 7.165h-7.165v-7.165zm188.308 7.165a20.049 20.049 0 0 1 7.165-7.165v7.165h-7.165z"/><path d="M117.901 196.131c-20.382 0-36.964 16.582-36.964 36.964s16.582 36.964 36.964 36.964 36.964-16.582 36.964-36.964-16.582-36.964-36.964-36.964zm0 53.88c-9.327 0-16.916-7.589-16.916-16.916s7.589-16.916 16.916-16.916 16.916 7.589 16.916 16.916c0 9.328-7.589 16.916-16.916 16.916z"/><circle cx="57.286" cy="233.095" r="6.735"/><circle cx="178.516" cy="233.095" r="6.735"/><path d="M16.656 124.833c5.536 0 10.024-4.488 10.024-10.024V42.133h23.056c5.536 0 10.024-4.488 10.024-10.024s-4.488-10.024-10.024-10.024h-33.08c-5.536 0-10.024 4.488-10.024 10.024v82.7c0 5.536 4.488 10.024 10.024 10.024zm270.154 46.864c-5.536 0-10.024 4.488-10.024 10.024v72.676H253.73c-5.536 0-10.024 4.488-10.024 10.024s4.488 10.024 10.024 10.024h33.08c5.536 0 10.024-4.488 10.024-10.024v-82.7c0-5.536-4.488-10.024-10.024-10.024z"/></svg><svg height="25" viewBox="0 0 454 454" width="25" x="4" y="314"><path d="M420.135 110.203H280.091l49.728-81.594c4.312-7.074 2.072-16.304-5.002-20.615-7.073-4.313-16.304-2.072-20.615 5.002l-59.243 97.207h-36.916L148.8 12.996c-4.311-7.072-13.541-9.312-20.615-5.002-7.074 4.312-9.314 13.541-5.002 20.615l49.728 81.594H32.865C14.743 110.203 0 124.946 0 143.067v271.271c0 18.121 14.743 32.864 32.865 32.864h387.271c18.122 0 32.865-14.743 32.865-32.864V143.067c-.001-18.121-14.744-32.864-32.866-32.864zM317.677 374.912c0 9.866-7.998 17.865-17.865 17.865H71.188c-9.866-.001-17.864-7.999-17.864-17.865V182.494c0-9.866 7.998-17.865 17.865-17.865h228.623c9.866 0 17.865 7.999 17.865 17.865v192.418zm66.115-5.709c-17.093 0-31-13.907-31-31 0-17.094 13.907-31 31-31s31 13.906 31 31-13.907 31-31 31zm0-119c-17.093 0-31-13.906-31-31s13.907-31 31-31 31 13.906 31 31-13.907 31-31 31z"/></svg><svg height="25" viewBox="0 0 29 29" width="25" x="4" y="343"><path fill="#616161" d="M25.818.433H2.231C.998.433 0 1.451 0 2.699v22.654c0 1.25.998 2.262 2.231 2.262h23.587c1.23 0 2.229-1.012 2.229-2.262V2.699c.001-1.248-.998-2.266-2.229-2.266zM3.644 2.06h20.763c1.083 0 1.963.895 1.963 1.994V8.54H1.68V4.054c0-1.1.876-1.994 1.964-1.994zm6.024 8.736H26.37v5.982H9.668v-5.982zM1.68 23.995V10.796h5.812v15.193H3.644c-1.088.001-1.964-.892-1.964-1.994zm22.727 1.995H9.668v-6.957H26.37v4.963c0 1.101-.88 1.994-1.963 1.994z"/></svg><svg height="25" viewBox="0 0 47 47" width="25" x="4" y="372"><g fill="#616161"><path d="M42.539 8.23L20.046 2.203a6.202 6.202 0 0 0-1.601-.211c-2.652 0-4.963 1.714-5.621 4.169L9.902 17.065h4.285l1.162-4.335 25.992 6.965-2.276 8.499c-.188.697-.977 1.16-1.807 1.09v4.14c.062.002.123.013.184.013 2.654 0 4.965-1.717 5.623-4.17l3.75-13.997c.81-3.034-1.107-6.191-4.276-7.04zm.275 5.967l-.401 1.5L16.42 8.732l.402-1.499c.174-.649.841-1.102 1.623-1.102.177 0 .354.024.529.07l22.493 6.027c.948.254 1.565 1.156 1.347 1.969z"/><path d="M29.236 19.135H5.951C2.67 19.135 0 21.689 0 24.827v14.489c0 3.139 2.67 5.691 5.951 5.691h23.287c3.281 0 5.951-2.554 5.951-5.691V24.827c-.001-3.138-2.669-5.692-5.953-5.692zm1.812 20.181c0 .843-.829 1.553-1.812 1.553H5.951c-.981 0-1.811-.71-1.811-1.553V24.827c0-.841.83-1.552 1.811-1.552h23.287c.982 0 1.811.711 1.811 1.552l-.001 14.489z"/><path d="M11.772 36.212h-4.14c-.572 0-1.035.463-1.035 1.034v1.035c0 .572.463 1.035 1.035 1.035h4.14c.572 0 1.035-.463 1.035-1.035v-1.035a1.034 1.034 0 0 0-1.035-1.034zm7.892 0h-4.14c-.571 0-1.035.463-1.035 1.034v1.035c0 .572.463 1.035 1.035 1.035h4.14c.571 0 1.035-.463 1.035-1.035v-1.035c0-.571-.464-1.034-1.035-1.034zm7.891 0h-4.14c-.571 0-1.035.463-1.035 1.034v1.035c0 .572.463 1.035 1.035 1.035h4.14c.572 0 1.035-.463 1.035-1.035v-1.035c0-.571-.463-1.034-1.035-1.034zm-9.53-4.153h7.848c.57 0 1.035-.434 1.035-.965v-3.865c0-.53-.465-.963-1.035-.963h-7.848c-.569 0-1.035.433-1.035.963v3.865c.001.531.466.965 1.035.965zm1.036-3.278c0-.532.465-.965 1.035-.965h3.708c.569 0 1.035.433 1.035.965v.76c0 .531-.466.964-1.035.964h-3.708c-.57 0-1.035-.433-1.035-.964v-.76z"/></g></svg><svg height="25" viewBox="0 0 47 47" width="25" x="4" y="401"><g fill="#1471d1"><path d="M42.539 8.23L20.046 2.203a6.202 6.202 0 0 0-1.601-.211c-2.652 0-4.963 1.714-5.621 4.169L9.902 17.065h4.285l1.162-4.335 25.992 6.965-2.276 8.499c-.188.697-.977 1.16-1.807 1.09v4.14c.062.002.123.013.184.013 2.654 0 4.965-1.717 5.623-4.17l3.75-13.997c.81-3.034-1.107-6.191-4.276-7.04zm.275 5.967l-.401 1.5L16.42 8.732l.402-1.499c.174-.649.841-1.102 1.623-1.102.177 0 .354.024.529.07l22.493 6.027c.948.254 1.565 1.156 1.347 1.969z"/><path d="M29.236 19.135H5.951C2.67 19.135 0 21.689 0 24.827v14.489c0 3.139 2.67 5.691 5.951 5.691h23.287c3.281 0 5.951-2.554 5.951-5.691V24.827c-.001-3.138-2.669-5.692-5.953-5.692zm1.812 20.181c0 .843-.829 1.553-1.812 1.553H5.951c-.981 0-1.811-.71-1.811-1.553V24.827c0-.841.83-1.552 1.811-1.552h23.287c.982 0 1.811.711 1.811 1.552l-.001 14.489z"/><path d="M11.772 36.212h-4.14c-.572 0-1.035.463-1.035 1.034v1.035c0 .572.463 1.035 1.035 1.035h4.14c.572 0 1.035-.463 1.035-1.035v-1.035a1.034 1.034 0 0 0-1.035-1.034zm7.892 0h-4.14c-.571 0-1.035.463-1.035 1.034v1.035c0 .572.463 1.035 1.035 1.035h4.14c.571 0 1.035-.463 1.035-1.035v-1.035c0-.571-.464-1.034-1.035-1.034zm7.891 0h-4.14c-.571 0-1.035.463-1.035 1.034v1.035c0 .572.463 1.035 1.035 1.035h4.14c.572 0 1.035-.463 1.035-1.035v-1.035c0-.571-.463-1.034-1.035-1.034zm-9.53-4.153h7.848c.57 0 1.035-.434 1.035-.965v-3.865c0-.53-.465-.963-1.035-.963h-7.848c-.569 0-1.035.433-1.035.963v3.865c.001.531.466.965 1.035.965zm1.036-3.278c0-.532.465-.965 1.035-.965h3.708c.569 0 1.035.433 1.035.965v.76c0 .531-.466.964-1.035.964h-3.708c-.57 0-1.035-.433-1.035-.964v-.76z"/></g></svg><svg height="25" viewBox="0 0 424 424" width="25" x="4" y="430"><path d="M43.84 281.457c-18.585-44.869-18.586-94.29 0-139.159 10.649-25.709 26.678-48.152 46.86-66.135l60.86 60.86V15.099H29.635l39.88 39.88c-64.293 58.426-88.5 153.2-53.391 237.959 14.167 34.202 37.07 64.159 66.234 86.634 28.275 21.789 61.873 36.201 97.162 41.677l4.601-29.646c-63.343-9.829-115.784-51.006-140.281-110.146zm363.676 11.481c21.652-52.272 21.652-109.848 0-162.12-14.167-34.202-37.071-64.159-66.234-86.633-28.275-21.79-61.873-36.202-97.162-41.678l-4.601 29.646c63.342 9.829 115.783 51.005 140.28 110.146 18.586 44.869 18.586 94.29 0 139.159-10.649 25.709-26.678 48.152-46.859 66.135l-60.86-60.86v121.924h121.924l-39.801-39.801c22.915-20.757 41.131-46.508 53.313-75.918z" fill="#616161"/></svg><svg height="25" viewBox="0 0 424 424" width="25" x="4" y="459"><path d="M43.84 281.457c-18.585-44.869-18.586-94.29 0-139.159 10.649-25.709 26.678-48.152 46.86-66.135l60.86 60.86V15.099H29.635l39.88 39.88c-64.293 58.426-88.5 153.2-53.391 237.959 14.167 34.202 37.07 64.159 66.234 86.634 28.275 21.789 61.873 36.201 97.162 41.677l4.601-29.646c-63.343-9.829-115.784-51.006-140.281-110.146zm363.676 11.481c21.652-52.272 21.652-109.848 0-162.12-14.167-34.202-37.071-64.159-66.234-86.633-28.275-21.79-61.873-36.202-97.162-41.678l-4.601 29.646c63.342 9.829 115.783 51.005 140.28 110.146 18.586 44.869 18.586 94.29 0 139.159-10.649 25.709-26.678 48.152-46.859 66.135l-60.86-60.86v121.924h121.924l-39.801-39.801c22.915-20.757 41.131-46.508 53.313-75.918z" fill="#1471d1"/></svg><svg height="25" viewBox="0 0 385 385" width="25" x="4" y="488"><path d="M350.246 191.25v-66.938c0-5.259-4.303-9.562-9.562-9.562H248.08c-8.683-14.535-22.548-25.599-39.101-30.562 4.389-2.448 7.392-7.086 7.392-12.47 0-7.918-6.426-14.344-14.344-14.344h-4.781V38.25h43.031c7.918 0 14.344-6.426 14.344-14.344s-6.426-14.344-14.344-14.344h-43.031c0-5.278-3.185-9.562-9.562-9.562s-9.562 4.284-9.562 9.562h-43.031c-7.918 0-14.344 6.426-14.344 14.344s6.426 14.344 14.344 14.344h43.031v19.125h-4.781c-7.918 0-14.344 6.426-14.344 14.344 0 5.872 3.538 10.901 8.587 13.12-11.867 3.959-22.271 11.064-30.255 20.349H63.371V76.5c0-10.566-8.559-19.125-19.125-19.125S25.121 65.934 25.121 76.5v143.438c0 10.566 8.559 19.125 19.125 19.125s19.125-8.559 19.125-19.125v-38.25h65.264c11.475 21.783 34.31 36.653 60.645 36.653 33.488 0 61.315-24.031 67.301-55.778h26.728c5.26 0 9.562 4.303 9.562 9.562v19.125c-5.26 0-9.562 4.303-9.562 9.562v19.125c0 5.26 4.303 9.562 9.562 9.562h57.375c5.26 0 9.562-4.303 9.562-9.562v-19.125c0-5.259-4.303-9.562-9.562-9.562zm-70.524 153.631c0 22.118 17.93 40.048 40.048 40.048s40.038-17.93 40.038-40.048-40.048-79.55-40.048-79.55-40.038 57.432-40.038 79.55z"/></svg><svg height="24" viewBox="0 0 491 491" width="24" x="4" y="517"><g fill="#616161"><path d="M136.85 150.6h157v26.7h-157zm0 45.9h157v26.7h-157zm0 46h157v26.7h-157zm0 46h78.4v26.7h-78.4z"/><path d="M232.35 380.5h-115c-5.4 0-9.9-4.4-9.9-9.9V131.5c0-5.4 4.4-9.9 9.9-9.9h195.9c5.4 0 9.9 4.4 9.9 9.9v153.7c8.9-2.1 18.3-3.3 27.8-3.3 9.7 0 19 1.2 28 3.3V82.5c0-20.8-16.9-37.7-37.7-37.7h-65.1c-8.3-26-32.6-44.8-61.3-44.8s-53 18.8-61.3 44.8h-64.2c-20.8 0-37.7 16.9-37.7 37.7v319.9c0 20.8 16.9 37.7 37.7 37.7h146.9c-3.9-11.8-6-24.3-6-37.4 0-7.6.8-15 2.1-22.2zM214.85 42c12.4 0 22.5 10.1 22.5 22.5S227.25 87 214.85 87s-22.5-10.1-22.5-22.5c0-12.5 10.1-22.5 22.5-22.5z"/><path d="M350.95 315.1c-48.3 0-87.5 39.2-87.5 87.5s39.2 87.5 87.5 87.5 87.5-39.2 87.5-87.5-39.2-87.5-87.5-87.5zm25.2 122.1c-3.8 4.6-8.8 7.8-14.6 9.4-2.5.7-3.7 2-3.5 4.6.1 2.6 0 5.2 0 7.8 0 2.3-1.2 3.5-3.5 3.6-2.8.1-5.6.1-8.3 0-2.4 0-3.6-1.4-3.6-3.8 0-1.9 0-3.8-.1-5.7 0-4.2-.2-4.3-4.2-5-5.1-.8-10.2-2-14.9-4.3-3.7-1.8-4.1-2.7-3-6.6.8-2.9 1.6-5.8 2.5-8.6 1-3.3 1.9-3.7 5-2.1 5.2 2.7 10.7 4.2 16.5 4.9 3.7.5 7.4.1 10.8-1.4 6.4-2.8 7.4-10.3 2-14.7-1.9-1.5-3.9-2.6-6.2-3.6-5.6-2.5-11.5-4.4-16.9-7.6-8.6-5.2-14.1-12.3-13.5-22.8.7-11.9 7.4-19.3 18.3-23.3 4.5-1.6 4.5-1.6 4.5-6.3v-4.8c.1-3.5.7-4.2 4.2-4.3h3.3c7.5 0 7.5 0 7.6 7.5 0 5.3 0 5.3 5.3 6.2 4.1.6 7.9 1.8 11.7 3.5 2.1.9 2.8 2.4 2.2 4.5-.9 3.2-1.8 6.5-2.9 9.7-1 3-2 3.5-4.9 2.1-5.9-2.8-12-4-18.5-3.7-1.7.1-3.4.3-4.9 1-5.6 2.5-6.5 8.6-1.7 12.4 2.4 1.9 5.2 3.3 8 4.5 5 2.1 10 4 14.7 6.6 15.1 8.6 19.1 27.4 8.6 40.3z"/></g></svg><svg height="24" viewBox="0 0 491 491" width="24" x="4" y="545"><g fill="#1471d1"><path d="M136.85 150.6h157v26.7h-157zm0 45.9h157v26.7h-157zm0 46h157v26.7h-157zm0 46h78.4v26.7h-78.4z"/><path d="M232.35 380.5h-115c-5.4 0-9.9-4.4-9.9-9.9V131.5c0-5.4 4.4-9.9 9.9-9.9h195.9c5.4 0 9.9 4.4 9.9 9.9v153.7c8.9-2.1 18.3-3.3 27.8-3.3 9.7 0 19 1.2 28 3.3V82.5c0-20.8-16.9-37.7-37.7-37.7h-65.1c-8.3-26-32.6-44.8-61.3-44.8s-53 18.8-61.3 44.8h-64.2c-20.8 0-37.7 16.9-37.7 37.7v319.9c0 20.8 16.9 37.7 37.7 37.7h146.9c-3.9-11.8-6-24.3-6-37.4 0-7.6.8-15 2.1-22.2zM214.85 42c12.4 0 22.5 10.1 22.5 22.5S227.25 87 214.85 87s-22.5-10.1-22.5-22.5c0-12.5 10.1-22.5 22.5-22.5z"/><path d="M350.95 315.1c-48.3 0-87.5 39.2-87.5 87.5s39.2 87.5 87.5 87.5 87.5-39.2 87.5-87.5-39.2-87.5-87.5-87.5zm25.2 122.1c-3.8 4.6-8.8 7.8-14.6 9.4-2.5.7-3.7 2-3.5 4.6.1 2.6 0 5.2 0 7.8 0 2.3-1.2 3.5-3.5 3.6-2.8.1-5.6.1-8.3 0-2.4 0-3.6-1.4-3.6-3.8 0-1.9 0-3.8-.1-5.7 0-4.2-.2-4.3-4.2-5-5.1-.8-10.2-2-14.9-4.3-3.7-1.8-4.1-2.7-3-6.6.8-2.9 1.6-5.8 2.5-8.6 1-3.3 1.9-3.7 5-2.1 5.2 2.7 10.7 4.2 16.5 4.9 3.7.5 7.4.1 10.8-1.4 6.4-2.8 7.4-10.3 2-14.7-1.9-1.5-3.9-2.6-6.2-3.6-5.6-2.5-11.5-4.4-16.9-7.6-8.6-5.2-14.1-12.3-13.5-22.8.7-11.9 7.4-19.3 18.3-23.3 4.5-1.6 4.5-1.6 4.5-6.3v-4.8c.1-3.5.7-4.2 4.2-4.3h3.3c7.5 0 7.5 0 7.6 7.5 0 5.3 0 5.3 5.3 6.2 4.1.6 7.9 1.8 11.7 3.5 2.1.9 2.8 2.4 2.2 4.5-.9 3.2-1.8 6.5-2.9 9.7-1 3-2 3.5-4.9 2.1-5.9-2.8-12-4-18.5-3.7-1.7.1-3.4.3-4.9 1-5.6 2.5-6.5 8.6-1.7 12.4 2.4 1.9 5.2 3.3 8 4.5 5 2.1 10 4 14.7 6.6 15.1 8.6 19.1 27.4 8.6 40.3z"/></g></svg><svg height="24" viewBox="0 0 24 24" width="24" x="4" y="573"><path d="M0 0h24v24H0z" fill="none"/><path fill="#616161" d="M6 18c0 .55.45 1 1 1h1v3.5c0 .83.67 1.5 1.5 1.5s1.5-.67 1.5-1.5V19h2v3.5c0 .83.67 1.5 1.5 1.5s1.5-.67 1.5-1.5V19h1c.55 0 1-.45 1-1V8H6v10zM3.5 8C2.67 8 2 8.67 2 9.5v7c0 .83.67 1.5 1.5 1.5S5 17.33 5 16.5v-7C5 8.67 4.33 8 3.5 8zm17 0c-.83 0-1.5.67-1.5 1.5v7c0 .83.67 1.5 1.5 1.5s1.5-.67 1.5-1.5v-7c0-.83-.67-1.5-1.5-1.5zm-4.97-5.84l1.3-1.3c.2-.2.2-.51 0-.71-.2-.2-.51-.2-.71 0l-1.48 1.48A5.84 5.84 0 0 0 12 1c-.96 0-1.86.23-2.66.63L7.85.15c-.2-.2-.51-.2-.71 0-.2.2-.2.51 0 .71l1.31 1.31A5.983 5.983 0 0 0 6 7h12c0-1.99-.97-3.75-2.47-4.84zM10 5H9V4h1v1zm5 0h-1V4h1v1z"/></svg><svg height="24" viewBox="0 0 24 24" width="24" x="4" y="601"><path d="M0 0h24v24H0z" fill="none"/><path fill="#c9c9c9" d="M19.43 12.98c.04-.32.07-.64.07-.98s-.03-.66-.07-.98l2.11-1.65c.19-.15.24-.42.12-.64l-2-3.46c-.12-.22-.39-.3-.61-.22l-2.49 1c-.52-.4-1.08-.73-1.69-.98l-.38-2.65A.488.488 0 0 0 14 2h-4c-.25 0-.46.18-.49.42l-.38 2.65c-.61.25-1.17.59-1.69.98l-2.49-1c-.23-.09-.49 0-.61.22l-2 3.46c-.13.22-.07.49.12.64l2.11 1.65c-.04.32-.07.65-.07.98s.03.66.07.98l-2.11 1.65c-.19.15-.24.42-.12.64l2 3.46c.12.22.39.3.61.22l2.49-1c.52.4 1.08.73 1.69.98l.38 2.65c.03.24.24.42.49.42h4c.25 0 .46-.18.49-.42l.38-2.65c.61-.25 1.17-.59 1.69-.98l2.49 1c.23.09.49 0 .61-.22l2-3.46c.12-.22.07-.49-.12-.64l-2.11-1.65zM12 15.5c-1.93 0-3.5-1.57-3.5-3.5s1.57-3.5 3.5-3.5 3.5 1.57 3.5 3.5-1.57 3.5-3.5 3.5z"/></svg><svg height="24" viewBox="0 0 24 24" width="24" x="4" y="629"><path fill="#9e9e9e" d="M7.41 7.84L12 12.42l4.59-4.58L18 9.25l-6 6-6-6z"/><path d="M0-.75h24v24H0z" fill="none"/></svg><svg height="24" viewBox="0 0 24 24" width="24" x="4" y="657"><path d="M0 0h24v24H0z" fill="none"/><path fill="#616161" d="M4 10v7h3v-7H4zm6 0v7h3v-7h-3zM2 22h19v-3H2v3zm14-12v7h3v-7h-3zm-4.5-9L2 6v2h19V6l-9.5-5z"/></svg><svg height="24" viewBox="0 0 24 24" width="24" x="4" y="685"><path d="M0 0h24v24H0z" fill="none"/><path fill="#1471d1" d="M4 10v7h3v-7H4zm6 0v7h3v-7h-3zM2 22h19v-3H2v3zm14-12v7h3v-7h-3zm-4.5-9L2 6v2h19V6l-9.5-5z"/></svg><svg height="24" viewBox="0 0 305 305" width="24" x="4" y="713"><g fill="#616161"><path d="M40.738 112.119c-25.785 44.745-9.393 112.648 19.121 153.82C74.092 286.523 88.502 305 108.239 305c.372 0 .745-.007 1.127-.022 9.273-.37 15.974-3.225 22.453-5.984 7.274-3.1 14.797-6.305 26.597-6.305 11.226 0 18.39 3.101 25.318 6.099 6.828 2.954 13.861 6.01 24.253 5.815 22.232-.414 35.882-20.352 47.925-37.941 12.567-18.365 18.871-36.196 20.998-43.01l.086-.271a2.5 2.5 0 0 0-1.328-3.066c-.032-.015-.15-.064-.183-.078-3.915-1.601-38.257-16.836-38.618-58.36-.335-33.736 25.763-51.601 30.997-54.839l.244-.152a2.498 2.498 0 0 0 .71-3.511c-18.014-26.362-45.624-30.335-56.74-30.813a50.043 50.043 0 0 0-4.95-.242c-13.056 0-25.563 4.931-35.611 8.893-6.936 2.735-12.927 5.097-17.059 5.097-4.643 0-10.668-2.391-17.645-5.159-9.33-3.703-19.905-7.899-31.1-7.899-.267 0-.53.003-.789.008-26.03.383-50.626 15.275-64.186 38.859z"/><path d="M212.101.002c-15.763.642-34.672 10.345-45.974 23.583-9.605 11.127-18.988 29.679-16.516 48.379a2.499 2.499 0 0 0 2.284 2.164c1.064.083 2.15.125 3.232.126 15.413 0 32.04-8.527 43.395-22.257 11.951-14.498 17.994-33.104 16.166-49.77a2.515 2.515 0 0 0-2.587-2.225z"/></g></svg><svg height="24" viewBox="0 0 24 24" width="24" x="4" y="741"><title>check-circle</title><path fill="#1471d1" d="M22 10.069c-.55 0-1 .45-1 1V12c0 4.962-4.038 8.994-9 8.994s-9-4.038-9-9 4.038-9 9-9c1.3 0 2.55.269 3.719.8.5.231 1.094.006 1.325-.494s.006-1.094-.494-1.325a10.925 10.925 0 0 0-4.544-.981c-6.063 0-11 4.938-11 11s4.938 11 11 11c6.063 0 10.994-4.931 11-10.994v-.931c-.006-.55-.456-1-1.006-1z"/><path fill="#1471d1" d="M23.706 2.294a1.005 1.005 0 0 0-1.413 0L11.999 12.588l-2.294-2.294c-.387-.387-1.025-.387-1.413 0s-.387 1.025 0 1.413l3 3a.999.999 0 0 0 1.412 0l11-11a.992.992 0 0 0 0-1.413z"/></svg><svg height="22" viewBox="0 0 24 24" width="24" x="4" y="769"><path d="M7.41 15.41L12 10.83l4.59 4.58L18 14l-6-6-6 6z" fill="#1471d1"/><path d="M0 0h24v24H0z" fill="none"/></svg><svg height="21" viewBox="0 0 24 24" width="21" x="4" y="795"><path d="M0 0h24v24H0z" fill="none"/><path fill="#fff" d="M10.09 15.59L11.5 17l5-5-5-5-1.41 1.41L12.67 11H3v2h9.67l-2.58 2.59zM19 3H5a2 2 0 0 0-2 2v4h2V5h14v14H5v-4H3v4a2 2 0 0 0 2 2h14c1.1 0 2-.9 2-2V5c0-1.1-.9-2-2-2z"/></svg><svg height="18" viewBox="0 0 24 24" width="21" x="4" y="820"><path fill="#fff" d="M20 4H4c-1.1 0-1.99.9-1.99 2L2 18c0 1.1.9 2 2 2h16c1.1 0 2-.9 2-2V6c0-1.1-.9-2-2-2zm0 4l-8 5-8-5V6l8 5 8-5v2z"/><path d="M0 0h24v24H0z" fill="none"/></svg><svg height="16" viewBox="0 0 487 487" width="21" x="4" y="842"><path d="M481.883 61.238l-474.3 171.4c-8.8 3.2-10.3 15-2.6 20.2l70.9 48.4 321.8-169.7-272.4 203.4v82.4c0 5.6 6.3 9 11 5.9l60-39.8 59.1 40.3c5.4 3.7 12.8 2.1 16.3-3.5l214.5-353.7c1.8-2.9-1.1-6.5-4.3-5.3z" fill="#1471d1"/></svg><svg height="20" viewBox="0 0 24 24" width="20" x="4" y="862"><path fill="#fff" d="M7.41 7.84L12 12.42l4.59-4.58L18 9.25l-6 6-6-6z"/><path d="M0-.75h24v24H0z" fill="none"/></svg><svg height="20" viewBox="0 0 487 487" width="20" x="4" y="886"><path fill="#1471d1" d="M243.196 0C108.891 0 0 108.891 0 243.196s108.891 243.196 243.196 243.196 243.196-108.891 243.196-243.196C486.392 108.861 377.501 0 243.196 0zm120.99 188.598l.182 7.752c0 79.16-60.221 170.359-170.359 170.359-33.804 0-65.268-9.91-91.776-26.904 4.682.547 9.454.851 14.288.851 28.059 0 53.868-9.576 74.357-25.627-26.204-.486-48.305-17.814-55.935-41.586 3.678.699 7.387 1.034 11.278 1.034 5.472 0 10.761-.699 15.777-2.067-27.39-5.533-48.031-29.7-48.031-58.701v-.76c8.086 4.499 17.297 7.174 27.116 7.509-16.051-10.731-26.63-29.062-26.63-49.825 0-10.974 2.949-21.249 8.086-30.095 29.518 36.236 73.658 60.069 123.422 62.562-1.034-4.378-1.55-8.968-1.55-13.649 0-33.044 26.812-59.857 59.887-59.857 17.206 0 32.771 7.265 43.714 18.908a121.25 121.25 0 0 0 38.03-14.531c-4.469 13.984-13.953 25.718-26.326 33.135a120.032 120.032 0 0 0 34.382-9.424c-8.025 11.977-18.209 22.526-29.912 30.916z"/></svg><svg height="20" viewBox="0 0 50 50" width="20" x="4" y="910"><path fill="#1471d1" d="M24.826 0C11.137 0 0 11.137 0 24.826c0 13.688 11.137 24.826 24.826 24.826 13.688 0 24.826-11.138 24.826-24.826C49.652 11.137 38.516 0 24.826 0zM31 25.7h-4.039v14.396h-5.985V25.7h-2.845v-5.088h2.845v-3.291c0-2.357 1.12-6.04 6.04-6.04l4.435.017v4.939h-3.219c-.524 0-1.269.262-1.269 1.386v2.99h4.56L31 25.7z"/></svg><svg height="19" viewBox="0 0 24 24" width="19" x="4" y="934"><path d="M0 0h24v24H0z" fill="none"/><path fill="#fff" d="M19.43 12.98c.04-.32.07-.64.07-.98s-.03-.66-.07-.98l2.11-1.65c.19-.15.24-.42.12-.64l-2-3.46c-.12-.22-.39-.3-.61-.22l-2.49 1c-.52-.4-1.08-.73-1.69-.98l-.38-2.65A.488.488 0 0 0 14 2h-4c-.25 0-.46.18-.49.42l-.38 2.65c-.61.25-1.17.59-1.69.98l-2.49-1c-.23-.09-.49 0-.61.22l-2 3.46c-.13.22-.07.49.12.64l2.11 1.65c-.04.32-.07.65-.07.98s.03.66.07.98l-2.11 1.65c-.19.15-.24.42-.12.64l2 3.46c.12.22.39.3.61.22l2.49-1c.52.4 1.08.73 1.69.98l.38 2.65c.03.24.24.42.49.42h4c.25 0 .46-.18.49-.42l.38-2.65c.61-.25 1.17-.59 1.69-.98l2.49 1c.23.09.49 0 .61-.22l2-3.46c.12-.22.07-.49-.12-.64l-2.11-1.65zM12 15.5c-1.93 0-3.5-1.57-3.5-3.5s1.57-3.5 3.5-3.5 3.5 1.57 3.5 3.5-1.57 3.5-3.5 3.5z"/></svg><svg height="18" viewBox="0 0 32 32" width="18" x="4" y="957"><title>plus-alt</title><path d="M16 0C7.164 0 0 7.164 0 16s7.164 16 16 16 16-7.164 16-16S24.836 0 16 0zm8 18h-6v6h-4v-6H8v-4h6V8h4v6h6v4z"/></svg><svg height="18" viewBox="0 0 156 156" width="16" x="4" y="979"><path d="M42.735 121.521c-12.77-10.273-20.942-26.025-20.942-43.691 0-26.114 17.882-47.992 42.051-54.23V9.154C31.854 15.646 7.776 43.927 7.776 77.83c0 20.951 9.199 39.738 23.767 52.578 11.276 10.503 18.284-3.514 11.192-8.887zm80.854-96.775c-7.18-6.485-17.693 4.028-10.801 9.236 12.888 10.27 21.143 26.097 21.143 43.848 0 26.118-17.885 48-42.052 54.234v14.449c31.99-6.499 56.068-34.776 56.068-68.684 0-21.227-9.445-40.233-24.358-53.083zM70.037 35.707L92.85 22.046c3.319-1.988 3.326-5.226.018-7.228L69.844.883c-3.312-1.999-5.985-.49-5.969 3.381l.124 28.035c.01 3.869 2.715 5.396 6.038 3.408zm15.846 84.322l-23.027 13.935c-3.311 2.002-3.304 5.239.019 7.228l22.811 13.662c3.319 1.984 6.03.462 6.047-3.412l.12-28.034c.012-3.868-2.665-5.378-5.97-3.379z" fill="#c9c9c9"/></svg><svg height="16" viewBox="0 0 16 16" width="16" x="4" y="1001"><title>transfer</title><path fill="#4e545a" d="M15.999 12H3.996v2L0 11l3.996-3v2h12.003zM0 6h11.999v2l4-3-4-3v2H0z"/></svg><svg height="16" viewBox="0 0 16 16" width="16" x="4" y="1021"><title>pencil</title><path fill="#c9c9c9" d="M13.5 0a2.5 2.5 0 0 1 2 4l-1 1L11 1.5l1-1c.418-.314.937-.5 1.5-.5zM1 11.5L0 16l4.5-1 9.25-9.25-3.5-3.5L1 11.5zm10.181-5.819l-7 7-.862-.862 7-7 .862.862z"/></svg><svg height="16" viewBox="0 0 15 16" width="15" x="4" y="1041"><title>arrow-r</title><path fill="#4e545a" d="M15.429 7.973c0 .08-.036.161-.089.214l-3.429 3.161a.292.292 0 0 1-.313.054.287.287 0 0 1-.17-.259v-2H.285a.282.282 0 0 1-.286-.286V7.143c0-.161.125-.286.286-.286h11.143v-2c0-.116.063-.214.17-.259s.223-.027.313.045l3.429 3.125a.29.29 0 0 1 .089.205z"/></svg><svg height="15" viewBox="0 0 424 424" width="15" x="4" y="1061"><path d="M43.84 281.457c-18.585-44.869-18.586-94.29 0-139.159 10.649-25.709 26.678-48.152 46.86-66.135l60.86 60.86V15.099H29.635l39.88 39.88c-64.293 58.426-88.5 153.2-53.391 237.959 14.167 34.202 37.07 64.159 66.234 86.634 28.275 21.789 61.873 36.201 97.162 41.677l4.601-29.646c-63.343-9.829-115.784-51.006-140.281-110.146zm363.676 11.481c21.652-52.272 21.652-109.848 0-162.12-14.167-34.202-37.071-64.159-66.234-86.633-28.275-21.79-61.873-36.202-97.162-41.678l-4.601 29.646c63.342 9.829 115.783 51.005 140.28 110.146 18.586 44.869 18.586 94.29 0 139.159-10.649 25.709-26.678 48.152-46.859 66.135l-60.86-60.86v121.924h121.924l-39.801-39.801c22.915-20.757 41.131-46.508 53.313-75.918z" fill="#1471d1"/></svg><svg height="10" viewBox="0 0 32 32" width="15" x="4" y="1080"><path fill="#4b4d4f" d="M22.85 25.421h-7.321a.887.887 0 0 1 0-1.776h7.321a6.44 6.44 0 0 0 6.433-6.434 6.441 6.441 0 0 0-6.433-6.434H3.03l1.852 1.852a.887.887 0 1 1-1.254 1.255L.26 10.519l-.002-.001-.001-.002-.002-.001-.002-.002-.001-.001-.001-.001a.886.886 0 0 1-.224-.397v-.001a.92.92 0 0 1-.021-.107v-.003a.894.894 0 0 1 .06-.452.912.912 0 0 1 .199-.292l3.363-3.363a.887.887 0 0 1 1.254 1.255L3.03 9.004h19.82c4.526 0 8.208 3.683 8.208 8.208 0 4.527-3.682 8.209-8.208 8.209z"/></svg><svg height="14" viewBox="0 0 57 57" width="13" x="4" y="1094"><path fill="#6e6e6e" d="M55.146 51.887L41.588 37.786A22.926 22.926 0 0 0 46.984 23c0-12.682-10.318-23-23-23s-23 10.318-23 23 10.318 23 23 23c4.761 0 9.298-1.436 13.177-4.162l13.661 14.208c.571.593 1.339.92 2.162.92.779 0 1.518-.297 2.079-.837a3.004 3.004 0 0 0 .083-4.242zM23.984 6c9.374 0 17 7.626 17 17s-7.626 17-17 17-17-7.626-17-17 7.626-17 17-17z"/></svg><svg height="12" viewBox="0 0 12 12" width="12" x="4" y="1112"><title>plus</title><path fill="#1471d1" d="M6 .96a5.04 5.04 0 1 0 .001 10.081A5.04 5.04 0 0 0 6 .96zM9 6.6H6.6V9H5.4V6.6H3V5.4h2.4V3h1.2v2.4H9v1.2z"/></svg></svg>