<svg xmlns="http://www.w3.org/2000/svg" xmlns:xlink="http://www.w3.org/1999/xlink" width="42" height="39" viewBox="0 0 42 39"><defs><path id="6h2da" d="M447.96 776.37l-.44 2.94-26.86-5.87.45-2.94a1.84 1.84 0 0 1 2.16-1.46l23.28 5.1a1.9 1.9 0 0 1 1.4 2.23zm-10.8 5.05l9.35 2.04-1.64 8.02a1.84 1.84 0 0 1-2.17 1.46l-2.6-.57.7 2.58a1.92 1.92 0 0 1-1.3 2.35l-23.13 6.63c-.98.28-2-.32-2.27-1.33l-4.03-15.01a1.92 1.92 0 0 1 1.28-2.35l7.16-2.06 1.14-5.59 10.42 2.28 4.42-1.27c.98-.28 2 .32 2.27 1.33zm2.85 7.07l2.7.59c.41.09.81-.18.9-.6l.57-2.8a.78.78 0 0 0-.58-.92l-2.7-.59a.76.76 0 0 0-.9.6l-.57 2.8c-.08.41.18.83.58.92zm-28.5-1.32l.8 2.94 23.79-6.83-.6-2.22-.2-.71a.35.35 0 0 0-.32-.26l-.1.01-1.62.47-15.1 4.33-6.4 1.84a.36.36 0 0 0-.24.43zm26.93 4.84l-1.45-5.4-23.8 6.82 2.36 8.76c.05.17.2.25.33.25h.09l23.14-6.64c.1-.03.17-.11.2-.17a.36.36 0 0 0 .03-.27zm-17.98 6.74a.78.78 0 0 1-.53.96l-2.7.78a.75.75 0 0 1-.92-.54l-.75-2.8a.78.78 0 0 1 .52-.95l2.7-.78c.4-.11.82.13.93.54z"/></defs><g><g transform="translate(-408 -767)"><use fill="#0095a1" xlink:href="#6h2da"/></g></g></svg>