<?xml version="1.0" encoding="utf-8"?>
<!-- Generator: Adobe Illustrator 21.0.2, SVG Export Plug-In . SVG Version: 6.00 Build 0)  -->
<svg version="1.1" id="Слой_1" xmlns="http://www.w3.org/2000/svg" xmlns:xlink="http://www.w3.org/1999/xlink" x="0px" y="0px"
	 viewBox="0 0 113 112" style="enable-background:new 0 0 113 112;" width="40px" height="50px" xml:space="preserve">
<style type="text/css">
	.st0{fill:#010002;}
</style>
<g>
	<path d="M83.5,67c1.4,0,2.5-1.1,2.5-2.5v-3c0-1.4-1.1-2.5-2.5-2.5S81,60.1,81,61.5V62h-1v-3h-3v-1c0-2.2-1.8-4-4-4s-4,1.8-4,4v1
		c0,0.6-0.4,1-1,1s-1-0.4-1-1v-1c0-2.2-1.8-4-4-4s-4,1.8-4,4v1c0,0.6-0.4,1-1,1s-1-0.4-1-1v-1c0-2.2-1.8-4-4-4s-4,1.8-4,4v1
		c0,0.6-0.4,1-1,1s-1-0.4-1-1v-1c0-2.2-1.8-4-4-4s-4,1.8-4,4v1c0,0.6-0.4,1-1,1s-1-0.4-1-1v-1c0-2.2-1.8-4-4-4s-4,1.8-4,4v2h-3v7h3
		v26h-3v7h3v2c0,2.2,1.8,4,4,4s4-1.8,4-4v-1c0-0.6,0.4-1,1-1s1,0.4,1,1v1c0,2.2,1.8,4,4,4s4-1.8,4-4v-1c0-0.6,0.4-1,1-1s1,0.4,1,1v1
		c0,2.2,1.8,4,4,4s4-1.8,4-4v-1c0-0.6,0.4-1,1-1s1,0.4,1,1v1c0,2.2,1.8,4,4,4s4-1.8,4-4v-1c0-0.6,0.4-1,1-1s1,0.4,1,1v1
		c0,2.2,1.8,4,4,4s4-1.8,4-4v-2h3v-1h6v-5h-6v-1h-3V67h3v-3h1v0.5C81,65.9,82.1,67,83.5,67z M41,93c0,1.7-1.3,3-3,3s-3-1.3-3-3V67
		c0-1.7,1.3-3,3-3s3,1.3,3,3V93z M51,93c0,1.7-1.3,3-3,3s-3-1.3-3-3V67c0-1.7,1.3-3,3-3s3,1.3,3,3V93z M61,93c0,1.7-1.3,3-3,3
		s-3-1.3-3-3V67c0-1.7,1.3-3,3-3s3,1.3,3,3V93z M71,93c0,1.7-1.3,3-3,3s-3-1.3-3-3V67c0-1.7,1.3-3,3-3s3,1.3,3,3V93z"/>
</g>
<g>
	<path d="M17.8,45.3c-2.8-5.7-1.3-9,0.8-12.1c2.3-3.4,2.9-6.7,2.9-6.7s1.8,2.4,1.1,6.1c3.2-3.6,3.8-9.3,3.3-11.5
		c7.3,5.1,10.4,16.1,6.2,24.3c22.3-12.6,5.5-31.5,2.6-33.6c1,2.1,1.2,5.7-0.8,7.5C30.7,6.6,22.5,4,22.5,4c1,6.5-3.5,13.6-7.9,18.9
		c-0.2-2.6-0.3-4.4-1.7-6.9c-0.3,4.7-3.9,8.5-4.9,13.3C6.7,35.7,9.1,40.4,17.8,45.3z"/>
</g>
<g>
	<path class="st0" d="M78.2,26.1c0.5,1,2.6,6,2.6,6.7c0,3.9-5.3,3.9-5.3,0C75.6,32.1,77.7,26.8,78.2,26.1z M81.3,23.9
		c0-0.5,0-1.5,0-3c0-1.9-1.8-3.6-4.1-3.6c0,0,0,0-5.4,0l0-1.7c0-0.5-0.4-0.9-0.9-0.9h-2.1v-1.1c0.2-0.1,0.3-0.2,0.5-0.4
		c0.6,0,1.9,0,4.5,0c0.3,0.4,0.7,0.7,1.3,0.7c0.9,0,1.6-0.7,1.6-1.6c0-0.9-0.7-1.6-1.6-1.6c-0.5,0-1,0.3-1.3,0.7c-0.7,0-2.1,0-4.5,0
		c-0.3-0.4-0.8-0.7-1.3-0.7c-0.5,0-1,0.3-1.3,0.7c-1.4,0-3,0-4.9,0c-0.3-0.4-0.8-0.7-1.3-0.7c-0.9,0-1.6,0.7-1.6,1.6
		c0,0.9,0.7,1.6,1.6,1.6c0.5,0,1-0.3,1.3-0.7c0.8,0,2.3,0,5,0c0.1,0.2,0.3,0.3,0.5,0.4v1.1h-2.3c-0.5,0-0.9,0.4-0.9,0.9v1.7
		c-0.5,0-2.1,0-6.6,0v5.3c0.2,0,1.2,0,7.3,0c0.7,1.4,1.7,2.2,3.1,2.2c1.4,0,2.6-0.7,3.4-2.2c0,0,0,0,2.6,0c0.8,0,1.1,0.5,1.2,1.5
		c-0.2,0.2-0.4,0.4-0.4,0.7c0,0.5,0.4,0.9,0.9,0.9H81c0.5,0,0.9-0.4,0.9-0.9C81.9,24.3,81.7,24,81.3,23.9z M82.1,39.1
		c-0.1,0.4-0.1,0.8,0,1.2c0.1,0.4,0.3,0.7,0.5,1c0.9,0.9,2.3,0.9,3.2,0l4.5-4.4l0.6,0.6l-4.5,4.4c-1.2,1.2-3.2,1.2-4.4-0.1
		c-0.4-0.4-0.6-1-0.8-1.5H72c-1.3,0-2.3,1-2.3,2.3c0,1.3,1,2.3,2.3,2.3h16.3c0.5,0,1-0.2,1.4-0.5l10.6-8h5.8v-7.9h0v-0.1H92.6
		L82.8,38C82.5,38.3,82.2,38.7,82.1,39.1z"/>
</g>
</svg>
