<?xml version="1.0" encoding="utf-8"?>
<!-- Generator: Adobe Illustrator 21.0.2, SVG Export Plug-In . SVG Version: 6.00 Build 0)  -->
<svg version="1.1" id="Capa_1" xmlns="http://www.w3.org/2000/svg" xmlns:xlink="http://www.w3.org/1999/xlink" x="0px" y="0px"
	 viewBox="0 0 79.5 79.5" style="enable-background:new 0 0 79.5 79.5;" xml:space="preserve">
<style type="text/css">
	.st0{fill:#0095A1;}
</style>
<g>
	<g>
		<path class="st0" d="M72.8,1.6L72.8,1.6C72.8,1.6,72.6,1.6,72.8,1.6C72.1,0.4,71,0,69.9,0l0,0H9.6l0,0C7.6,0,6,1.6,6,3.6l0,0v3.1
			v11.6v6.5v11.6V43v11.6v6.5v11.6v3.1l0,0c0,0.7,0.2,1.3,0.7,2l0,0l0,0c0.7,0.9,1.8,1.6,2.9,1.6l0,0h60.3l0,0c2,0,3.6-1.6,3.6-3.6
			l0,0v-3.1V61.2v-6.5V43v-6.5V24.9v-6.5V6.7V3.6l0,0C73.2,2.7,73,2.2,72.8,1.6z M28.9,68.3c0,0.9-0.7,1.6-1.6,1.6H19
			c-0.9,0-1.6-0.7-1.6-1.6v-3.6c0-0.9,0.7-1.6,1.6-1.6h8.3c0.9,0,1.6,0.7,1.6,1.6C28.9,64.7,28.9,68.3,28.9,68.3z M28.9,56.2
			c0,0.9-0.7,1.6-1.6,1.6H19c-0.9,0-1.6-0.7-1.6-1.6v-3.6c0-0.9,0.7-1.6,1.6-1.6h8.3c0.9,0,1.6,0.7,1.6,1.6
			C28.9,52.6,28.9,56.2,28.9,56.2z M28.9,44.4c0,0.9-0.7,1.6-1.6,1.6H19c-0.9,0-1.6-0.7-1.6-1.6v-3.6c0-0.9,0.7-1.6,1.6-1.6h8.3
			c0.9,0,1.6,0.7,1.6,1.6C28.9,40.8,28.9,44.4,28.9,44.4z M45.2,68.3c0,0.9-0.7,1.6-1.6,1.6h-8.3c-0.9,0-1.6-0.7-1.6-1.6v-3.6
			c0-0.9,0.7-1.6,1.6-1.6h8.3c0.9,0,1.6,0.7,1.6,1.6V68.3z M45.2,56.2c0,0.9-0.7,1.6-1.6,1.6h-8.3c-0.9,0-1.6-0.7-1.6-1.6v-3.6
			c0-0.9,0.7-1.6,1.6-1.6h8.3c0.9,0,1.6,0.7,1.6,1.6V56.2z M45.2,44.4c0,0.9-0.7,1.6-1.6,1.6h-8.3c-0.9,0-1.6-0.7-1.6-1.6v-3.6
			c0-0.9,0.7-1.6,1.6-1.6h8.3c0.9,0,1.6,0.7,1.6,1.6V44.4z M61.8,68.3c0,0.9-0.7,1.6-1.6,1.6H52c-0.9,0-1.6-0.7-1.6-1.6v-3.6
			c0-0.9,0.7-1.6,1.6-1.6h8.3c0.9,0,1.6,0.7,1.6,1.6V68.3z M61.8,56.2c0,0.9-0.7,1.6-1.6,1.6H52c-0.9,0-1.6-0.7-1.6-1.6v-3.6
			c0-0.9,0.7-1.6,1.6-1.6h8.3c0.9,0,1.6,0.7,1.6,1.6V56.2z M61.8,44.4c0,0.9-0.7,1.6-1.6,1.6H52c-0.9,0-1.6-0.7-1.6-1.6v-3.6
			c0-0.9,0.7-1.6,1.6-1.6h8.3c0.9,0,1.6,0.7,1.6,1.6V44.4z M62.5,31.8L62.5,31.8c0,0.9-0.7,1.6-1.6,1.6H18.1c-0.9,0-1.6-0.7-1.6-1.6
			V11c0-0.9,0.7-1.6,1.6-1.6h42.8c0.9,0,1.6,0.7,1.6,1.6C62.5,11,62.5,31.8,62.5,31.8z"/>
		<path class="st0" d="M28.4,19.7c-1.6-0.7-2.2-0.9-2.2-1.6c0-0.4,0.4-0.9,1.6-0.9c1.3,0,2,0.4,2.5,0.7l0.4-2
			c-0.7-0.2-1.3-0.4-2.5-0.7v-1.6h-1.8v1.8c-1.8,0.4-2.9,1.6-2.9,3.1c0,1.8,1.3,2.7,3.1,3.1c1.3,0.4,1.8,0.9,1.8,1.6
			s-0.7,1.1-1.8,1.1c-1.1,0-2.2-0.4-2.9-0.7l-0.4,2c0.7,0.4,1.8,0.7,2.9,0.7v1.8H28v-2c2-0.4,3.1-1.8,3.1-3.4
			C31.4,21.5,30.5,20.4,28.4,19.7z"/>
		<path class="st0" d="M40.5,19.7c-1.6-0.7-2.2-0.9-2.2-1.6c0-0.4,0.4-0.9,1.6-0.9c1.3,0,2,0.4,2.5,0.7l0.4-2
			c-0.7-0.2-1.3-0.4-2.5-0.7v-1.6h-1.8v1.8c-1.8,0.4-2.9,1.6-2.9,3.1c0,1.8,1.3,2.7,3.1,3.1c1.3,0.4,1.8,0.9,1.8,1.6
			s-0.7,1.1-1.8,1.1c-1.1,0-2.2-0.4-2.9-0.7l-0.4,2c0.7,0.4,1.8,0.7,2.9,0.7v1.8h1.8v-2c2-0.4,3.1-1.8,3.1-3.4
			C43.7,21.5,42.8,20.4,40.5,19.7z"/>
		<path class="st0" d="M52.9,19.7c-1.6-0.7-2.2-0.9-2.2-1.6c0-0.4,0.4-0.9,1.6-0.9c1.3,0,2,0.4,2.5,0.7l0.4-2
			c-0.7-0.2-1.3-0.4-2.5-0.7v-1.6h-1.8v1.8c-1.8,0.4-2.9,1.6-2.9,3.1c0,1.8,1.3,2.7,3.1,3.1c1.3,0.4,1.8,0.9,1.8,1.6
			s-0.7,1.1-1.8,1.1c-1.1,0-2.2-0.4-2.9-0.7l-0.4,2c0.7,0.4,1.8,0.7,2.9,0.7v1.8h1.8v-2c2-0.4,3.1-1.8,3.1-3.4
			C55.8,21.5,54.9,20.4,52.9,19.7z"/>
	</g>
</g>
</svg>
