<?xml version="1.0" encoding="utf-8"?>
<!-- Generator: Adobe Illustrator 21.0.2, SVG Export Plug-In . SVG Version: 6.00 Build 0)  -->
<svg version="1.1" id="Capa_1" xmlns="http://www.w3.org/2000/svg" xmlns:xlink="http://www.w3.org/1999/xlink" x="0px" y="0px"
	 viewBox="0 0 415.9 415.9" style="enable-background:new 0 0 415.9 415.9;" xml:space="preserve">
<style type="text/css">
	.st0{fill:#0095A1;}
</style>
<g>
	<g>
		<path class="st0" d="M297.7,47.5C286.6,37,272.3,32,257.9,32c-16.2,0-32.5,6.4-44.7,18.6l-5.2,5.2l-5.2-5.2
			C190.6,38.4,174.3,32,158.1,32c-14.4,0-28.7,5-39.8,15.5c-24.5,23.1-25,61.7-1.3,85.4l91.1,91.1l91.1-91.1
			C322.7,109.2,322.2,70.6,297.7,47.5z"/>
	</g>
</g>
<g>
	<g>
		<path class="st0" d="M176,383.9l-0.1-90.3c0-43.6-22.3-69.1-51.9-78.8c-8.3-2.5-15.6-9.1-22.5-15.9c-12.5-13-25.9-30.8-43.2-30.6
			v-0.1c-5.6,0.1-11.3,2.1-16.2,7c-11.5,11.5-6.8,29,3.1,38.9l32.2,32.1c3,3,4.7,7.1,4.7,11.3c0,4.2-1.7,8.3-4.7,11.3l-43.5-43.5
			c-7.6-7.6-12.7-17.8-14.1-28c-1.7-12.8,2.2-24.7,11-33.5c6.6-6.6,14.8-10.4,23.6-11.3l-6.4-26C47.5,29.1,0,41,0,63.9v170.8
			c0,10.6,4.1,20.6,11.6,28.2c79.5,80.2,68.4,54.4,68.4,121L176,383.9L176,383.9z"/>
	</g>
</g>
<g>
	<g>
		<path class="st0" d="M415.9,63.9c0-22.9-47.5-34.8-48,62.5l-6.5,26.2c8.9,0.9,17,4.7,23.6,11.3c8.9,8.9,12.8,20.8,11,33.5
			c-1.4,10.2-6.5,20.5-14.1,28L338.5,269c-3-3-4.7-7.1-4.7-11.3c0-4.2,1.7-8.3,4.7-11.3l32.2-32.1c9.9-9.9,14.5-27.4,3.1-38.9
			c-4.9-4.9-10.5-6.9-16.2-7v0.1c-17.3-0.2-30.7,17.6-43.2,30.6c-6.9,6.9-14.3,13.4-22.5,15.9c-29.6,9.6-51.9,35.2-51.9,78.8
			l-0.1,90.3h96c0-66.6-11.1-40.8,68.4-121c7.5-7.5,11.6-17.5,11.6-28.2V63.9z"/>
	</g>
</g>
</svg>
