<?xml version="1.0" encoding="utf-8"?>
<!-- Generator: Adobe Illustrator 21.0.2, SVG Export Plug-In . SVG Version: 6.00 Build 0)  -->
<svg version="1.1" id="Capa_1" xmlns="http://www.w3.org/2000/svg" xmlns:xlink="http://www.w3.org/1999/xlink" x="0px" y="0px"
	 viewBox="0 0 224.8 224.8" style="enable-background:new 0 0 224.8 224.8;" xml:space="preserve">
<style type="text/css">
	.st0{fill:#0095A1;}
</style>
<path class="st0" d="M205.2,127.7v12.7c0,4.1-3.4,7.5-7.5,7.5h-37c-4.1,0-7.5-3.4-7.5-7.5v-12.7c0-3.6,2.6-6.7,6-7.4V106
	c0-2.6-2.1-4.6-4.6-4.6H153c-6.9,12.4-19.9,20.2-34.4,20.2s-27.5-7.8-34.4-20.2h-57c-4.1,0-7.5-3.4-7.5-7.5V69.1
	c0-4.1,3.4-7.5,7.5-7.5h57.7c4.7-7.8,12-13.6,20.5-16.6v-9.3c0-0.5,0.1-1,0.2-1.5H85.4c-4.1,0-7.5-3.4-7.5-7.5V15.9
	c0-4.1,3.4-7.5,7.5-7.5h20V7.5c0-4.1,3.4-7.5,7.5-7.5h11.4c4.1,0,7.5,3.4,7.5,7.5v0.9h20c4.1,0,7.5,3.4,7.5,7.5v10.7
	c0,4.1-3.4,7.5-7.5,7.5h-20.1c0.1,0.5,0.2,1,0.2,1.5V45c8.4,3,15.7,8.8,20.5,16.6h14.4c17.7,0,32,14.4,32,32v26.7
	C202.3,120.8,205.2,123.9,205.2,127.7z M197.4,199.7c-0.1-0.5-0.2-0.9-0.4-1.3l-11.1-35.5c-1-3.1-3.9-5.3-7.2-5.3s-6.2,2.1-7.2,5.3
	L160.2,199c-0.1,0.2-0.1,0.4-0.1,0.5c-0.6,1.9-0.9,3.9-0.9,5.8c0,10.8,8.8,19.5,19.5,19.5s19.5-8.8,19.5-19.5
	C198.2,203.4,197.9,201.5,197.4,199.7z"/>
</svg>
