<?xml version="1.0" encoding="utf-8"?>
<!-- Generator: Adobe Illustrator 21.0.2, SVG Export Plug-In . SVG Version: 6.00 Build 0)  -->
<svg version="1.1" id="Capa_1" xmlns="http://www.w3.org/2000/svg" xmlns:xlink="http://www.w3.org/1999/xlink" x="0px" y="0px"
	 viewBox="0 0 60 60" style="enable-background:new 0 0 60 60;" xml:space="preserve">
<style type="text/css">
	.st0{fill:#0095A1;}
</style>
<g>
	<path class="st0" d="M57.6,0H2.4C1.1,0,0,1.1,0,2.4V14h60V2.4C60,1.1,58.9,0,57.6,0z"/>
	<path class="st0" d="M3,55.6C3,58,5,60,7.4,60h45.2c2.4,0,4.4-2,4.4-4.4V16H3V55.6z M55,48v6.6c0,1.9-1.5,3.4-3.4,3.4H45
		C45,52.5,49.5,48,55,48z M21,28c0-0.6,0.4-1,1-1s1,0.4,1,1v1.5c0,0.8,0.7,1.5,1.5,1.5h11c0.8,0,1.5-0.7,1.5-1.5V28c0-0.6,0.4-1,1-1
		s1,0.4,1,1v1.5c0,1.9-1.6,3.5-3.5,3.5h-11c-1.9,0-3.5-1.6-3.5-3.5V28z M5,48c5.5,0,10,4.5,10,10H8.4C6.5,58,5,56.5,5,54.6V48z"/>
</g>
</svg>
