<?xml version="1.0" encoding="utf-8"?>
<!-- Generator: Adobe Illustrator 21.0.2, SVG Export Plug-In . SVG Version: 6.00 Build 0)  -->
<svg version="1.1" id="Capa_1" xmlns="http://www.w3.org/2000/svg" xmlns:xlink="http://www.w3.org/1999/xlink" x="0px" y="0px"
	 viewBox="0 0 421 421" style="enable-background:new 0 0 421 421;" xml:space="preserve">
<style type="text/css">
	.st0{fill:#0095A1;}
</style>
<g>
	<g>
		<polygon class="st0" points="179.7,218.2 199.8,218.2 189.6,191 		"/>
		<path class="st0" d="M419.9,272.8l-38.4-138.5c-2.9-10.4-12.4-17.7-23.2-17.7H62.7c-10.8,0-20.3,7.2-23.2,17.7L0.9,273.8
			c-2,7.3-0.5,15,4,21c4.6,6,11.7,9.5,19.2,9.5h372.8c0,0,0,0,0,0c13.3,0,24.1-10.8,24.1-24.1C421,277.7,420.6,275.2,419.9,272.8z
			 M133.8,185v59.9c0,3-2.5,5.5-5.5,5.5h-5.9c-3,0-5.5-2.5-5.5-5.5V185H99.1c-3,0-5.5-2.5-5.5-5.5v-3.3c0-3,2.5-5.5,5.5-5.5h52.6
			c3,0,5.5,2.5,5.5,5.5v3.3c0,3-2.5,5.5-5.5,5.5H133.8z M226.9,248c-1,1.5-2.7,2.4-4.6,2.4h-6.5c-2.3,0-4.3-1.4-5.1-3.5l-5.5-14.4
			h-30.8l-5.2,14.3c-0.8,2.2-2.9,3.6-5.2,3.6h-6c-1.8,0-3.5-0.9-4.5-2.4c-1-1.5-1.2-3.4-0.6-5.1l26.8-68.7c0.8-2.1,2.9-3.5,5.1-3.5
			h10c2.2,0,4.3,1.4,5.1,3.5l27.5,68.7C228.1,244.5,227.9,246.5,226.9,248z M298.9,247.5c-1,1.8-2.8,2.9-4.8,2.9h-7.1
			c-1.9,0-3.6-1-4.6-2.5l-15.6-24.3l-15.6,24.3c-1,1.6-2.8,2.5-4.6,2.5h-7.1c-2,0-3.9-1.1-4.8-2.9c-1-1.8-0.9-3.9,0.2-5.6l21.7-33.1
			l-19.2-29.7c-1.1-1.7-1.2-3.8-0.2-5.6c1-1.8,2.8-2.9,4.8-2.9h6.6c1.9,0,3.7,1,4.7,2.6l13.9,22.3l13.6-22.2c1-1.6,2.8-2.6,4.7-2.6
			h6.5c2,0,3.9,1.1,4.8,2.9c1,1.8,0.9,3.9-0.2,5.6l-19.4,30.3l21.6,32.5C299.8,243.5,299.9,245.7,298.9,247.5z M327.5,244.9
			c0,3-2.5,5.5-5.5,5.5h-5.9c-3,0-5.5-2.5-5.5-5.5v-68.7c0-3,2.5-5.5,5.5-5.5h5.9c3,0,5.5,2.5,5.5,5.5V244.9z"/>
	</g>
</g>
</svg>
