<?xml version="1.0" encoding="utf-8"?>
<!-- Generator: Adobe Illustrator 21.0.2, SVG Export Plug-In . SVG Version: 6.00 Build 0)  -->
<svg version="1.1" id="Capa_1" xmlns="http://www.w3.org/2000/svg" xmlns:xlink="http://www.w3.org/1999/xlink" x="0px" y="0px"
	 viewBox="0 0 31.7 31.7" style="enable-background:new 0 0 31.7 31.7;" xml:space="preserve">
<style type="text/css">
	.st0{fill:#0095A1;}
</style>
<g>
	<path class="st0" d="M0,29.7h2.5V9.6H0V29.7z M28.5,9.6V0.9H15.9v8.7h-5v20.1h20.8V9.6H28.5z M19.6,25.5h-2.4V23h2.4V25.5z
		 M19.6,21.4h-2.4V19h2.4V21.4z M19.6,17.6h-2.4v-2.4h2.4V17.6z M24.1,25.5h-2.4V23h2.4V25.5z M24.1,21.4h-2.4V19h2.4V21.4z
		 M24.1,17.6h-2.4v-2.4h2.4V17.6z M28.7,25.5h-2.4V23h2.4V25.5z M28.7,21.4h-2.4V19h2.4V21.4z M28.7,17.6h-2.4v-2.4h2.4V17.6z
		 M30.2,13H14.3v-2.2h1.6v1.1h12.7v-1.1h1.6C30.2,10.8,30.2,13,30.2,13z M3.5,30.8h6.4V7.3H3.5V30.8z M26.9,3.3h-9V2.5h9
		C26.9,2.5,26.9,3.3,26.9,3.3z M26.9,5.6h-9V4.7h9C26.9,4.7,26.9,5.6,26.9,5.6z"/>
</g>
</svg>
