<?xml version="1.0" encoding="utf-8"?>
<!-- Generator: Adobe Illustrator 21.0.2, SVG Export Plug-In . SVG Version: 6.00 Build 0)  -->
<svg version="1.1" id="Слой_1" xmlns="http://www.w3.org/2000/svg" xmlns:xlink="http://www.w3.org/1999/xlink" x="0px" y="0px"
	 viewBox="0 0 382.7 85" style="enable-background:new 0 0 382.7 85;" width="176" height="34" xml:space="preserve">
<style type="text/css">
	.st0{fill:#ffffff;}
</style>
<g>
	<path class="st0" d="M38.4,7.5c10,0,19,4.1,25.5,10.6s10.6,15.6,10.6,25.5c0,10-4.1,19-10.6,25.5S48.3,79.7,38.4,79.7
		s-19-4.1-25.5-10.6S2.3,53.5,2.3,43.6c0-10,4.1-19,10.6-25.5C19.5,11.5,28.5,7.5,38.4,7.5L38.4,7.5L38.4,7.5z M63.3,18.7
		C56.9,12.3,48.1,8.4,38.4,8.4s-18.5,4-24.9,10.3C7.1,25.1,3.2,33.9,3.2,43.6s4,18.5,10.3,24.9c6.4,6.4,15.2,10.3,24.9,10.3
		s18.5-4,24.9-10.3c6.4-6.4,10.4-15.2,10.4-24.9S69.7,25.1,63.3,18.7L63.3,18.7L63.3,18.7z"/>
	<polygon class="st0" points="38.4,9.6 43.9,21.6 32.9,21.6 	"/>
	<polygon class="st0" points="5.8,52.7 18.9,52.7 16.8,57.4 7.5,57.4 	"/>
	<polygon class="st0" points="71,52.7 58.2,52.7 60.2,57.4 69.3,57.3 	"/>
	<polygon class="st0" points="4.6,46.5 21.6,46.5 20,50.3 5.3,50.3 	"/>
	<polygon class="st0" points="72.2,46.5 55.3,46.5 57.1,50.3 71.6,50.3 	"/>
	<polygon class="st0" points="19.9,50.3 57.1,50.3 58.2,52.7 18.9,52.7 	"/>
	<polygon class="st0" points="4.9,39.9 24.8,40 23.1,43.2 4.4,43.2 	"/>
	<polygon class="st0" points="72,39.9 52.3,39.9 53.8,43.3 72.2,43.3 	"/>
	<polygon class="st0" points="6.2,33.5 27.6,33.5 26.4,36 5.4,35.9 	"/>
	<polygon class="st0" points="49.3,33.5 50.5,36 71.2,36 70.5,33.5 	"/>
	<polygon class="st0" points="8.8,27.4 30.4,27.4 29.5,29.3 7.9,29.4 	"/>
	<polygon class="st0" points="68,27.3 46.6,27.3 47.6,29.4 69.1,29.4 	"/>
	<polygon class="st0" points="23.1,43.3 53.9,43.2 55.3,46.4 21.6,46.5 	"/>
	<polygon class="st0" points="26.4,36 50.5,36 52.4,39.9 24.6,40 	"/>
	<polygon class="st0" points="29.4,29.4 47.6,29.4 49.5,33.5 27.6,33.4 	"/>
	<polygon class="st0" points="32.4,22.9 44.7,22.9 46.7,27.4 30.3,27.4 	"/>
	<polygon class="st0" points="16.7,57.4 60.2,57.4 61.1,59.3 15.9,59.3 	"/>
	<polygon class="st0" points="13,21.6 33,21.6 32.4,22.9 11.8,22.9 	"/>
	<polygon class="st0" points="63.9,21.5 43.9,21.6 44.5,23 65,22.9 	"/>
	<path class="st0" d="M61.1,59.2h7.2c-3.8,8.5-14.9,17.7-29,18.2c-14.4,0.5-27.3-9.3-31-18l7.5-0.1L13,65.5l51.1-0.1L61.1,59.2
		L61.1,59.2z"/>
	<path class="st0" d="M38.4,9.4c9.4,0,18,3.8,24.2,10s10,14.8,10,24.2s-3.8,18-10,24.2S47.8,77.9,38.4,77.9s-18-3.8-24.2-10.1
		C8,61.6,4.1,53,4.1,43.6s3.8-18,10.1-24.2C20.4,13.2,29,9.4,38.4,9.4L38.4,9.4L38.4,9.4z M62,20c-6-6-14.2-9.7-23.3-9.8l-0.3-0.6
		l-0.3,0.6C29,10.3,20.8,14,14.8,20S5,34.4,5,43.6c0,8.3,3,15.8,8,21.6l-0.1,0.3h0.4c0.5,0.6,1,1.1,1.5,1.6c6,6.1,14.4,9.8,23.6,9.8
		s17.5-3.7,23.6-9.8c0.6-0.5,1.1-1.1,1.6-1.7H64l-0.1-0.3c5-5.8,7.9-13.4,7.9-21.6C71.8,34.4,68.1,26.1,62,20L62,20L62,20z"/>
	<path class="st0" d="M360.6,45c0,2.7,0,5-0.1,6.2c-0.1,0.8-0.3,1.5-0.8,1.6c-0.3,0.1-0.6,0.1-0.9,0.1c-0.2,0-0.2,0.1-0.2,0.2
		c0,0.2,0.1,0.2,0.5,0.2c0.9,0,2.5-0.1,2.7-0.1s1.9,0.1,3.3,0.1c0.3,0,0.5-0.1,0.5-0.2c0-0.1-0.1-0.2-0.2-0.2
		c-0.3,0-0.7-0.1-1.1-0.1c-0.9-0.1-1-0.7-1.1-1.6c-0.1-1.2-0.1-3.5-0.1-6.2v-2.8h0.1c1.4,1.7,7.4,8.2,8.7,9.3c1.2,1,1.9,1.6,3.5,1.7
		c0.6,0.1,1.2,0.1,2,0.1h1.5c0.5,0,0.6-0.1,0.6-0.2c0-0.1-0.2-0.2-0.4-0.2c-0.2,0-1-0.1-1.8-0.4c-1.4-0.6-1.9-1-4.2-3.3
		c-1.2-1.1-7.1-7.2-7.8-8c0.6-0.7,5.6-5.6,6.3-6.2c1.3-1.2,1.9-1.9,3.1-2.5c0.6-0.2,1.2-0.4,1.6-0.4c0.2,0,0.3-0.1,0.3-0.2
		c0-0.1-0.1-0.2-0.4-0.2c-0.7,0-2.6,0.1-2.7,0.1c-0.7,0-1.6-0.1-2.1-0.1c-0.2,0-0.3,0.1-0.3,0.2c0,0.1,0.1,0.2,0.3,0.2
		c0.2,0.1,0.4,0.3,0.4,0.6c0,0.5-0.7,1.2-1.5,2.1c-1,1.1-6.2,6.4-6.7,6.9h-0.1V40c0-4.4,0-5.2,0.1-6.2s0.3-1.5,1.1-1.6
		c0.3,0,0.5-0.1,0.7-0.1c0.1,0,0.2-0.1,0.2-0.2c0-0.2-0.1-0.2-0.5-0.2c-0.9,0-2.5,0.1-2.8,0.1c-0.2,0-1.9-0.1-3.1-0.1
		c-0.3,0-0.5,0.1-0.5,0.2c0,0.1,0.1,0.2,0.2,0.2c0.3,0,0.7,0,1,0.1c0.9,0.2,1.2,0.7,1.2,1.6c0.1,0.9,0.1,1.7,0.1,6.2L360.6,45
		L360.6,45z"/>
	<path class="st0" d="M351.4,40c0-4.4,0-5.2,0.1-6.2s0.3-1.5,1.1-1.6c0.3,0,0.5-0.1,0.7-0.1c0.1,0,0.2-0.1,0.2-0.2
		c0-0.2-0.1-0.2-0.5-0.2c-0.9,0-2.6,0.1-2.8,0.1c-0.1,0-1.9-0.1-3.2-0.1c-0.3,0-0.5,0.1-0.5,0.2c0,0.1,0.1,0.2,0.2,0.2
		c0.3,0,0.7,0,1,0.1c0.9,0.2,1.2,0.7,1.2,1.6c0.1,0.9,0.1,2,0.1,6.5v0.6c0,0.1-0.1,0.2-0.2,0.2h-12.1c-0.1,0-0.2,0-0.2-0.2v-0.6
		c0-4.4,0-5.6,0.1-6.5c0.1-1,0.3-1.5,1.1-1.6c0.3,0,0.5-0.1,0.7-0.1c0.1,0,0.2-0.1,0.2-0.2c0-0.2-0.1-0.2-0.5-0.2
		c-0.8,0-2.6,0.1-2.8,0.1c-0.1,0-1.9-0.1-3.2-0.1c-0.3,0-0.5,0.1-0.5,0.2c0,0.1,0.1,0.2,0.2,0.2c0.3,0,0.7,0,1,0.1
		c0.9,0.2,1.2,0.7,1.2,1.6c0.1,0.9,0.1,1.7,0.1,6.2v5c0,2.7,0,5-0.1,6.2c-0.1,0.8-0.3,1.5-0.8,1.6c-0.3,0.1-0.6,0.1-0.9,0.1
		c-0.2,0-0.2,0.1-0.2,0.2c0,0.2,0.1,0.2,0.5,0.2c0.8,0,2.6-0.1,2.8-0.1c0.1,0,1.9,0.1,3.5,0.1c0.3,0,0.5-0.1,0.5-0.2
		c0-0.1-0.1-0.2-0.2-0.2c-0.3,0-0.9-0.1-1.3-0.1c-0.9-0.1-1-0.7-1.1-1.6c-0.1-1.2-0.1-3.5-0.1-6.2v-2.7c0-0.1,0.1-0.2,0.2-0.2H349
		c0.1,0,0.2,0.1,0.2,0.2V45c0,2.7,0,5-0.1,6.2c-0.1,0.8-0.3,1.5-0.8,1.6c-0.3,0.1-0.6,0.1-0.9,0.1c-0.2,0-0.2,0.1-0.2,0.2
		c0,0.2,0.1,0.2,0.5,0.2c0.9,0,2.7-0.1,2.8-0.1c0.1,0,1.9,0.1,3.5,0.1c0.3,0,0.5-0.1,0.5-0.2c0-0.1-0.1-0.2-0.2-0.2
		c-0.3,0-0.9-0.1-1.3-0.1c-0.9-0.1-1-0.7-1.1-1.6c-0.1-1.2-0.1-3.5-0.1-6.2v-5H351.4z"/>
	<path class="st0" d="M315.9,43.9c-0.1,0-0.1-0.1-0.1-0.2l2.5-7.7c0.1-0.2,0.1-0.3,0.2-0.3s0.1,0.1,0.2,0.3l2.7,7.7
		c0,0.1,0,0.2-0.1,0.2H315.9L315.9,43.9z M319,31.4c-0.2,0-0.3,0.2-0.6,1.1l-6.5,17.7c-0.5,1.4-1.1,2.5-2.4,2.7
		c-0.2,0-0.6,0.1-0.8,0.1c-0.1,0-0.3,0.1-0.3,0.2c0,0.2,0.2,0.2,0.5,0.2c1.3,0,2.9-0.1,3.2-0.1c0.3,0,1.5,0.1,2.2,0.1
		c0.3,0,0.4-0.1,0.4-0.2c0-0.1-0.1-0.2-0.3-0.2h-0.3c-0.5,0-1.1-0.3-1.1-0.8s0.1-1.2,0.4-1.9l1.7-5c0.1-0.1,0.1-0.2,0.3-0.2h6.1
		c0.1,0,0.2,0.1,0.3,0.2l2.7,7c0.1,0.1,0.1,0.3,0.1,0.4c0,0.3-0.2,0.4-0.2,0.4c-0.1,0-0.2,0.1-0.2,0.2c0,0.2,0.3,0.2,0.9,0.2
		c2,0.1,4,0.1,4.5,0.1c0.3,0,0.6-0.1,0.6-0.2c0-0.1-0.1-0.2-0.3-0.2c-0.3,0-0.7,0-1.1-0.2c-0.6-0.2-1.4-0.6-2.4-3.2
		c-1.7-4.3-6.2-16.1-6.6-17.2C319.2,31.5,319.1,31.4,319,31.4L319,31.4L319,31.4z"/>
	<path class="st0" d="M296.9,42.1c0-0.2,0-0.2,1.7-0.2c1,0,1.9,0.1,3.1,0.9c2.2,1.5,2.8,4.1,2.8,5.8c0,3.2-2.5,4-4,4
		c-0.5,0-1.7-0.1-2.5-0.4c-0.9-0.4-1-0.9-1-3.1L296.9,42.1L296.9,42.1z M297.2,32.9l4.6,0.1c1.7,0,2.4,0.6,2.5,0.9
		c0.2,0.4,0.3,0.9,0.3,1.1c0,0.2,0.1,0.3,0.2,0.3s0.2-0.1,0.2-0.3c0.1-0.3,0.1-1.6,0.1-1.9c0.1-0.8,0.2-1.1,0.2-1.3
		c0-0.1-0.1-0.3-0.2-0.3s-0.2,0.1-0.4,0.2c-0.1,0-0.8,0.1-1.3,0.1s-6.4,0.1-7.4,0.1c-0.9,0-2.4-0.1-3.5-0.1c-0.3,0-0.5,0.1-0.5,0.2
		c0,0.1,0.1,0.2,0.2,0.2c0.3,0,0.7,0,1,0.1c0.9,0.2,1.1,0.6,1.2,1.3c0.1,0.5,0.1,1.7,0.1,6.5v5c0,3.5-0.1,5.8-0.2,6.5
		c-0.2,0.8-0.3,1.1-0.8,1.2c-0.3,0.1-0.6,0.1-0.9,0.1c-0.2,0-0.2,0.1-0.2,0.2c0,0.2,0.1,0.2,0.5,0.2c0.9,0,2.7-0.1,2.8-0.1
		c0.2,0,3.1,0.2,3.8,0.2c4.9,0,7.3-3.2,7.3-6.2c0-5.3-5-6.1-8-6.1c-0.8,0-1.4-0.1-1.6-0.1s-0.3-0.1-0.3-0.3v-7.5
		C296.9,33,297,32.9,297.2,32.9L297.2,32.9L297.2,32.9z"/>
	<path class="st0" d="M276.2,43.7l2.5-7.7c0.1-0.4,0.3-0.4,0.4,0l2.7,7.7l0.5,1.4l2.7,7c0.2,0.5,0,0.7-0.2,0.8
		c-0.1,0-0.2,0.1-0.2,0.2c0,0.2,0.3,0.2,0.9,0.2c2,0.1,4.1,0.1,4.5,0.1c0.3,0,0.6-0.1,0.6-0.2c0-0.1-0.1-0.2-0.3-0.2
		c-0.3,0-0.7,0-1.1-0.2c-0.6-0.2-1.4-0.6-2.5-3.2c-1.7-4.3-6.2-16.1-6.6-17.2c-0.3-0.9-0.5-1-0.6-1c-0.2,0-0.3,0.2-0.6,1.1
		l-6.5,17.7c-0.5,1.4-1.1,2.5-2.4,2.7c-0.2,0-0.6,0.1-0.8,0.1c-0.1,0-0.3,0.1-0.3,0.2c0,0.2,0.2,0.2,0.5,0.2c1.3,0,2.9-0.1,3.2-0.1
		c0.3,0,1.5,0.1,2.2,0.1c0.3,0,0.4-0.1,0.4-0.2c0-0.1-0.1-0.2-0.3-0.2h-0.3c-0.5,0-1.1-0.3-1.1-0.8s0.1-1.2,0.4-1.9L276.2,43.7
		L276.2,43.7z"/>
	<path class="st0" d="M256.3,43.9c-0.1,0-0.1-0.1-0.1-0.2l2.5-7.7c0.1-0.2,0.1-0.3,0.2-0.3s0.1,0.1,0.2,0.3l2.7,7.7
		c0,0.1,0,0.2-0.1,0.2H256.3L256.3,43.9z M259.4,31.4c-0.2,0-0.3,0.2-0.6,1.1l-6.5,17.7c-0.5,1.4-1.1,2.5-2.4,2.7
		c-0.2,0-0.6,0.1-0.8,0.1c-0.1,0-0.3,0.1-0.3,0.2c0,0.2,0.2,0.2,0.5,0.2c1.3,0,2.9-0.1,3.2-0.1c0.3,0,1.5,0.1,2.2,0.1
		c0.3,0,0.4-0.1,0.4-0.2c0-0.1-0.1-0.2-0.3-0.2h-0.3c-0.5,0-1.1-0.3-1.1-0.8s0.1-1.2,0.4-1.9l1.7-5c0.1-0.1,0.1-0.2,0.3-0.2h6.1
		c0.1,0,0.2,0.1,0.3,0.2l2.7,7c0.1,0.1,0.1,0.3,0.1,0.4c0,0.3-0.2,0.4-0.2,0.4c-0.1,0-0.2,0.1-0.2,0.2c0,0.2,0.3,0.2,0.9,0.2
		c2,0.1,4.1,0.1,4.5,0.1c0.3,0,0.6-0.1,0.6-0.2c0-0.1-0.1-0.2-0.3-0.2c-0.3,0-0.7,0-1.1-0.2c-0.6-0.2-1.4-0.6-2.5-3.2
		c-1.7-4.3-6.2-16.1-6.6-17.2C259.7,31.5,259.6,31.4,259.4,31.4L259.4,31.4L259.4,31.4z"/>
	<path class="st0" d="M244.6,40c0-4.4,0-5.2,0.1-6.2s0.3-1.5,1.1-1.6c0.3,0,0.5-0.1,0.7-0.1c0.1,0,0.2-0.1,0.2-0.2
		c0-0.2-0.1-0.2-0.5-0.2c-0.9,0-2.7,0.1-2.8,0.1c-0.1,0-2.3-0.1-3.2-0.1c-0.3,0-0.5,0.1-0.5,0.2c0,0.1,0.1,0.2,0.2,0.2
		c0.3,0,0.7,0,1,0.1c0.9,0.2,1.1,0.6,1.2,1.3c0.1,0.5,0.1,1.7,0.1,6.5v5c0,3.5-0.1,5.8-0.2,6.5c-0.2,0.8-0.3,1.1-0.8,1.2
		c-0.3,0.1-0.6,0.1-0.9,0.1c-0.2,0-0.2,0.1-0.2,0.2c0,0.2,0.1,0.2,0.5,0.2c0.5,0,2.7-0.1,2.8-0.1c0.1,0,1.9,0.1,3.5,0.1
		c0.3,0,0.5-0.1,0.5-0.2c0-0.1-0.1-0.2-0.2-0.2c-0.3,0-0.9-0.1-1.3-0.1c-0.9-0.1-1-0.7-1.1-1.6c-0.1-1.2-0.1-3.5-0.1-6.2L244.6,40
		L244.6,40z"/>
	<path class="st0" d="M223.9,45c0,2.7,0,5-0.1,6.2c-0.1,0.8-0.3,1.5-0.8,1.6c-0.3,0.1-0.6,0.1-0.9,0.1c-0.2,0-0.2,0.1-0.2,0.2
		c0,0.2,0.1,0.2,0.5,0.2c0.9,0,2.7-0.1,2.7-0.1c0.1,0,1.9,0.1,3.5,0.1c0.3,0,0.5-0.1,0.5-0.2c0-0.1-0.1-0.2-0.2-0.2
		c-0.3,0-0.9-0.1-1.3-0.1c-0.9-0.1-1-0.7-1.1-1.6c-0.1-1.2-0.1-3.5-0.1-6.2V33.3c0-0.3,0.1-0.5,0.2-0.5c0.3-0.1,0.7-0.2,1.2-0.2
		c0.7,0,2.4-0.1,3.9,1.4s1.6,3.5,1.6,4.4c0,2.6-2.2,4.6-4.9,4.6c-0.6,0-0.8,0-0.8,0.3c0,0.1,0.2,0.2,0.3,0.2s0.5,0,0.6,0
		c4,0,7-2.7,7-6.8c0-1.5-0.8-2.8-1.4-3.4c-0.5-0.4-1.7-1.6-5.3-1.6c-1.3,0-3,0.1-3.6,0.1c-0.2,0-1.9-0.1-3.2-0.1
		c-0.3,0-0.5,0.1-0.5,0.2c0,0.1,0.1,0.2,0.2,0.2c0.3,0,0.7,0,1,0.1c0.9,0.2,1.2,0.7,1.2,1.6c0.1,0.9,0.1,1.7,0.1,6.2L223.9,45
		L223.9,45z"/>
	<path class="st0" d="M210.2,33l3.6,0.1c2.7,0.1,3.4,0.7,3.5,1.6V35c0,0.4,0.1,0.5,0.2,0.5c0.1,0,0.2-0.1,0.2-0.4
		c0-0.3,0.1-2.3,0.1-3.1c0-0.2,0-0.3-0.1-0.3c-0.2,0-1,0.3-2.8,0.3h-10.7c-0.3,0-1.4-0.1-2.3-0.1c-0.8-0.1-1.1-0.3-1.3-0.3
		c-0.1,0-0.2,0.4-0.3,0.5c-0.1,0.2-0.6,2.7-0.6,3c0,0.2,0.1,0.3,0.1,0.3c0.1,0,0.2-0.1,0.3-0.3s0.2-0.4,0.5-0.9
		c0.5-0.7,1.1-0.9,2.9-0.9l4.2-0.1v12.1c0,2.7,0,5-0.1,6.2c-0.1,0.8-0.3,1.5-0.8,1.6c-0.3,0.1-0.6,0.1-0.9,0.1
		c-0.2,0-0.2,0.1-0.2,0.2c0,0.2,0.1,0.2,0.5,0.2c0.9,0,2.7-0.1,2.8-0.1s1.9,0.1,3.5,0.1c0.3,0,0.5-0.1,0.5-0.2
		c0-0.1-0.1-0.2-0.2-0.2c-0.3,0-0.9-0.1-1.3-0.1c-0.9-0.1-1-0.7-1.1-1.6c-0.1-1.2-0.1-3.5-0.1-6.2L210.2,33L210.2,33z"/>
	<path class="st0" d="M190.8,53.7c1.8,0,4-0.2,5.1-0.7c0.5-0.2,0.6-0.3,0.7-0.8c0.3-1,0.6-3.4,0.6-3.7c0-0.2-0.1-0.4-0.2-0.4
		c-0.2,0-0.2,0.1-0.3,0.4c-0.1,0.5-0.5,1.8-1.1,2.4c-1.1,1.2-2.8,1.4-5,1.4c-6.1,0-10.3-5-10.3-10.4c0-5,1.8-9.5,9.1-9.5
		c3.6,0,6.9,1.2,6.9,4.5c0,0.4,0,0.6,0.2,0.6s0.3-0.4,0.3-1.8c0-1.7,0.2-3,0.2-3.3c0-0.2-0.1-0.3-0.4-0.3c-1.1,0-3.6-0.8-7-0.8
		c-9.1,0-11.9,6.3-11.9,10.8C177.9,48.8,182.1,53.7,190.8,53.7L190.8,53.7L190.8,53.7z"/>
	<path class="st0" d="M166.5,51.1c-0.8,2-1.4,3.4-2.8,3.4c-1.1,0-1.9-1.3-1.9-2.8c0-0.4,0-0.5-0.2-0.5c-0.1,0-0.1,0-0.2,0.3
		c-0.1,0.9-0.2,2.6-0.2,3.6c0,0.3,0.1,0.5,0.4,0.7c0.5,0.3,1.5,0.5,2,0.5c1.5,0,2.9-1.5,3.9-3.9l7-17.1c0.8-2,1.3-2.4,1.7-2.7
		c0.5-0.3,1.2-0.3,1.4-0.3s0.3-0.1,0.3-0.2c0-0.1-0.1-0.2-0.5-0.2c-0.8,0-2,0.1-2.2,0.1c-0.3,0-1.7-0.1-2.8-0.1
		c-0.5,0-0.6,0.1-0.7,0.2c0,0.1,0.1,0.2,0.3,0.2c0.3,0,0.7,0,1.1,0.1c0.3,0.1,0.3,0.4,0.3,0.7l-0.4,1.3c-0.7,2.3-3.9,10.4-5.5,14.4
		l-6.4-13.6c-0.5-1-0.7-1.9-0.7-2.2c0-0.2,0.1-0.4,0.4-0.6c0.3-0.1,0.8-0.1,1.1-0.1c0.2,0,0.3-0.1,0.3-0.2c0-0.1-0.3-0.2-0.8-0.2
		c-1.1,0-2.4,0.1-2.7,0.1s-2-0.1-3.3-0.1c-0.5,0-0.7,0-0.7,0.2c0,0.1,0.1,0.2,0.2,0.2c0.2,0,0.7,0,1.1,0.1c1,0.3,1.3,0.7,2.1,2.2
		L166.5,51.1L166.5,51.1z"/>
	<path class="st0" d="M146.5,31.1c-0.2,0-0.3,0.2-0.7,1.1l-7,17.8c-0.5,1.3-1.1,2-2.5,2c-0.8,0-1.2-0.3-1.5-0.3
		c-0.1,0-0.1,0.1-0.1,0.4c0,0.2,0.4,2.8,0.6,3.4c0.1,0.2,0.1,0.3,0.2,0.3c0.1,0,0.2-0.1,0.2-0.3c0-0.7,0-1,0.1-1.4
		c0.2-0.7,0.9-0.9,2.3-0.9H155c2.4,0,2.5,0.9,2.5,1.8v0.3c0,0.4,0.1,0.5,0.2,0.5c0.2,0,0.2-0.1,0.3-0.4c0.1-0.3,0.7-3.4,0.7-3.5
		s0-0.2-0.1-0.2c-0.2,0-0.9,0.2-1.7,0.2c-1.2,0-2.1-1-2.8-2.6l-7-17.3C146.8,31.2,146.7,31.1,146.5,31.1L146.5,31.1L146.5,31.1z
		 M140.2,52c0-0.6,0.1-1.2,0.4-2l5-14.2c0.1-0.2,0.2-0.3,0.3-0.3s0.2,0.1,0.3,0.3l6.4,16.3c-2.2,0.1-4.7,0.1-6.7,0.1
		C144.2,52.1,141.8,52.1,140.2,52L140.2,52L140.2,52z"/>
	<path class="st0" d="M130.2,40c0-4.4,0-5.2,0.1-6.2s0.3-1.5,1.1-1.6c0.3,0,0.5-0.1,0.7-0.1c0.1,0,0.2-0.1,0.2-0.2
		c0-0.2-0.1-0.2-0.5-0.2c-0.9,0-2.7,0.1-2.8,0.1s-1.9-0.1-3.2-0.1c-0.3,0-0.5,0.1-0.5,0.2c0,0.1,0.1,0.2,0.2,0.2c0.3,0,0.7,0,1,0.1
		c0.9,0.2,1.2,0.7,1.2,1.6c0.1,0.9,0.1,2,0.1,6.5v0.6c0,0.1-0.1,0.2-0.2,0.2h-12.1c-0.1,0-0.2,0-0.2-0.2v-0.6c0-4.4,0-5.6,0.1-6.5
		c0.1-1,0.3-1.5,1.1-1.6c0.3,0,0.5-0.1,0.7-0.1c0.1,0,0.2-0.1,0.2-0.2c0-0.2-0.1-0.2-0.5-0.2c-0.9,0-2.6,0.1-2.8,0.1
		c-0.1,0-1.9-0.1-3.2-0.1c-0.3,0-0.5,0.1-0.5,0.2c0,0.1,0.1,0.2,0.2,0.2c0.3,0,0.7,0,1,0.1c0.9,0.2,1.2,0.7,1.2,1.6
		c0.1,0.9,0.1,1.7,0.1,6.2v5c0,2.7,0,5-0.1,6.2c-0.1,0.8-0.3,1.5-0.8,1.6c-0.3,0.1-0.6,0.1-0.9,0.1c-0.2,0-0.2,0.1-0.2,0.2
		c0,0.2,0.1,0.2,0.5,0.2c0.8,0,2.6-0.1,2.8-0.1c0.1,0,1.9,0.1,3.5,0.1c0.3,0,0.5-0.1,0.5-0.2c0-0.1-0.1-0.2-0.2-0.2
		c-0.3,0-0.9-0.1-1.3-0.1c-0.9-0.1-1-0.7-1.1-1.6c-0.1-1.2-0.1-3.5-0.1-6.2v-2.6c0-0.1,0.1-0.2,0.2-0.2h12.1c0.1,0,0.2,0.1,0.2,0.2
		v2.7c0,2.7,0,5-0.1,6.2c-0.1,0.8-0.3,1.5-0.8,1.6c-0.3,0.1-0.6,0.1-0.9,0.1c-0.2,0-0.2,0.1-0.2,0.2c0,0.2,0.1,0.2,0.5,0.2
		c0.9,0,2.6-0.1,2.8-0.1c0.1,0,1.9,0.1,3.5,0.1c0.3,0,0.5-0.1,0.5-0.2c0-0.1-0.1-0.2-0.2-0.2c-0.3,0-0.9-0.1-1.3-0.1
		c-0.9-0.1-1-0.7-1.1-1.6c-0.1-1.2-0.1-3.5-0.1-6.2V40H130.2z"/>
	<path class="st0" d="M102.8,40c0-4.4,0-5.2,0.1-6.2s0.3-1.5,1.1-1.6c0.3,0,0.5-0.1,0.7-0.1c0.1,0,0.2-0.1,0.2-0.2
		c0-0.2-0.1-0.2-0.5-0.2c-0.8,0-2.6,0.1-2.8,0.1c-0.1,0-2.3-0.1-3.2-0.1c-0.3,0-0.5,0.1-0.5,0.2c0,0.1,0.1,0.2,0.2,0.2
		c0.3,0,0.7,0,1,0.1c0.9,0.2,1.1,0.6,1.2,1.3c0.1,0.5,0.1,1.7,0.1,6.5v5c0,3.5-0.1,5.8-0.2,6.5c-0.2,0.8-0.3,1.1-0.8,1.2
		c-0.3,0.1-0.6,0.1-0.9,0.1c-0.2,0-0.2,0.1-0.2,0.2c0,0.2,0.1,0.2,0.5,0.2c0.5,0,2.7-0.1,2.8-0.1c0.1,0,1.9,0.1,3.5,0.1
		c0.3,0,0.5-0.1,0.5-0.2c0-0.1-0.1-0.2-0.2-0.2c-0.3,0-0.9-0.1-1.3-0.1c-0.9-0.1-1-0.7-1.1-1.6c-0.1-1.2-0.1-3.5-0.1-6.2L102.8,40
		L102.8,40z"/>
</g>
</svg>
