<?xml version="1.0" encoding="UTF-8"?><!DOCTYPE svg PUBLIC "-//W3C//DTD SVG 1.1//EN" "http://www.w3.org/Graphics/SVG/1.1/DTD/svg11.dtd"><svg xmlns="http://www.w3.org/2000/svg" xmlns:xlink="http://www.w3.org/1999/xlink" height="526" viewBox="0 0 37 526" width="37"><svg height="29" viewBox="0 0 482 482" width="20" x="4" y="4"><path d="M384.759 213.6c-4.7-3.7-46.2-49.4-69.7-70.7-.1-.1-.1-.1-.1-.2V44.3c0-24.4-19.9-44.3-44.3-44.3h-145.1c-22.7 0-41.2 18.6-41.2 41.2V272c0 24.4 19.9 44.3 44.3 44.3h52.9c1.8 0 3.3-1.6 3.1-3.4l-2.3-19.6c-.2-1.6-1.5-2.7-3.1-2.7h-6.3c-1.7 0-3.1-1.4-3.1-3.1V25.3c0-1.7 1.4-3.1 3.1-3.1h98c9.9 0 18 8.1 18 18v235.3c0 6.8-4.7 12.6-11 14.4h-.2c-10.7-5.8-23.3-30.6-25.2-34.5-.2-.3-.3-.7-.3-1-.7-6.3-7.8-67.3-40.3-67.3-.9 0-1.8 0-2.7.1 0 0-26 2.2-4.5 76.3 0 .2.1.3.1.5l9.5 82.1c0 .1 0 .2.1.4.8 3.1 11.6 45 39.5 74.7.5.6.8 1.3.8 2.1v7.1c0 .2-.1.3-.3.3h-2.5c-6.1 0-11.1 5-11.1 11.1v28.9c0 6.1 5 11.1 11.1 11.1h117.7c6.1 0 11.1-5 11.1-11.1V442c0-6.1-5-11.1-11.1-11.1-.2 0-.3-.1-.3-.3 3.9-36.2 17.9-160 25.4-169.7.2-.3.4-.6.5-1 1.3-4.5 7.8-32-10.5-46.3zm-254.1 74.1c0 1.6-1.3 2.8-2.8 2.8-9.8 0-17.8-8-17.8-17.8V40c0-9.8 8-17.8 17.8-17.8 1.6 0 2.8 1.3 2.8 2.8v262.7z" fill="#1471d1"/></svg><svg height="29" viewBox="0 0 482 482" width="20" x="4" y="37"><path d="M384.759 213.6c-4.7-3.7-46.2-49.4-69.7-70.7-.1-.1-.1-.1-.1-.2V44.3c0-24.4-19.9-44.3-44.3-44.3h-145.1c-22.7 0-41.2 18.6-41.2 41.2V272c0 24.4 19.9 44.3 44.3 44.3h52.9c1.8 0 3.3-1.6 3.1-3.4l-2.3-19.6c-.2-1.6-1.5-2.7-3.1-2.7h-6.3c-1.7 0-3.1-1.4-3.1-3.1V25.3c0-1.7 1.4-3.1 3.1-3.1h98c9.9 0 18 8.1 18 18v235.3c0 6.8-4.7 12.6-11 14.4h-.2c-10.7-5.8-23.3-30.6-25.2-34.5-.2-.3-.3-.7-.3-1-.7-6.3-7.8-67.3-40.3-67.3-.9 0-1.8 0-2.7.1 0 0-26 2.2-4.5 76.3 0 .2.1.3.1.5l9.5 82.1c0 .1 0 .2.1.4.8 3.1 11.6 45 39.5 74.7.5.6.8 1.3.8 2.1v7.1c0 .2-.1.3-.3.3h-2.5c-6.1 0-11.1 5-11.1 11.1v28.9c0 6.1 5 11.1 11.1 11.1h117.7c6.1 0 11.1-5 11.1-11.1V442c0-6.1-5-11.1-11.1-11.1-.2 0-.3-.1-.3-.3 3.9-36.2 17.9-160 25.4-169.7.2-.3.4-.6.5-1 1.3-4.5 7.8-32-10.5-46.3zm-254.1 74.1c0 1.6-1.3 2.8-2.8 2.8-9.8 0-17.8-8-17.8-17.8V40c0-9.8 8-17.8 17.8-17.8 1.6 0 2.8 1.3 2.8 2.8v262.7z" fill="#616161"/></svg><svg height="28.047" viewBox="0 0 29 29" width="28.047" x="4" y="70"><path fill="#1471d1" d="M25.818.433H2.231C.998.433 0 1.451 0 2.699v22.654c0 1.25.998 2.262 2.231 2.262h23.587c1.23 0 2.229-1.012 2.229-2.262V2.699c.001-1.248-.998-2.266-2.229-2.266zM3.644 2.06h20.763c1.083 0 1.963.895 1.963 1.994V8.54H1.68V4.054c0-1.1.876-1.994 1.964-1.994zm6.024 8.736H26.37v5.982H9.668v-5.982zM1.68 23.995V10.796h5.812v15.193H3.644c-1.088.001-1.964-.892-1.964-1.994zm22.727 1.995H9.668v-6.957H26.37v4.963c0 1.101-.88 1.994-1.963 1.994z"/></svg><svg height="28.047" viewBox="0 0 29 29" width="28.047" x="4" y="103"><path fill="#616161" d="M25.818.433H2.231C.998.433 0 1.451 0 2.699v22.654c0 1.25.998 2.262 2.231 2.262h23.587c1.23 0 2.229-1.012 2.229-2.262V2.699c.001-1.248-.998-2.266-2.229-2.266zM3.644 2.06h20.763c1.083 0 1.963.895 1.963 1.994V8.54H1.68V4.054c0-1.1.876-1.994 1.964-1.994zm6.024 8.736H26.37v5.982H9.668v-5.982zM1.68 23.995V10.796h5.812v15.193H3.644c-1.088.001-1.964-.892-1.964-1.994zm22.727 1.995H9.668v-6.957H26.37v4.963c0 1.101-.88 1.994-1.963 1.994z"/></svg><svg height="26" viewBox="0 0 424 424" width="26" x="4" y="136"><path d="M43.84 281.457c-18.585-44.869-18.586-94.29 0-139.159 10.649-25.709 26.678-48.152 46.86-66.135l60.86 60.86V15.099H29.635l39.88 39.88c-64.293 58.426-88.5 153.2-53.391 237.959 14.167 34.202 37.07 64.159 66.234 86.634 28.275 21.789 61.873 36.201 97.162 41.677l4.601-29.646c-63.343-9.829-115.784-51.006-140.281-110.146zm363.676 11.481c21.652-52.272 21.652-109.848 0-162.12-14.167-34.202-37.071-64.159-66.234-86.633-28.275-21.79-61.873-36.202-97.162-41.678l-4.601 29.646c63.342 9.829 115.783 51.005 140.28 110.146 18.586 44.869 18.586 94.29 0 139.159-10.649 25.709-26.678 48.152-46.859 66.135l-60.86-60.86v121.924h121.924l-39.801-39.801c22.915-20.757 41.131-46.508 53.313-75.918z" fill="#1471d1"/></svg><svg height="26" viewBox="0 0 424 424" width="26" x="4" y="166"><path d="M43.84 281.457c-18.585-44.869-18.586-94.29 0-139.159 10.649-25.709 26.678-48.152 46.86-66.135l60.86 60.86V15.099H29.635l39.88 39.88c-64.293 58.426-88.5 153.2-53.391 237.959 14.167 34.202 37.07 64.159 66.234 86.634 28.275 21.789 61.873 36.201 97.162 41.677l4.601-29.646c-63.343-9.829-115.784-51.006-140.281-110.146zm363.676 11.481c21.652-52.272 21.652-109.848 0-162.12-14.167-34.202-37.071-64.159-66.234-86.633-28.275-21.79-61.873-36.202-97.162-41.678l-4.601 29.646c63.342 9.829 115.783 51.005 140.28 110.146 18.586 44.869 18.586 94.29 0 139.159-10.649 25.709-26.678 48.152-46.859 66.135l-60.86-60.86v121.924h121.924l-39.801-39.801c22.915-20.757 41.131-46.508 53.313-75.918z" fill="#616161"/></svg><svg height="25" viewBox="0 0 512 512" width="25" x="4" y="196"><path fill="#616161" d="M478.609 38.957H33.391C14.978 38.957 0 53.935 0 72.348v100.174c0 18.413 14.978 33.391 33.391 33.391h66.783v217.044c0 27.619 22.468 50.087 50.087 50.087h211.478c27.619 0 50.087-22.468 50.087-50.087V205.913h66.783c18.413 0 33.391-14.978 33.391-33.391V72.348c0-18.413-14.978-33.391-33.391-33.391zM244.87 439.652h-94.609c-9.206 0-16.696-7.49-16.696-16.696V139.13H244.87v300.522zm133.565-16.695c0 9.206-7.49 16.696-16.696 16.696h-50.087V139.13h66.783v283.827z"/></svg><svg height="25" viewBox="0 0 512 512" width="25" x="4" y="225"><path fill="#1471d1" d="M478.609 38.957H33.391C14.978 38.957 0 53.935 0 72.348v100.174c0 18.413 14.978 33.391 33.391 33.391h66.783v217.044c0 27.619 22.468 50.087 50.087 50.087h211.478c27.619 0 50.087-22.468 50.087-50.087V205.913h66.783c18.413 0 33.391-14.978 33.391-33.391V72.348c0-18.413-14.978-33.391-33.391-33.391zM244.87 439.652h-94.609c-9.206 0-16.696-7.49-16.696-16.696V139.13H244.87v300.522zm133.565-16.695c0 9.206-7.49 16.696-16.696 16.696h-50.087V139.13h66.783v283.827z"/></svg><svg height="25" viewBox="0 0 47 47" width="25" x="4" y="254"><g fill="#1471d1"><path d="M42.539 8.23L20.046 2.203a6.202 6.202 0 0 0-1.601-.211c-2.652 0-4.963 1.714-5.621 4.169L9.902 17.065h4.285l1.162-4.335 25.992 6.965-2.276 8.499c-.188.697-.977 1.16-1.807 1.09v4.14c.062.002.123.013.184.013 2.654 0 4.965-1.717 5.623-4.17l3.75-13.997c.81-3.034-1.107-6.191-4.276-7.04zm.275 5.967l-.401 1.5L16.42 8.732l.402-1.499c.174-.649.841-1.102 1.623-1.102.177 0 .354.024.529.07l22.493 6.027c.948.254 1.565 1.156 1.347 1.969z"/><path d="M29.236 19.135H5.951C2.67 19.135 0 21.689 0 24.827v14.489c0 3.139 2.67 5.691 5.951 5.691h23.287c3.281 0 5.951-2.554 5.951-5.691V24.827c-.001-3.138-2.669-5.692-5.953-5.692zm1.812 20.181c0 .843-.829 1.553-1.812 1.553H5.951c-.981 0-1.811-.71-1.811-1.553V24.827c0-.841.83-1.552 1.811-1.552h23.287c.982 0 1.811.711 1.811 1.552l-.001 14.489z"/><path d="M11.772 36.212h-4.14c-.572 0-1.035.463-1.035 1.034v1.035c0 .572.463 1.035 1.035 1.035h4.14c.572 0 1.035-.463 1.035-1.035v-1.035a1.034 1.034 0 0 0-1.035-1.034zm7.892 0h-4.14c-.571 0-1.035.463-1.035 1.034v1.035c0 .572.463 1.035 1.035 1.035h4.14c.571 0 1.035-.463 1.035-1.035v-1.035c0-.571-.464-1.034-1.035-1.034zm7.891 0h-4.14c-.571 0-1.035.463-1.035 1.034v1.035c0 .572.463 1.035 1.035 1.035h4.14c.572 0 1.035-.463 1.035-1.035v-1.035c0-.571-.463-1.034-1.035-1.034zm-9.53-4.153h7.848c.57 0 1.035-.434 1.035-.965v-3.865c0-.53-.465-.963-1.035-.963h-7.848c-.569 0-1.035.433-1.035.963v3.865c.001.531.466.965 1.035.965zm1.036-3.278c0-.532.465-.965 1.035-.965h3.708c.569 0 1.035.433 1.035.965v.76c0 .531-.466.964-1.035.964h-3.708c-.57 0-1.035-.433-1.035-.964v-.76z"/></g></svg><svg height="25" viewBox="0 0 47 47" width="25" x="4" y="283"><g fill="#616161"><path d="M42.539 8.23L20.046 2.203a6.202 6.202 0 0 0-1.601-.211c-2.652 0-4.963 1.714-5.621 4.169L9.902 17.065h4.285l1.162-4.335 25.992 6.965-2.276 8.499c-.188.697-.977 1.16-1.807 1.09v4.14c.062.002.123.013.184.013 2.654 0 4.965-1.717 5.623-4.17l3.75-13.997c.81-3.034-1.107-6.191-4.276-7.04zm.275 5.967l-.401 1.5L16.42 8.732l.402-1.499c.174-.649.841-1.102 1.623-1.102.177 0 .354.024.529.07l22.493 6.027c.948.254 1.565 1.156 1.347 1.969z"/><path d="M29.236 19.135H5.951C2.67 19.135 0 21.689 0 24.827v14.489c0 3.139 2.67 5.691 5.951 5.691h23.287c3.281 0 5.951-2.554 5.951-5.691V24.827c-.001-3.138-2.669-5.692-5.953-5.692zm1.812 20.181c0 .843-.829 1.553-1.812 1.553H5.951c-.981 0-1.811-.71-1.811-1.553V24.827c0-.841.83-1.552 1.811-1.552h23.287c.982 0 1.811.711 1.811 1.552l-.001 14.489z"/><path d="M11.772 36.212h-4.14c-.572 0-1.035.463-1.035 1.034v1.035c0 .572.463 1.035 1.035 1.035h4.14c.572 0 1.035-.463 1.035-1.035v-1.035a1.034 1.034 0 0 0-1.035-1.034zm7.892 0h-4.14c-.571 0-1.035.463-1.035 1.034v1.035c0 .572.463 1.035 1.035 1.035h4.14c.571 0 1.035-.463 1.035-1.035v-1.035c0-.571-.464-1.034-1.035-1.034zm7.891 0h-4.14c-.571 0-1.035.463-1.035 1.034v1.035c0 .572.463 1.035 1.035 1.035h4.14c.572 0 1.035-.463 1.035-1.035v-1.035c0-.571-.463-1.034-1.035-1.034zm-9.53-4.153h7.848c.57 0 1.035-.434 1.035-.965v-3.865c0-.53-.465-.963-1.035-.963h-7.848c-.569 0-1.035.433-1.035.963v3.865c.001.531.466.965 1.035.965zm1.036-3.278c0-.532.465-.965 1.035-.965h3.708c.569 0 1.035.433 1.035.965v.76c0 .531-.466.964-1.035.964h-3.708c-.57 0-1.035-.433-1.035-.964v-.76z"/></g></svg><svg height="24" viewBox="0 0 24 24" width="24" x="4" y="312"><path fill="#9e9e9e" d="M7.41 7.84L12 12.42l4.59-4.58L18 9.25l-6 6-6-6z"/><path d="M0-.75h24v24H0z" fill="none"/></svg><svg height="24" viewBox="0 0 24 24" width="24" x="4" y="340"><path d="M0 0h24v24H0z" fill="none"/><path fill="#616161" d="M4 10v7h3v-7H4zm6 0v7h3v-7h-3zM2 22h19v-3H2v3zm14-12v7h3v-7h-3zm-4.5-9L2 6v2h19V6l-9.5-5z"/></svg><svg height="24" viewBox="0 0 24 24" width="24" x="4" y="368"><path d="M0 0h24v24H0z" fill="none"/><path fill="#1471d1" d="M4 10v7h3v-7H4zm6 0v7h3v-7h-3zM2 22h19v-3H2v3zm14-12v7h3v-7h-3zm-4.5-9L2 6v2h19V6l-9.5-5z"/></svg><svg height="24" viewBox="0 0 24 24" width="24" x="4" y="396"><path d="M0 0h24v24H0z" fill="none"/><path fill="#c9c9c9" d="M19.43 12.98c.04-.32.07-.64.07-.98s-.03-.66-.07-.98l2.11-1.65c.19-.15.24-.42.12-.64l-2-3.46c-.12-.22-.39-.3-.61-.22l-2.49 1c-.52-.4-1.08-.73-1.69-.98l-.38-2.65A.488.488 0 0 0 14 2h-4c-.25 0-.46.18-.49.42l-.38 2.65c-.61.25-1.17.59-1.69.98l-2.49-1c-.23-.09-.49 0-.61.22l-2 3.46c-.13.22-.07.49.12.64l2.11 1.65c-.04.32-.07.65-.07.98s.03.66.07.98l-2.11 1.65c-.19.15-.24.42-.12.64l2 3.46c.12.22.39.3.61.22l2.49-1c.52.4 1.08.73 1.69.98l.38 2.65c.03.24.24.42.49.42h4c.25 0 .46-.18.49-.42l.38-2.65c.61-.25 1.17-.59 1.69-.98l2.49 1c.23.09.49 0 .61-.22l2-3.46c.12-.22.07-.49-.12-.64l-2.11-1.65zM12 15.5c-1.93 0-3.5-1.57-3.5-3.5s1.57-3.5 3.5-3.5 3.5 1.57 3.5 3.5-1.57 3.5-3.5 3.5z"/></svg><svg height="22" viewBox="0 0 24 24" width="24" x="4" y="424"><path d="M7.41 15.41L12 10.83l4.59 4.58L18 14l-6-6-6 6z" fill="#1471d1"/><path d="M0 0h24v24H0z" fill="none"/></svg><svg height="16" viewBox="0 0 16 16" width="16" x="4" y="450"><title>pencil</title><path fill="#c9c9c9" d="M13.5 0a2.5 2.5 0 0 1 2 4l-1 1L11 1.5l1-1c.418-.314.937-.5 1.5-.5zM1 11.5L0 16l4.5-1 9.25-9.25-3.5-3.5L1 11.5zm10.181-5.819l-7 7-.862-.862 7-7 .862.862z"/></svg><svg height="16" viewBox="0 0 16 16" width="16" x="4" y="470"><title>transfer</title><path fill="#4e545a" d="M15.999 12H3.996v2L0 11l3.996-3v2h12.003zM0 6h11.999v2l4-3-4-3v2H0z"/></svg><svg height="16" viewBox="0 0 15 16" width="15" x="4" y="490"><title>arrow-r</title><path fill="#4e545a" d="M15.429 7.973c0 .08-.036.161-.089.214l-3.429 3.161a.292.292 0 0 1-.313.054.287.287 0 0 1-.17-.259v-2H.285a.282.282 0 0 1-.286-.286V7.143c0-.161.125-.286.286-.286h11.143v-2c0-.116.063-.214.17-.259s.223-.027.313.045l3.429 3.125a.29.29 0 0 1 .089.205z"/></svg><svg height="12" viewBox="0 0 12 12" width="12" x="4" y="510"><title>plus</title><path fill="#1471d1" d="M6 .96a5.04 5.04 0 1 0 .001 10.081A5.04 5.04 0 0 0 6 .96zM9 6.6H6.6V9H5.4V6.6H3V5.4h2.4V3h1.2v2.4H9v1.2z"/></svg></svg>