<svg xmlns="http://www.w3.org/2000/svg" viewBox="0 0 16 16"><defs><style>.cls-1{isolation:isolate;}.cls-2{fill-rule:evenodd;}</style></defs><title>Asset 2</title><g id="Layer_2" data-name="Layer 2"><g id="Shape_1" data-name="Shape 1" class="cls-1"><g id="Shape_1-2" data-name="Shape 1"><path class="cls-2" d="M12.16,10.58a1.12,1.12,0,0,0-1.69,0L9.29,11.77a.23.23,0,0,1-.33.06c-.26-.14-.53-.25-.78-.41a12.29,12.29,0,0,1-3-2.7A7,7,0,0,1,4.16,7a.24.24,0,0,1,.06-.31c.4-.38.78-.78,1.17-1.17a1.13,1.13,0,0,0,0-1.73l-.93-.93-1-1a1.13,1.13,0,0,0-1.69,0c-.4.39-.78.8-1.19,1.18A1.93,1.93,0,0,0,0,4.4,5.51,5.51,0,0,0,.44,6.78,14.42,14.42,0,0,0,3,11a15.84,15.84,0,0,0,5.25,4.11,7.59,7.59,0,0,0,2.91.85A2.13,2.13,0,0,0,13,15.3c.34-.38.72-.73,1.08-1.09a1.13,1.13,0,0,0,0-1.72Zm-.64-2.65,1.23-.21A5.51,5.51,0,0,0,8.09,3.2L7.92,4.43a4.26,4.26,0,0,1,3.61,3.5Zm1.92-5.34A9.06,9.06,0,0,0,8.26,0L8.08,1.24a7.91,7.91,0,0,1,6.69,6.48L16,7.51A9.12,9.12,0,0,0,13.45,2.59Z"/></g></g></g></svg>