<svg width="22px" xmlns="http://www.w3.org/2000/svg" viewBox="0 0 22 20.02"><defs><style>.cls-1{isolation:isolate;}.cls-2{fill:#97caac;fill-rule:evenodd;}</style></defs><title>card_limits</title><g id="Layer_2" data-name="Layer 2"><g id="Shape_1" data-name="Shape 1" class="cls-1"><g id="Shape_1-2" data-name="Shape 1"><path class="cls-2" d="M19.8,17H3.06V.7A.72.72,0,0,0,1.63.7V17H.72a.7.7,0,1,0,0,1.4h.91v.93a.72.72,0,0,0,1.43,0v-.93H19.8a.7.7,0,1,0,0-1.4Zm.45-16a1.73,1.73,0,0,0-1.75,1.7A1.68,1.68,0,0,0,19,3.87L16.3,10.3a1.76,1.76,0,0,0-.72.33L11.28,8.5s0,0,0-.07a1.75,1.75,0,0,0-3.49,0,1.67,1.67,0,0,0,.29.94L6.4,11.92a1.7,1.7,0,1,0,1.49,1.69,1.67,1.67,0,0,0-.28-.93l1.68-2.56a1.77,1.77,0,0,0,1.34-.36l4.28,2.12a1.74,1.74,0,1,0,3.49.1,1.69,1.69,0,0,0-.69-1.35l2.6-6.21A1.72,1.72,0,0,0,22,2.7,1.73,1.73,0,0,0,20.25,1Z"/></g></g></g></svg>