<svg width="24px" xmlns="http://www.w3.org/2000/svg" viewBox="0 0 24 15.01"><defs><style>.cls-1{isolation:isolate;}.cls-2{fill:#54bf98;fill-rule:evenodd;}</style></defs><title>Asset 1</title><g id="Layer_2" data-name="Layer 2"><g id="Shape_1" data-name="Shape 1" class="cls-1"><g id="Shape_1-2" data-name="Shape 1"><path class="cls-2" d="M18.53,0H1.47A1.49,1.49,0,0,0,0,1.51v11A1.49,1.49,0,0,0,1.47,14H11.62a.54.54,0,0,0,0-1.08H1.47a.43.43,0,0,1-.42-.43V4.31h17.9V5.38a.53.53,0,1,0,1.05,0V1.51A1.49,1.49,0,0,0,18.53,0Zm.42,3.23H1V1.51a.43.43,0,0,1,.42-.43H18.53a.43.43,0,0,1,.42.43ZM10.52,8.3A.53.53,0,0,0,10,7.76H3.68a.54.54,0,0,0,0,1.08H10A.53.53,0,0,0,10.52,8.3ZM3.68,9.69a.54.54,0,0,0,0,1.08H6.21a.54.54,0,0,0,0-1.08Zm-.06-2.8H9.94a.54.54,0,0,0,0-1.08H3.62a.54.54,0,0,0,0,1.08Z"/></g></g><g id="Forma_1_copy_3" data-name="Forma 1 copy 3" class="cls-1"><g id="Forma_1_copy_3-2" data-name="Forma 1 copy 3"><path class="cls-2" d="M23.49,11H15.75l2.18-2.14a.49.49,0,0,0,0-.71.52.52,0,0,0-.73,0l-3,3a.51.51,0,0,0,0,.73l3,3a.53.53,0,0,0,.73,0,.49.49,0,0,0,0-.71L15.75,12h7.74a.5.5,0,0,0,.51-.5A.51.51,0,0,0,23.49,11Z"/></g></g></g></svg>