<svg width="24px" xmlns="http://www.w3.org/2000/svg" viewBox="0 0 20 20"><defs><style>.cls-1{isolation:isolate;}.cls-2{fill:#54bf98;fill-rule:evenodd;}</style></defs><title>card_gears</title><g id="Layer_2" data-name="Layer 2"><g id="Shape_1" data-name="Shape 1" class="cls-1"><g id="Shape_1-2" data-name="Shape 1"><path class="cls-2" d="M13.19,11.31l-.46-1.11a.84.84,0,0,0-1-.49L11,9.89A5.59,5.59,0,0,0,10.11,9l.19-.72a.84.84,0,0,0-.49-1L8.69,6.81a.84.84,0,0,0-1,.34l-.38.64A5.6,5.6,0,0,0,6,7.8L5.6,7.15a.84.84,0,0,0-1-.34l-1.11.46a.84.84,0,0,0-.49,1L3.14,9a5.58,5.58,0,0,0-.92.92L1.5,9.7a.84.84,0,0,0-1,.49L.06,11.31a.84.84,0,0,0,.34,1l.64.38A5.59,5.59,0,0,0,1,14L.4,14.4a.84.84,0,0,0-.34,1l.46,1.11a.84.84,0,0,0,1,.49l.72-.19a5.59,5.59,0,0,0,.92.92L3,18.5a.84.84,0,0,0,.49,1l1.11.46a.83.83,0,0,0,.32.06.84.84,0,0,0,.72-.4L6,19a5.6,5.6,0,0,0,1.3,0l.38.64a.84.84,0,0,0,1,.34l1.11-.46a.84.84,0,0,0,.49-1l-.19-.72a5.59,5.59,0,0,0,.92-.92l.72.19a.84.84,0,0,0,1-.49l.46-1.11a.84.84,0,0,0-.34-1L12.2,14a5.59,5.59,0,0,0,0-1.3l.64-.38A.84.84,0,0,0,13.19,11.31ZM11.73,12a.84.84,0,0,0-.41.83,4.69,4.69,0,0,1,0,1.16.84.84,0,0,0,.41.83l.62.36-.42,1L11.23,16a.84.84,0,0,0-.88.29,4.7,4.7,0,0,1-.82.82.84.84,0,0,0-.29.88l.18.69-1,.42L8,18.48a.84.84,0,0,0-.83-.41,4.7,4.7,0,0,1-1.16,0,.84.84,0,0,0-.83.41l-.36.62-1-.42L4,18a.84.84,0,0,0-.29-.88,4.7,4.7,0,0,1-.82-.82A.84.84,0,0,0,2,16l-.69.18-.42-1,.62-.36A.84.84,0,0,0,1.94,14a4.7,4.7,0,0,1,0-1.16A.84.84,0,0,0,1.52,12L.91,11.6l.42-1,.69.18a.84.84,0,0,0,.88-.29,4.69,4.69,0,0,1,.82-.82A.84.84,0,0,0,4,8.77l-.18-.69,1-.42.36.62A.84.84,0,0,0,6,8.69a4.69,4.69,0,0,1,1.16,0A.84.84,0,0,0,8,8.27l.36-.62,1,.42-.18.69a.84.84,0,0,0,.29.88,4.7,4.7,0,0,1,.82.82.84.84,0,0,0,.88.29l.69-.18.42,1Zm-2.28.24a3.05,3.05,0,1,0-1.65,4,3.05,3.05,0,0,0,1.65-4Zm-2,3.16a2.16,2.16,0,1,1,1.17-2.82A2.14,2.14,0,0,1,7.45,15.37ZM19.4,3.94l-.47-.07a4.16,4.16,0,0,0-.32-.77l.29-.38a.71.71,0,0,0-.07-.92l-.62-.62a.71.71,0,0,0-.92-.07l-.38.29a4.17,4.17,0,0,0-.77-.32L16.06.6a.71.71,0,0,0-.7-.6h-.87a.71.71,0,0,0-.7.6l-.07.47a4.17,4.17,0,0,0-.77.32l-.38-.29a.71.71,0,0,0-.92.07L11,1.8a.71.71,0,0,0-.07.92l.29.38a4.18,4.18,0,0,0-.32.77l-.47.07a.71.71,0,0,0-.6.7v.87a.71.71,0,0,0,.6.7l.47.07a4.17,4.17,0,0,0,.32.77l-.29.38a.71.71,0,0,0,.07.92l.62.62a.71.71,0,0,0,.92.07l.38-.29a4.16,4.16,0,0,0,.77.32l.07.47a.71.71,0,0,0,.7.6h.87a.71.71,0,0,0,.7-.6l.07-.47a4.17,4.17,0,0,0,.77-.32l.38.29A.71.71,0,0,0,18.2,9l.62-.62a.71.71,0,0,0,.07-.92l-.29-.38a4.17,4.17,0,0,0,.32-.77l.47-.07a.71.71,0,0,0,.6-.7V4.64A.71.71,0,0,0,19.4,3.94Zm-.67,1.51a.71.71,0,0,0-.59.51,3.32,3.32,0,0,1-.31.76.71.71,0,0,0,.06.78l.26.34-.45.45L17.34,8A.71.71,0,0,0,16.56,8a3.31,3.31,0,0,1-.75.31.71.71,0,0,0-.51.59l-.06.43H14.6l-.06-.43A.71.71,0,0,0,14,8.29,3.31,3.31,0,0,1,13.28,8a.71.71,0,0,0-.78.06l-.34.26-.45-.45L12,7.51A.71.71,0,0,0,12,6.72,3.31,3.31,0,0,1,11.71,6a.71.71,0,0,0-.59-.51l-.43-.06V4.77l.43-.06a.71.71,0,0,0,.59-.51A3.32,3.32,0,0,1,12,3.44.71.71,0,0,0,12,2.66l-.26-.34.45-.45.34.26a.71.71,0,0,0,.78.06A3.31,3.31,0,0,1,14,1.87a.71.71,0,0,0,.51-.59L14.6.85h.63l.06.43a.71.71,0,0,0,.51.59,3.32,3.32,0,0,1,.75.31.71.71,0,0,0,.78-.06l.34-.26.45.45-.26.34a.71.71,0,0,0-.06.78,3.31,3.31,0,0,1,.31.76.71.71,0,0,0,.59.51l.43.06V5.4h0Zm-3.8-2.19a1.81,1.81,0,1,0,1.81,1.81A1.81,1.81,0,0,0,14.92,3.27Zm0,2.82a1,1,0,1,1,1-1A1,1,0,0,1,14.92,6.09Z"/></g></g></g></svg>