<svg width="22px" xmlns="http://www.w3.org/2000/svg" viewBox="0 0 22 21.01"><defs><style>.cls-1{isolation:isolate;}.cls-2{fill:#97caac;fill-rule:evenodd;}</style></defs><title>card_new</title><g id="Layer_2" data-name="Layer 2"><g id="Forma_1" data-name="Forma 1" class="cls-1"><g id="Forma_1-2" data-name="Forma 1"><path class="cls-2" d="M8.49,10H20.86A1.06,1.06,0,0,0,21.9,9V1.07a1.06,1.06,0,0,0-1-1.07H8.49a1.06,1.06,0,0,0-1,1.07V9A1.06,1.06,0,0,0,8.49,10Zm-.07-9A.07.07,0,0,1,8.49,1H20.86a.07.07,0,0,1,.07.07V9a.07.07,0,0,1-.07.07H8.49A.07.07,0,0,1,8.42,9ZM17.2,8.59a1.51,1.51,0,0,0,.76-.2,1.51,1.51,0,0,0,.76.2,1.57,1.57,0,0,0,0-3.15,1.51,1.51,0,0,0-.76.2,1.51,1.51,0,0,0-.76-.2,1.57,1.57,0,0,0,0,3.15Zm0-2.15a.56.56,0,0,1,.41.18.48.48,0,0,0,.7,0,.56.56,0,0,1,.41-.18.58.58,0,0,1,0,1.15.56.56,0,0,1-.41-.18.48.48,0,0,0-.7,0,.56.56,0,0,1-.41.18.58.58,0,0,1,0-1.15ZM9.88,3.71h4.88a.5.5,0,0,0,0-1H9.88a.5.5,0,0,0,0,1Zm6.52,0h1.52a.5.5,0,0,0,0-1H16.4a.5.5,0,0,0,0,1Zm5.08,11.6a1.31,1.31,0,0,0-1-.35c-.63.07-1.46.25-2.34.43a26.36,26.36,0,0,1-3.35.57,7.53,7.53,0,0,1-2.73-.4,1.3,1.3,0,0,1-.55-.52h1.82a1.38,1.38,0,0,0,1.36-1.39V12.56a1.38,1.38,0,0,0-1.36-1.39h-5a7.18,7.18,0,0,0-4.52,1.48,7.13,7.13,0,0,0-.76.76A1.13,1.13,0,0,0,2.12,13H.49a.49.49,0,0,0-.49.5v7a.5.5,0,0,0,.14.35A.48.48,0,0,0,.49,21H2.12a1.15,1.15,0,0,0,1.14-1.16v-.38a34.9,34.9,0,0,1,3.92.6,31.33,31.33,0,0,0,5.83.71,17.3,17.3,0,0,0,2.6-.21,28.74,28.74,0,0,0,3.51-.86l1.49-.42C21.82,19,22,18.19,22,17.76V16.49A1.62,1.62,0,0,0,21.48,15.31ZM2.28,19.84a.17.17,0,0,1-.16.17H1V14H2.12a.17.17,0,0,1,.16.17ZM21,17.76c0,.11,0,.39-.65.55-.46.12-1,.27-1.52.42a28.16,28.16,0,0,1-3.38.83c-1.92.28-3.53.39-8.11-.49a34.27,34.27,0,0,0-4.1-.62v-3.7l0-.07a4.77,4.77,0,0,1,1.1-1.28,6.3,6.3,0,0,1,3.86-1.24h5a.39.39,0,0,1,.38.39v1.09a.39.39,0,0,1-.38.39h-5a.5.5,0,0,0,0,1h2.14a2.16,2.16,0,0,0,1.14,1.41A8.26,8.26,0,0,0,14.8,17a27,27,0,0,0,3.49-.59c.86-.18,1.67-.35,2.26-.42a.36.36,0,0,1,.28.1.61.61,0,0,1,.19.44Z"/></g></g></g></svg>