<svg xmlns="http://www.w3.org/2000/svg" viewBox="0 0 21 21"><defs><style>.cls-1{isolation:isolate;}.cls-2{fill:#97caac;fill-rule:evenodd;}</style></defs><title>card_reissue</title><g id="Layer_2" data-name="Layer 2"><g id="Shape_1" data-name="Shape 1" class="cls-1"><g id="Shape_1-2" data-name="Shape 1"><path class="cls-2" d="M20.44,7.21,13.79.56a1.91,1.91,0,0,0-2.7,0L.56,11.1a1.91,1.91,0,0,0,0,2.7l.82.82h0l5.51,5.51H6.12a.44.44,0,1,0,0,.87h8.75a.44.44,0,0,0,0-.87H10.22L20.44,9.9A1.91,1.91,0,0,0,20.44,7.21Zm-.62,2.08L9.28,19.82a1,1,0,0,1-.73.3h0a1,1,0,0,1-.73-.3L2.3,14.3,12.43,4.18a.44.44,0,1,0-.62-.62L1.69,13.69l-.51-.51a1,1,0,0,1,0-1.46L11.72,1.18a1,1,0,0,1,1.46,0l2.37,2.37L5.42,13.67a.44.44,0,0,0,.62.62L16.16,4.16l3.66,3.66A1,1,0,0,1,19.82,9.28Zm-9,3.35a.44.44,0,0,0-.62,0L6.72,16.08a.44.44,0,1,0,.62.62l3.44-3.44A.44.44,0,0,0,10.78,12.64ZM9.37,15.9,8,17.32a.44.44,0,1,0,.62.62L10,16.52a.44.44,0,0,0-.62-.62Zm1.3-1.3-.19.19a.44.44,0,1,0,.62.62l.19-.19a.44.44,0,1,0-.62-.62Zm6-7.89a.44.44,0,0,0-.62,0L14.22,8.57a.44.44,0,0,0,0,.62l1.24,1.24a.44.44,0,0,0,.62,0l1.86-1.86a.44.44,0,0,0,0-.62ZM15.77,9.5l-.62-.62,1.24-1.24.62.62ZM13.14,3.29a.44.44,0,0,0,.31-.13L13.63,3A.44.44,0,0,0,13,2.36l-.19.19a.44.44,0,0,0,.31.75ZM4.4,14.69l-.19.19a.44.44,0,0,0,.62.62L5,15.3a.44.44,0,0,0-.62-.62Z"/></g></g></g></svg>