<svg width="24px" xmlns="http://www.w3.org/2000/svg" viewBox="0 0 25 18"><defs><style>.cls-1{isolation:isolate;}.cls-2{fill:#54bf98;fill-rule:evenodd;}</style></defs><title>pay_card</title><g id="Layer_2" data-name="Layer 2"><g id="Shape_1_copy_2" data-name="Shape 1 copy 2" class="cls-1"><g id="Shape_1_copy_2-2" data-name="Shape 1 copy 2"><path class="cls-2" d="M18.53,0H1.47A1.49,1.49,0,0,0,0,1.51v11A1.49,1.49,0,0,0,1.47,14H11.62a.54.54,0,0,0,0-1.08H1.47a.43.43,0,0,1-.42-.43V4.31h17.9V5.38a.53.53,0,1,0,1.05,0V1.51A1.49,1.49,0,0,0,18.53,0Zm.42,3.23H1V1.51a.43.43,0,0,1,.42-.43H18.53a.43.43,0,0,1,.42.43ZM10.52,8.3A.53.53,0,0,0,10,7.76H3.68a.54.54,0,0,0,0,1.08H10A.53.53,0,0,0,10.52,8.3ZM3.68,9.69a.54.54,0,0,0,0,1.08H6.21a.54.54,0,0,0,0-1.08Zm-.06-2.8H9.94a.54.54,0,0,0,0-1.08H3.62a.54.54,0,0,0,0,1.08Z"/></g></g><g id="Forma_1" data-name="Forma 1" class="cls-1"><g id="Forma_1-2" data-name="Forma 1"><path class="cls-2" d="M24.16,10.86h-.8L21.64,8.15c-.13-.14-.32-.21-.45-.07a.38.38,0,0,0-.06.5l1.45,2.28H16.43l1.45-2.28a.38.38,0,0,0-.06-.5c-.13-.14-.32-.07-.45.07l-1.72,2.71h-.8a.9.9,0,0,0-.84.93v1a.9.9,0,0,0,.84.93h.49l.35,2.78A1.72,1.72,0,0,0,17.3,18h4.4a1.67,1.67,0,0,0,1.62-1.5l.35-2.78h.49a.9.9,0,0,0,.84-.93v-1A.9.9,0,0,0,24.16,10.86Zm-1.49,5.5a1.07,1.07,0,0,1-1,.93H17.3a1,1,0,0,1-1-.93L16,13.72h7Zm1.68-3.57q0,.21-.19.21H14.84q-.19,0-.19-.21v-1q0-.21.19-.21h9.32q.19,0,.19.21Z"/></g></g><g id="Forma_1_copy_6" data-name="Forma 1 copy 6" class="cls-1"><g id="Forma_1_copy_6-2" data-name="Forma 1 copy 6"><path class="cls-2" d="M24.16,10.86h-.8L21.64,8.15c-.13-.14-.32-.21-.45-.07a.38.38,0,0,0-.06.5l1.45,2.28H16.43l1.45-2.28a.38.38,0,0,0-.06-.5c-.13-.14-.32-.07-.45.07l-1.72,2.71h-.8a.9.9,0,0,0-.84.93v1a.9.9,0,0,0,.84.93h.49l.35,2.78A1.72,1.72,0,0,0,17.3,18h4.4a1.67,1.67,0,0,0,1.62-1.5l.35-2.78h.49a.9.9,0,0,0,.84-.93v-1A.9.9,0,0,0,24.16,10.86Zm-1.49,5.5a1.07,1.07,0,0,1-1,.93H17.3a1,1,0,0,1-1-.93L16,13.72h7Zm1.68-3.57q0,.21-.19.21H14.84q-.19,0-.19-.21v-1q0-.21.19-.21h9.32q.19,0,.19.21Z"/></g></g></g></svg>