<svg width="22px" xmlns="http://www.w3.org/2000/svg" viewBox="0 0 22 19.45"><defs><style>.cls-1{isolation:isolate;}.cls-2{fill:#fd7a7a;fill-rule:evenodd;}</style></defs><title>card_block</title><g id="Layer_2" data-name="Layer 2"><g id="Shape_1_copy_3" data-name="Shape 1 copy 3" class="cls-1"><g id="Shape_1_copy_3-2" data-name="Shape 1 copy 3"><path class="cls-2" d="M18.53,0H1.47A1.49,1.49,0,0,0,0,1.51v11A1.49,1.49,0,0,0,1.47,14H11.62a.54.54,0,0,0,0-1.08H1.47a.43.43,0,0,1-.42-.43V4.31h17.9V5.38a.53.53,0,1,0,1.05,0V1.51A1.49,1.49,0,0,0,18.53,0Zm.42,3.23H1V1.51a.43.43,0,0,1,.42-.43H18.53a.43.43,0,0,1,.42.43ZM10.52,8.3A.53.53,0,0,0,10,7.76H3.68a.54.54,0,0,0,0,1.08H10A.53.53,0,0,0,10.52,8.3ZM3.68,9.69a.54.54,0,0,0,0,1.08H6.21a.54.54,0,0,0,0-1.08Zm-.06-2.8H9.94a.54.54,0,0,0,0-1.08H3.62a.54.54,0,0,0,0,1.08Z"/></g></g><g id="Shape_1" data-name="Shape 1" class="cls-1"><g id="Shape_1-2" data-name="Shape 1"><path class="cls-2" d="M21.61,12.79H21V11.5a3,3,0,0,0-5.94,0v1.3h-.65a.39.39,0,0,0-.39.38v5.88a.39.39,0,0,0,.39.38h7.23a.39.39,0,0,0,.39-.38V13.18A.39.39,0,0,0,21.61,12.79Zm-5.81-1.3a2.19,2.19,0,0,1,4.39,0v1.3H15.81Zm5.42,7.18H14.77V13.56h6.45Zm-3.61-2.12v.72a.39.39,0,0,0,.77,0v-.72a1,1,0,1,0-.77,0Zm.39-1.2a.26.26,0,1,1-.26.26A.26.26,0,0,1,18,15.35Z"/></g></g></g></svg>