<?xml version="1.0" encoding="utf-8"?>
<!-- Generator: Adobe Illustrator 17.0.0, SVG Export Plug-In . SVG Version: 6.00 Build 0)  -->
<!DOCTYPE svg PUBLIC "-//W3C//DTD SVG 1.1//EN" "http://www.w3.org/Graphics/SVG/1.1/DTD/svg11.dtd">
<svg version="1.1" id="Режим_изоляции"
	 xmlns="http://www.w3.org/2000/svg" xmlns:xlink="http://www.w3.org/1999/xlink" x="0px" y="0px" width="33px" height="25px"
	 viewBox="0 0 33 25" enable-background="new 0 0 33 25" xml:space="preserve">
<g>
	<g>
		<path fill="#0095A1" d="M20.029,1.925l-0.563-1.111c-0.368-0.722-1.267-1.021-2.006-0.661L7.943,4.759h1.455L20.029,1.925z
			 M25.239,4.759l-0.467-1.673c-0.18-0.652-0.785-1.079-1.443-1.079c-0.132,0-0.263,0.017-0.395,0.053l-2.497,0.667l-7.628,2.032
			H25.239z M16.863,16.972V13.72c0-0.673,0.275-1.284,0.722-1.732c0.395-0.397,0.925-0.667,1.518-0.734
			c0.099-0.012,0.201-0.018,0.302-0.018h8.888V7.245c0.003-0.807-0.668-1.462-1.494-1.462H4.667c-0.473,0-0.895,0.214-1.171,0.55
			C3.37,6.488,3.274,6.666,3.221,6.862C3.188,6.985,3.167,7.113,3.167,7.245v16.293C3.167,24.345,3.838,25,4.664,25h22.132
			c0.826,0,1.497-0.655,1.497-1.462v-4.08h-8.885C18.004,19.458,16.863,18.344,16.863,16.972z M29.345,12.635
			c-0.15-0.134-0.326-0.237-0.524-0.304c-0.153-0.05-0.314-0.079-0.485-0.079h-8.927c-0.826,0-1.497,0.655-1.497,1.462v3.255
			c0,0.807,0.671,1.462,1.497,1.462h8.927c0.171,0,0.332-0.029,0.485-0.079c0.198-0.065,0.374-0.17,0.524-0.304
			c0.299-0.266,0.488-0.652,0.488-1.079v-3.255C29.833,13.287,29.644,12.901,29.345,12.635z M22.535,15.633
			c0,0.403-0.335,0.731-0.749,0.731h-0.497c-0.413,0-0.749-0.328-0.749-0.731v-0.486c0-0.234,0.111-0.441,0.287-0.573
			c0.129-0.097,0.287-0.158,0.461-0.158h0.497c0.413,0,0.749,0.328,0.749,0.731L22.535,15.633L22.535,15.633z"/>
	</g>
</g>
</svg>
