<?xml version="1.0" encoding="utf-8"?>
<!-- Generator: Adobe Illustrator 17.0.0, SVG Export Plug-In . SVG Version: 6.00 Build 0)  -->
<!DOCTYPE svg PUBLIC "-//W3C//DTD SVG 1.1//EN" "http://www.w3.org/Graphics/SVG/1.1/DTD/svg11.dtd">
<svg version="1.1" id="Слой_1" xmlns="http://www.w3.org/2000/svg" xmlns:xlink="http://www.w3.org/1999/xlink" x="0px" y="0px"
	 width="30px" height="30px" viewBox="0 0 30 30" enable-background="new 0 0 30 30" xml:space="preserve">
<path fill="#3B5998" d="M19.623,3.505L17.225,3.5c-2.695,0-4.436,2.222-4.436,5.659v2.61h-2.412c-0.208,0-0.377,0.21-0.377,0.469
	v3.782c0,0.259,0.169,0.469,0.377,0.469h2.411v9.542c0,0.259,0.169,0.469,0.377,0.469h3.146c0.208,0,0.377-0.21,0.377-0.469v-9.542
	h2.82c0.208,0,0.377-0.21,0.377-0.469l0.001-3.782c0-0.124-0.04-0.243-0.11-0.331c-0.07-0.088-0.166-0.138-0.266-0.138h-2.82V9.558
	c0-1.063,0.204-1.603,1.317-1.603l1.616-0.001c0.208,0,0.377-0.21,0.377-0.469v-3.51C19.999,3.715,19.831,3.505,19.623,3.505z"/>
</svg>
