<?xml version="1.0" encoding="utf-8"?>
<!-- Generator: Adobe Illustrator 17.0.0, SVG Export Plug-In . SVG Version: 6.00 Build 0)  -->
<!DOCTYPE svg PUBLIC "-//W3C//DTD SVG 1.1//EN" "http://www.w3.org/Graphics/SVG/1.1/DTD/svg11.dtd">
<svg version="1.1" id="Слой_1" xmlns="http://www.w3.org/2000/svg" xmlns:xlink="http://www.w3.org/1999/xlink" x="0px" y="0px"
	 width="19.999px" height="20px" viewBox="0 0 19.999 20" enable-background="new 0 0 19.999 20" xml:space="preserve">
<g>
	<g>
		<path fill="#75BA91" d="M1.355,15.069v3.361c0,0.205,0.16,0.376,0.362,0.376h2.506c0.197,0,0.362-0.166,0.362-0.376v-5.913
			l-1.82,1.888C2.379,14.801,1.886,15.031,1.355,15.069z M5.834,12.475v5.955c0,0.205,0.16,0.376,0.362,0.376h2.506
			c0.197,0,0.362-0.166,0.362-0.376v-3.506c-0.571-0.013-1.105-0.247-1.508-0.664L5.834,12.475z M10.313,14.554v3.876
			c0,0.205,0.16,0.376,0.362,0.376h2.507c0.197,0,0.362-0.166,0.362-0.376v-7.152l-2.872,2.978
			C10.56,14.37,10.44,14.468,10.313,14.554z M17.779,6.881l-2.987,3.097v8.451c0,0.205,0.16,0.376,0.362,0.376h2.506
			c0.197,0,0.362-0.166,0.362-0.376V7.116c-0.082-0.073-0.144-0.137-0.189-0.179L17.779,6.881z M19.829,1.395
			c-0.119-0.132-0.3-0.2-0.53-0.2h-0.066c-1.167,0.055-2.33,0.115-3.497,0.17c-0.156,0.008-0.37,0.016-0.538,0.191
			c-0.053,0.055-0.094,0.119-0.127,0.196c-0.173,0.388,0.07,0.639,0.185,0.759l0.292,0.306c0.201,0.213,0.407,0.426,0.612,0.635
			l-7.051,7.314L5.941,7.482C5.752,7.286,5.497,7.175,5.226,7.175S4.704,7.286,4.515,7.482l-4.22,4.371
			c-0.394,0.409-0.394,1.069,0,1.478l0.189,0.197c0.189,0.196,0.444,0.306,0.715,0.306c0.271,0,0.522-0.11,0.711-0.306l3.316-3.439
			l3.168,3.285c0.189,0.196,0.444,0.307,0.715,0.307c0.271,0,0.522-0.111,0.715-0.307l7.955-8.247l0.9,0.929
			c0.107,0.111,0.255,0.264,0.481,0.264c0.094,0,0.189-0.026,0.288-0.081C19.513,6.2,19.57,6.158,19.62,6.106
			c0.177-0.183,0.21-0.417,0.218-0.6c0.033-0.784,0.07-1.567,0.107-2.356l0.053-1.18C20.01,1.723,19.957,1.531,19.829,1.395z"/>
	</g>
</g>
</svg>
