<?xml version="1.0" encoding="utf-8"?>
<!-- Generator: Adobe Illustrator 17.0.0, SVG Export Plug-In . SVG Version: 6.00 Build 0)  -->
<!DOCTYPE svg PUBLIC "-//W3C//DTD SVG 1.1//EN" "http://www.w3.org/Graphics/SVG/1.1/DTD/svg11.dtd">
<svg version="1.1" id="Режим_изоляции"
	 xmlns="http://www.w3.org/2000/svg" xmlns:xlink="http://www.w3.org/1999/xlink" x="0px" y="0px" width="33px" height="25px"
	 viewBox="0 0 33 25" enable-background="new 0 0 33 25" xml:space="preserve">
<g>
	<g>
		<path fill="#0095A1" d="M12.083,12.589c3.474,0,6.292-2.818,6.292-6.292S15.557,0,12.083,0S5.792,2.818,5.792,6.292
			S8.609,12.589,12.083,12.589z M9.885,8.781C9.943,8.573,10,8.37,10.063,8.161c0.073-0.24,0.141-0.266,0.359-0.151
			c0.375,0.193,0.771,0.302,1.188,0.354c0.266,0.031,0.531,0.005,0.776-0.104c0.464-0.203,0.536-0.74,0.146-1.062
			c-0.135-0.109-0.286-0.193-0.443-0.26c-0.406-0.177-0.828-0.313-1.214-0.542c-0.62-0.37-1.016-0.885-0.969-1.641
			c0.052-0.854,0.536-1.391,1.318-1.672c0.323-0.12,0.323-0.115,0.328-0.453c0-0.115,0-0.229,0-0.344
			c0.005-0.255,0.052-0.297,0.302-0.307c0.078,0,0.156,0,0.234,0c0.542,0,0.542,0,0.542,0.542c0,0.38,0,0.385,0.38,0.443
			c0.292,0.047,0.568,0.13,0.839,0.25C14,3.281,14.052,3.385,14.01,3.542c-0.068,0.234-0.13,0.469-0.208,0.698
			c-0.073,0.219-0.141,0.25-0.349,0.151c-0.422-0.203-0.865-0.292-1.333-0.266c-0.125,0.005-0.24,0.021-0.354,0.073
			c-0.401,0.177-0.469,0.62-0.125,0.896c0.172,0.141,0.37,0.24,0.578,0.323c0.354,0.146,0.714,0.292,1.057,0.479
			c1.078,0.599,1.37,1.953,0.609,2.875c-0.276,0.333-0.63,0.557-1.052,0.672c-0.182,0.052-0.266,0.146-0.255,0.333
			c0.01,0.188,0,0.37,0,0.557c0,0.167-0.083,0.255-0.25,0.26c-0.198,0.005-0.401,0.005-0.599,0c-0.177-0.005-0.26-0.104-0.26-0.276
			c0-0.135,0-0.271-0.005-0.406c-0.005-0.297-0.01-0.313-0.302-0.359c-0.37-0.057-0.729-0.141-1.068-0.307
			C9.839,9.125,9.813,9.057,9.885,8.781z"/>
		<path fill="#0095A1" d="M26.198,13.115h-0.734l0,0c-0.484-1.484-1.432-2.802-2.698-3.823c0-0.047-0.01-0.099-0.021-0.146
			c-0.266-0.932,0.063-1.781,0.443-2.391c0.266-0.427-0.078-0.974-0.578-0.911c-1.12,0.141-1.891,0.552-2.422,1.016
			c-0.365,0.318-0.625,0.745-0.74,1.219c-0.802,3.323-3.797,5.797-7.365,5.797c-1.734,0-3.328-0.583-4.604-1.563
			c-0.443,0.958-0.682,2.005-0.682,3.104c0,0.594,0.073,1.172,0.208,1.729l0,0c0,0,0,0.01,0.005,0.026
			c0.141,0.578,0.354,1.135,0.625,1.661c0.359,0.776,0.88,1.682,1.599,2.417c1.036,1.068,1.214,2.391,1.24,2.964v0.245
			c0,0.01,0,0.021,0,0.031c0,0.005,0,0.005,0,0.005l0,0C10.495,24.776,10.729,25,11.016,25h3.292c0.297,0,0.542-0.24,0.542-0.542
			v-0.813c0.479,0.063,0.969,0.099,1.464,0.099c0.391,0,0.771-0.021,1.151-0.063v0.776c0,0.297,0.24,0.542,0.542,0.542h3.302
			c0.297,0,0.542-0.24,0.542-0.542v-0.812c0.005-0.271,0.099-1.349,1.12-2.271c0.036-0.031,0.073-0.063,0.109-0.094
			c0.01-0.01,0.021-0.016,0.031-0.026l0,0c1.135-1.01,1.974-2.271,2.406-3.677h0.693c0.552,0,1-0.448,1-1v-2.464
			C27.198,13.563,26.75,13.115,26.198,13.115z M22.078,13.292c-0.453,0-0.818-0.365-0.818-0.818s0.365-0.818,0.818-0.818
			c0.453,0,0.818,0.365,0.818,0.818S22.531,13.292,22.078,13.292z"/>
	</g>
</g>
</svg>
