<?xml version="1.0" encoding="utf-8"?>
<!-- Generator: Adobe Illustrator 17.0.0, SVG Export Plug-In . SVG Version: 6.00 Build 0)  -->
<!DOCTYPE svg PUBLIC "-//W3C//DTD SVG 1.1//EN" "http://www.w3.org/Graphics/SVG/1.1/DTD/svg11.dtd">
<svg version="1.1" id="Слой_1" xmlns="http://www.w3.org/2000/svg" xmlns:xlink="http://www.w3.org/1999/xlink" x="0px" y="0px"
	 width="19.999px" height="20px" viewBox="0 0 19.999 20" enable-background="new 0 0 19.999 20" xml:space="preserve">
<path fill="#FFFFFF" d="M19.898,1.81c-0.089-0.07-0.216-0.086-0.323-0.042L0.172,9.81C0.068,9.854,0.001,9.947,0,10.05
	c-0.001,0.102,0.064,0.197,0.167,0.242l5.491,2.404c0.101,0.044,0.221,0.034,0.311-0.026l5.339-3.56l-4.191,3.846
	c-0.06,0.055-0.09,0.13-0.084,0.207l0.417,4.847c0.009,0.108,0.09,0.2,0.205,0.234c0.031,0.009,0.062,0.014,0.093,0.014
	c0.086,0,0.168-0.033,0.226-0.093l2.914-3.013l3.603,1.536c0.078,0.033,0.169,0.035,0.248,0.004c0.08-0.031,0.14-0.091,0.166-0.165
	L19.986,2.09C20.021,1.989,19.987,1.879,19.898,1.81z"/>
</svg>
