<?xml version="1.0" encoding="utf-8"?>
<!-- Generator: Adobe Illustrator 17.0.0, SVG Export Plug-In . SVG Version: 6.00 Build 0)  -->
<!DOCTYPE svg PUBLIC "-//W3C//DTD SVG 1.1//EN" "http://www.w3.org/Graphics/SVG/1.1/DTD/svg11.dtd">
<svg version="1.1" id="Слой_1" xmlns="http://www.w3.org/2000/svg" xmlns:xlink="http://www.w3.org/1999/xlink" x="0px" y="0px"
	 width="19.999px" height="20px" viewBox="0 0 19.999 20" enable-background="new 0 0 19.999 20" xml:space="preserve">
<path fill="#FFFFFF" d="M18.641,11.178c0.393-0.593,0.589-1.246,0.589-1.959c0-0.826-0.304-1.543-0.913-2.152
	s-1.33-0.913-2.164-0.913h-2.115c0.384-0.793,0.577-1.562,0.577-2.307c0-0.938-0.14-1.683-0.421-2.236
	c-0.281-0.553-0.689-0.96-1.226-1.22C12.431,0.13,11.826,0,11.153,0c-0.409,0-0.769,0.148-1.082,0.445
	C9.727,0.781,9.479,1.214,9.326,1.743C9.174,2.271,9.052,2.778,8.96,3.263S8.725,4.09,8.533,4.291
	C8.14,4.716,7.712,5.228,7.247,5.83C6.438,6.879,5.889,7.5,5.601,7.692H2.307c-0.425,0-0.787,0.15-1.088,0.451
	c-0.3,0.301-0.451,0.663-0.451,1.088v7.692c0,0.425,0.15,0.788,0.451,1.088s0.663,0.451,1.088,0.451h3.461
	c0.176,0,0.729,0.16,1.659,0.481c0.986,0.344,1.853,0.607,2.602,0.787S11.537,20,12.307,20h1.117h0.433
	c1.13,0,2.039-0.322,2.728-0.968c0.689-0.645,1.03-1.525,1.022-2.639c0.481-0.617,0.721-1.33,0.721-2.139
	c0-0.176-0.012-0.348-0.036-0.517c0.304-0.537,0.457-1.114,0.457-1.731C18.749,11.719,18.713,11.442,18.641,11.178z M3.617,16.695
	c-0.152,0.152-0.332,0.228-0.541,0.228c-0.208,0-0.389-0.076-0.541-0.228s-0.228-0.333-0.228-0.541s0.076-0.388,0.228-0.541
	c0.152-0.152,0.333-0.228,0.541-0.228s0.389,0.076,0.541,0.228c0.152,0.152,0.228,0.333,0.228,0.541
	C3.846,16.362,3.77,16.543,3.617,16.695z M17.434,10.205c-0.172,0.369-0.387,0.556-0.643,0.564c0.12,0.136,0.22,0.327,0.3,0.572
	c0.08,0.244,0.12,0.466,0.12,0.667c0,0.552-0.212,1.029-0.637,1.43c0.145,0.257,0.217,0.533,0.217,0.829
	c0,0.297-0.07,0.591-0.211,0.883c-0.14,0.292-0.33,0.503-0.571,0.631c0.04,0.241,0.06,0.465,0.06,0.673
	c0,1.338-0.769,2.007-2.308,2.007h-1.454c-1.05,0-2.42-0.292-4.111-0.877c-0.04-0.016-0.156-0.058-0.348-0.127
	c-0.192-0.068-0.335-0.118-0.427-0.15S7.189,17.229,7,17.169c-0.188-0.06-0.341-0.105-0.457-0.132
	c-0.116-0.028-0.248-0.054-0.396-0.078c-0.148-0.024-0.274-0.036-0.378-0.036H5.384V9.231h0.385c0.128,0,0.27-0.037,0.427-0.108
	c0.156-0.072,0.317-0.18,0.481-0.325C6.841,8.654,6.995,8.511,7.14,8.371c0.144-0.14,0.304-0.317,0.481-0.529
	c0.175-0.211,0.313-0.382,0.414-0.51c0.1-0.128,0.226-0.292,0.378-0.493c0.152-0.2,0.244-0.321,0.276-0.361
	c0.441-0.544,0.75-0.909,0.926-1.093c0.328-0.345,0.567-0.783,0.715-1.316s0.271-1.036,0.367-1.508
	c0.096-0.473,0.249-0.813,0.457-1.021c0.769,0,1.282,0.188,1.538,0.565c0.256,0.376,0.385,0.957,0.385,1.743
	c0,0.473-0.192,1.116-0.577,1.929c-0.384,0.814-0.577,1.452-0.577,1.917h4.231c0.401,0,0.757,0.154,1.07,0.463
	c0.312,0.308,0.469,0.667,0.469,1.076C17.692,9.512,17.606,9.836,17.434,10.205z"/>
</svg>
