<?xml version="1.0" encoding="utf-8"?>
<!-- Generator: Adobe Illustrator 17.0.0, SVG Export Plug-In . SVG Version: 6.00 Build 0)  -->
<!DOCTYPE svg PUBLIC "-//W3C//DTD SVG 1.1//EN" "http://www.w3.org/Graphics/SVG/1.1/DTD/svg11.dtd">
<svg version="1.1" id="Слой_1" xmlns="http://www.w3.org/2000/svg" xmlns:xlink="http://www.w3.org/1999/xlink" x="0px" y="0px"
	 width="13.221px" height="20px" viewBox="0 0 13.221 20" enable-background="new 0 0 13.221 20" xml:space="preserve">
<g>
	<g>
		<path fill="#FFFFFF" d="M2.537,7.14h0.691V1.407c0-0.31,0.252-0.563,0.563-0.563h3.252V7.14h2.172V0.844h0.211
			c0.31,0,0.563,0.253,0.563,0.563V7.14h0.691c0.157,0,0.281-0.128,0.281-0.281V1.56c0-0.857-0.699-1.56-1.56-1.56H3.816
			c-0.857,0-1.56,0.699-1.56,1.56v5.294C2.256,7.012,2.384,7.14,2.537,7.14z M11.802,5.381v1.821c0,0.418-0.339,0.758-0.757,0.758
			H2.181c-0.418,0-0.757-0.34-0.757-0.758V5.385C0.617,5.522,0,6.221,0,7.07v11.225C0,19.239,0.766,20,1.705,20h9.811
			c0.943,0,1.705-0.766,1.705-1.705V7.066C13.226,6.217,12.609,5.517,11.802,5.381z M3.634,18.307c-0.43,0-0.778-0.348-0.778-0.778
			c0-0.431,0.348-0.778,0.778-0.778s0.778,0.348,0.778,0.778C4.407,17.96,4.06,18.307,3.634,18.307z M3.634,15.956
			c-0.43,0-0.778-0.347-0.778-0.778c0-0.43,0.348-0.778,0.778-0.778s0.778,0.348,0.778,0.778C4.407,15.609,4.06,15.956,3.634,15.956
			z M3.634,13.609c-0.43,0-0.778-0.348-0.778-0.778c0-0.431,0.348-0.778,0.778-0.778s0.778,0.347,0.778,0.778
			C4.407,13.262,4.06,13.609,3.634,13.609z M6.613,18.307c-0.43,0-0.778-0.348-0.778-0.778c0-0.431,0.348-0.778,0.778-0.778
			s0.778,0.348,0.778,0.778C7.391,17.96,7.043,18.307,6.613,18.307z M6.613,15.956c-0.43,0-0.778-0.347-0.778-0.778
			c0-0.43,0.348-0.778,0.778-0.778s0.778,0.348,0.778,0.778C7.391,15.609,7.043,15.956,6.613,15.956z M6.613,13.609
			c-0.43,0-0.778-0.348-0.778-0.778c0-0.431,0.348-0.778,0.778-0.778s0.778,0.347,0.778,0.778
			C7.391,13.262,7.043,13.609,6.613,13.609z M9.592,18.307c-0.43,0-0.778-0.348-0.778-0.778c0-0.431,0.348-0.778,0.778-0.778
			s0.778,0.348,0.778,0.778C10.37,17.96,10.023,18.307,9.592,18.307z M9.592,15.956c-0.43,0-0.778-0.347-0.778-0.778
			c0-0.43,0.348-0.778,0.778-0.778s0.778,0.348,0.778,0.778C10.37,15.609,10.023,15.956,9.592,15.956z M9.592,13.609
			c-0.43,0-0.778-0.348-0.778-0.778c0-0.431,0.348-0.778,0.778-0.778s0.778,0.347,0.778,0.778
			C10.37,13.262,10.023,13.609,9.592,13.609z M10.457,10.849c0,0.24-0.195,0.43-0.43,0.43H3.203c-0.24,0-0.43-0.194-0.43-0.43V9.677
			c0-0.24,0.194-0.43,0.43-0.43h6.824c0.24,0,0.43,0.195,0.43,0.43V10.849z"/>
	</g>
</g>
</svg>
