<?xml version="1.0" encoding="utf-8"?>
<!-- Generator: Adobe Illustrator 17.0.0, SVG Export Plug-In . SVG Version: 6.00 Build 0)  -->
<!DOCTYPE svg PUBLIC "-//W3C//DTD SVG 1.1//EN" "http://www.w3.org/Graphics/SVG/1.1/DTD/svg11.dtd">
<svg version="1.1" id="Слой_1" xmlns="http://www.w3.org/2000/svg" xmlns:xlink="http://www.w3.org/1999/xlink" x="0px" y="0px"
	 width="19.999px" height="20px" viewBox="0 0 19.999 20" enable-background="new 0 0 19.999 20" xml:space="preserve">
<g>
	<g>
		<path fill="#FFFFFF" d="M1.427,10.398c0.074,0.127,0.256,0.127,0.33,0l1.399-2.413c0.074-0.127-0.016-0.283-0.165-0.283H2.228
			V6.213c0-0.965,0.788-1.749,1.758-1.749h1.845V3.201H3.987c-1.668,0-3.026,1.35-3.026,3.008v1.494H0.193
			c-0.144,0-0.239,0.156-0.165,0.283L1.427,10.398z M6.521,13.956c-1.128,0-2.043,0.909-2.043,2.031
			c0,1.122,0.915,2.031,2.043,2.031c1.128,0,2.043-0.91,2.043-2.031C8.564,14.865,7.65,13.956,6.521,13.956z M2.922,15.306
			c-0.378,0-0.685,0.305-0.685,0.681c0,0.376,0.307,0.681,0.685,0.681c0.378,0,0.685-0.305,0.685-0.681
			C3.607,15.611,3.3,15.306,2.922,15.306z M10.121,15.306c-0.378,0-0.685,0.305-0.685,0.681c0,0.376,0.307,0.681,0.685,0.681
			s0.685-0.305,0.685-0.681C10.806,15.611,10.499,15.306,10.121,15.306z M11.912,11.973H1.13c-0.623,0-1.131,0.505-1.131,1.125
			v5.778C-0.001,19.495,0.507,20,1.13,20h10.778c0.623,0,1.131-0.505,1.131-1.124v-5.778C13.043,12.479,12.536,11.973,11.912,11.973
			z M12.073,17.714c-0.065-0.012-0.129-0.016-0.198-0.016c-0.632,0-1.143,0.509-1.143,1.137c0,0.07,0.008,0.14,0.021,0.209H2.356
			c0.021-0.09,0.033-0.18,0.033-0.279c0-0.628-0.512-1.137-1.143-1.137c-0.099,0-0.194,0.012-0.285,0.037v-3.488
			c0.091,0.025,0.186,0.037,0.285,0.037c0.632,0,1.143-0.509,1.143-1.137c0-0.049-0.004-0.095-0.008-0.14h8.367
			c-0.012,0.07-0.021,0.14-0.021,0.209c0,0.628,0.512,1.137,1.143,1.137c0.07,0,0.136-0.008,0.202-0.016V17.714z M19.974,12.015
			l-1.399-2.412c-0.074-0.128-0.256-0.128-0.33,0l-1.399,2.412c-0.074,0.128,0.016,0.283,0.165,0.283h0.768v1.49
			c0,0.964-0.788,1.748-1.758,1.748H14.17v1.26h1.845c1.668,0,3.026-1.35,3.026-3.008v-1.49h0.768
			C19.953,12.298,20.048,12.142,19.974,12.015z M13.481,6.045c1.128,0,2.043-0.91,2.043-2.032c0-1.121-0.915-2.031-2.043-2.031
			s-2.043,0.909-2.043,2.031C11.438,5.135,12.352,6.045,13.481,6.045z M9.881,4.694c0.378,0,0.685-0.305,0.685-0.681
			S10.26,3.332,9.881,3.332c-0.378,0-0.685,0.305-0.685,0.681S9.503,4.694,9.881,4.694z M17.08,4.694
			c0.378,0,0.685-0.305,0.685-0.681s-0.307-0.681-0.685-0.681c-0.378,0-0.685,0.305-0.685,0.681S16.702,4.694,17.08,4.694z
			 M8.09,8.026h10.778c0.623,0,1.131-0.505,1.131-1.124V1.12c0-0.62-0.504-1.12-1.127-1.12H8.09C7.467,0,6.959,0.505,6.959,1.124
			v5.778C6.959,7.522,7.467,8.026,8.09,8.026z M7.92,2.2c0.091,0.024,0.186,0.037,0.285,0.037c0.632,0,1.143-0.509,1.143-1.137
			c0-0.049-0.004-0.094-0.008-0.14h8.367c-0.012,0.07-0.021,0.14-0.021,0.209c0,0.628,0.512,1.136,1.143,1.136
			c0.07,0,0.136-0.008,0.202-0.016v3.447c-0.065-0.012-0.129-0.016-0.198-0.016c-0.632,0-1.143,0.508-1.143,1.137
			c0,0.07,0.008,0.139,0.021,0.209H9.316c0.021-0.09,0.033-0.18,0.033-0.279c0-0.628-0.512-1.136-1.143-1.136
			c-0.099,0-0.194,0.012-0.285,0.037V2.2z"/>
	</g>
</g>
</svg>
