<?xml version="1.0" encoding="utf-8"?>
<!-- Generator: Adobe Illustrator 17.0.0, SVG Export Plug-In . SVG Version: 6.00 Build 0)  -->
<!DOCTYPE svg PUBLIC "-//W3C//DTD SVG 1.1//EN" "http://www.w3.org/Graphics/SVG/1.1/DTD/svg11.dtd">
<svg version="1.1" id="Режим_изоляции"
	 xmlns="http://www.w3.org/2000/svg" xmlns:xlink="http://www.w3.org/1999/xlink" x="0px" y="0px" width="33px" height="25px"
	 viewBox="0 0 33 25" enable-background="new 0 0 33 25" xml:space="preserve">
<path fill="#0095A1" d="M29.907,0H3.094C1.392,0,0,1.406,0,3.125v18.75C0,23.594,1.392,25,3.094,25h26.812
	C31.608,25,33,23.594,33,21.875V3.125C33.001,1.406,31.609,0,29.907,0z M3.094,2.083h26.812c0.559,0,1.031,0.477,1.031,1.042V6.25
	H2.063V3.125C2.063,2.56,2.535,2.083,3.094,2.083z M29.907,22.917H3.094c-0.559,0-1.031-0.477-1.031-1.042V12.5h28.875v9.375
	C30.938,22.44,30.466,22.917,29.907,22.917z M4.126,16.667h2.063v4.167H4.126V16.667z M8.251,16.667h2.062v4.167H8.251V16.667z
	 M12.376,16.667h2.063v4.167h-2.063V16.667z"/>
</svg>
