<?xml version="1.0" encoding="utf-8"?>
<!-- Generator: Adobe Illustrator 17.0.0, SVG Export Plug-In . SVG Version: 6.00 Build 0)  -->
<!DOCTYPE svg PUBLIC "-//W3C//DTD SVG 1.1//EN" "http://www.w3.org/Graphics/SVG/1.1/DTD/svg11.dtd">
<svg version="1.1" id="Режим_изоляции"
	 xmlns="http://www.w3.org/2000/svg" xmlns:xlink="http://www.w3.org/1999/xlink" x="0px" y="0px" width="25.781px" height="25px"
	 viewBox="0 0 25.781 25" enable-background="new 0 0 25.781 25" xml:space="preserve">
<g>
	<g>
		<path fill="#0095A1" d="M14.484,0H1.738C0.778,0,0,0.772,0,1.724v21.552C0,24.228,0.778,25,1.738,25h12.746
			c0.96,0,1.738-0.772,1.738-1.724V1.724C16.222,0.772,15.444,0,14.484,0z M5.214,22.414c0,0.317-0.26,0.575-0.579,0.575H2.318
			c-0.32,0-0.579-0.257-0.579-0.575V20.69c0-0.317,0.259-0.575,0.579-0.575h2.317c0.32,0,0.579,0.257,0.579,0.575V22.414z
			 M5.214,18.391c0,0.317-0.26,0.575-0.579,0.575H2.318c-0.32,0-0.579-0.258-0.579-0.575v-1.724c0-0.317,0.259-0.575,0.579-0.575
			h2.317c0.32,0,0.579,0.258,0.579,0.575V18.391z M5.214,14.368c0,0.317-0.26,0.575-0.579,0.575H2.318
			c-0.32,0-0.579-0.258-0.579-0.575v-1.724c0-0.318,0.259-0.575,0.579-0.575h2.317c0.32,0,0.579,0.257,0.579,0.575V14.368z
			 M5.214,10.345c0,0.317-0.26,0.575-0.579,0.575H2.318c-0.32,0-0.579-0.257-0.579-0.575V8.621c0-0.317,0.259-0.575,0.579-0.575
			h2.317c0.32,0,0.579,0.257,0.579,0.575V10.345z M9.849,22.414c0,0.317-0.26,0.575-0.579,0.575H6.952
			c-0.32,0-0.579-0.257-0.579-0.575V20.69c0-0.317,0.259-0.575,0.579-0.575h2.317c0.32,0,0.579,0.257,0.579,0.575v1.724H9.849z
			 M9.849,18.391c0,0.317-0.26,0.575-0.579,0.575H6.952c-0.32,0-0.579-0.258-0.579-0.575v-1.724c0-0.317,0.259-0.575,0.579-0.575
			h2.317c0.32,0,0.579,0.258,0.579,0.575v1.724H9.849z M9.849,14.368c0,0.317-0.26,0.575-0.579,0.575H6.952
			c-0.32,0-0.579-0.258-0.579-0.575v-1.724c0-0.318,0.259-0.575,0.579-0.575h2.317c0.32,0,0.579,0.257,0.579,0.575v1.724H9.849z
			 M9.849,10.345c0,0.317-0.26,0.575-0.579,0.575H6.952c-0.32,0-0.579-0.257-0.579-0.575V8.621c0-0.317,0.259-0.575,0.579-0.575
			h2.317c0.32,0,0.579,0.257,0.579,0.575v1.724H9.849z M14.484,22.414c0,0.317-0.26,0.575-0.579,0.575h-2.318
			c-0.32,0-0.579-0.257-0.579-0.575v-5.747c0-0.317,0.259-0.575,0.579-0.575h2.317c0.32,0,0.579,0.258,0.579,0.575v5.747H14.484z
			 M14.484,14.368c0,0.317-0.26,0.575-0.579,0.575h-2.318c-0.32,0-0.579-0.258-0.579-0.575v-1.724c0-0.318,0.259-0.575,0.579-0.575
			h2.317c0.32,0,0.579,0.257,0.579,0.575v1.724H14.484z M14.484,10.345c0,0.317-0.26,0.575-0.579,0.575h-2.318
			c-0.32,0-0.579-0.257-0.579-0.575V8.621c0-0.317,0.259-0.575,0.579-0.575h2.317c0.32,0,0.579,0.257,0.579,0.575v1.724H14.484z
			 M14.484,5.747c0,0.317-0.26,0.575-0.579,0.575H2.318c-0.32,0-0.579-0.257-0.579-0.575V2.586c0-0.317,0.259-0.575,0.579-0.575
			h11.587c0.32,0,0.579,0.257,0.579,0.575C14.484,2.586,14.484,5.747,14.484,5.747z M17.381,12.931h7.821
			c0.32,0,0.579-0.257,0.579-0.574V6.322H17.38L17.381,12.931L17.381,12.931z M22.884,7.454c0-0.149,0.122-0.27,0.271-0.27h1.485
			c0.15,0,0.272,0.121,0.272,0.27v1.473c0,0.148-0.122,0.269-0.272,0.269h-1.485c-0.15,0-0.271-0.121-0.271-0.269V7.454z
			 M25.202,2.586h-7.821v2.012h8.401V3.161C25.781,2.844,25.522,2.586,25.202,2.586z"/>
	</g>
</g>
</svg>
