<?xml version="1.0" encoding="utf-8"?>
<!-- Generator: Adobe Illustrator 17.0.0, SVG Export Plug-In . SVG Version: 6.00 Build 0)  -->
<!DOCTYPE svg PUBLIC "-//W3C//DTD SVG 1.1//EN" "http://www.w3.org/Graphics/SVG/1.1/DTD/svg11.dtd">
<svg version="1.1" id="Слой_1" xmlns="http://www.w3.org/2000/svg" xmlns:xlink="http://www.w3.org/1999/xlink" x="0px" y="0px"
	 width="25px" height="25px" viewBox="0 0 25 25" enable-background="new 0 0 25 25" xml:space="preserve">
<g>
	<g>
		<path fill="#0095A1" d="M24.072,17.813c-0.476-0.036-1.464,0.503-1.738,0.637c-0.968,0.487-2.303,1.248-3.182,1.854
			c-0.062,0.041-0.145,0.098-0.207,0.134c-0.393,0.254-0.812,0.425-1.278,0.523c-2.556,0.544-6.281,0.606-6.281,0.606l-0.217,0.01
			c-0.166,0.01-0.31-0.104-0.331-0.264c-0.026-0.177,0.103-0.337,0.285-0.352l5.541-0.528c0.611-0.067,1.097-0.637,1.03-1.279
			s-0.657-1.113-1.268-1.046L11.5,18.046c-0.336-0.005-0.874-0.088-1.195-0.181c-3.177-0.927-4.967-0.057-5.919,0.347
			c-0.212-0.352-0.616-0.58-1.066-0.549l-2.126,0.14c-0.709,0.047-1.242,0.637-1.19,1.321l0.341,4.724
			c0.047,0.684,0.662,1.196,1.366,1.15l2.126-0.14c0.45-0.031,0.812-0.306,0.973-0.684l9.334,0.404
			c1.04,0.109,2.013-0.015,2.928-0.497l0.269-0.14l7.052-4.134c0.347-0.201,0.595-0.554,0.605-0.947
			C25.018,18.388,24.744,17.859,24.072,17.813z M2.491,23.878c-0.398,0-0.724-0.311-0.724-0.699c0-0.389,0.326-0.699,0.724-0.699
			c0.398,0,0.724,0.311,0.724,0.699S2.889,23.878,2.491,23.878z M18.83,19.439c0.067-0.052,0.14-0.104,0.217-0.155
			c0.719-0.502,2.194-1.305,3.027-1.724c0.254-0.125,0.517-0.254,0.802-0.353c-0.362-0.243-0.75-0.253-1.154-0.098
			c-0.792,0.316-2.251,1.021-2.996,1.425c-0.005,0.01-0.01,0.021-0.01,0.031c0.052,0.156,0.093,0.316,0.109,0.482
			C18.841,19.18,18.835,19.31,18.83,19.439z M20.952,16.637c-0.362-0.233-0.745-0.243-1.138-0.088
			c-0.492,0.192-1.583,0.549-2.07,0.808c0.207,0.129,0.393,0.29,0.554,0.477c0.031-0.021,0.062-0.047,0.098-0.067l0.357-0.197
			C19.27,17.285,20.382,16.891,20.952,16.637z M20.243,7.448c1.381-0.59,2.354-1.968,2.354-3.568c0-2.144-1.738-3.88-3.875-3.88
			s-3.875,1.741-3.875,3.88c0,0.021,0.005,0.041,0.005,0.062C17.154,4.185,19.13,5.537,20.243,7.448z M14.112,16.642
			c3.11,0,5.629-2.522,5.629-5.635s-2.52-5.635-5.629-5.635s-5.629,2.522-5.629,5.635C8.482,14.12,11.002,16.642,14.112,16.642z
			 M12.145,13.234c0.052-0.186,0.103-0.373,0.16-0.554c0.067-0.212,0.124-0.238,0.321-0.14c0.336,0.176,0.688,0.269,1.061,0.316
			c0.238,0.031,0.476,0.005,0.693-0.093c0.414-0.182,0.481-0.663,0.129-0.948c-0.119-0.099-0.254-0.171-0.393-0.233
			c-0.362-0.16-0.74-0.28-1.086-0.487c-0.554-0.331-0.911-0.793-0.869-1.466c0.047-0.766,0.481-1.243,1.18-1.497
			c0.29-0.104,0.29-0.104,0.295-0.404V7.423c0.005-0.228,0.047-0.27,0.269-0.275h0.212c0.481,0,0.481,0,0.486,0.482
			c0,0.342,0,0.342,0.341,0.399c0.259,0.042,0.512,0.119,0.75,0.223c0.135,0.057,0.181,0.15,0.145,0.29
			c-0.062,0.207-0.119,0.42-0.186,0.627c-0.062,0.197-0.124,0.223-0.315,0.135c-0.378-0.181-0.776-0.259-1.19-0.238
			c-0.109,0.006-0.217,0.021-0.315,0.067c-0.362,0.156-0.419,0.555-0.114,0.803c0.155,0.125,0.331,0.213,0.517,0.29
			c0.321,0.135,0.642,0.259,0.942,0.425c0.968,0.533,1.226,1.75,0.543,2.574c-0.248,0.301-0.564,0.503-0.937,0.601
			c-0.16,0.047-0.238,0.129-0.228,0.3c0.005,0.166,0,0.332,0,0.497c0,0.15-0.078,0.228-0.223,0.233
			c-0.181,0.006-0.357,0.006-0.538,0c-0.155-0.005-0.233-0.093-0.233-0.244c0-0.119,0-0.243-0.005-0.362
			c-0.005-0.269-0.01-0.28-0.269-0.321c-0.331-0.052-0.652-0.129-0.957-0.274C12.099,13.544,12.078,13.482,12.145,13.234z"/>
	</g>
</g>
</svg>
