<?xml version="1.0" encoding="utf-8"?>
<!-- Generator: Adobe Illustrator 17.0.0, SVG Export Plug-In . SVG Version: 6.00 Build 0)  -->
<!DOCTYPE svg PUBLIC "-//W3C//DTD SVG 1.1//EN" "http://www.w3.org/Graphics/SVG/1.1/DTD/svg11.dtd">
<svg version="1.1" id="Слой_1" xmlns="http://www.w3.org/2000/svg" xmlns:xlink="http://www.w3.org/1999/xlink" x="0px" y="0px"
	 width="19.999px" height="20px" viewBox="0 0 19.999 20" enable-background="new 0 0 19.999 20" xml:space="preserve">
<g>
	<g>
		<path fill="#75BA91" d="M14.139,10.54c0,2.206-1.853,3.994-4.139,3.994c-2.286,0-4.139-1.788-4.139-3.994H4.118
			c0,2.86,2.191,5.224,5.042,5.618v3.547C9.159,19.868,9.327,20,9.533,20h0.934c0.206,0,0.374-0.132,0.374-0.295v-3.547
			c2.85-0.394,5.042-2.758,5.042-5.618H14.139z M10,13.784c2.011,0,3.641-1.573,3.641-3.513V3.513C13.641,1.573,12.011,0,10,0
			C7.989,0,6.358,1.573,6.358,3.513v6.757C6.358,12.211,7.989,13.784,10,13.784z"/>
	</g>
</g>
</svg>
