<svg version="1.1" xmlns="http://www.w3.org/2000/svg" xmlns:xlink="http://www.w3.org/1999/xlink" width="27" height="20"><defs/><g><path fill="rgb(0,149,161)" stroke="none" paint-order="stroke fill markers" fill-rule="evenodd" d=" M 15.96764612197876 3.989023268222809 C 15.499761581420898 3.533769905567169 15.499761581420898 2.8171432614326477 15.96764612197876 2.361889898777008 C 16.43553066253662 1.9220765829086304 17.171862602233887 1.9220765829086304 17.640164375305176 2.361889898777008 C 17.640164375305176 2.361889898777008 24.649169921875 9.180331826210022 24.649169921875 9.180331826210022 C 24.866214275360107 9.391606390476227 25.000062465667725 9.684771835803986 25.000062465667725 10.00992488861084 C 25.000062465667725 10.334947645664215 24.866214275360107 10.628178238868713 24.649169921875 10.84043002128601 C 24.649169921875 10.84043002128601 17.640164375305176 17.658937096595764 17.640164375305176 17.658937096595764 C 17.171862602233887 18.114190459251404 16.43553066253662 18.114190459251404 15.96764612197876 17.658937096595764 C 15.499761581420898 17.203683733940125 15.499761581420898 16.486991941928864 15.96764612197876 16.031738579273224 C 15.96764612197876 16.031738579273224 20.985951900482178 11.165452778339386 20.985951900482178 11.165452778339386 C 20.985951900482178 11.165452778339386 3.1709580421447754 11.165452778339386 3.1709580421447754 11.165452778339386 C 2.5184898376464844 11.166495144367218 1.9998698234558105 10.64557272195816 1.9998698234558105 10.010836958885193 C 1.9998698234558105 9.376296639442444 2.5184898376464844 8.87185662984848 3.1709580421447754 8.87185662984848 C 3.1709580421447754 8.87185662984848 20.98495054244995 8.87185662984848 20.98495054244995 8.87185662984848 C 20.98495054244995 8.87185662984848 15.96764612197876 3.989023268222809 15.96764612197876 3.989023268222809 Z"/></g></svg>