<?xml version="1.0" encoding="UTF-8"?><!DOCTYPE svg PUBLIC "-//W3C//DTD SVG 1.1//EN" "http://www.w3.org/Graphics/SVG/1.1/DTD/svg11.dtd"><svg xmlns="http://www.w3.org/2000/svg" xmlns:xlink="http://www.w3.org/1999/xlink" height="351" viewBox="0 0 58 351" width="58"><svg height="50" viewBox="0 0 285 285" width="50" x="4" y="4"><g fill="#fff"><path d="M135.899 167.877c1.902 1.902 4.093 2.851 6.567 2.851s4.661-.948 6.562-2.851L282.082 34.829c1.902-1.903 2.847-4.093 2.847-6.567s-.951-4.665-2.847-6.567L267.808 7.417c-1.902-1.903-4.093-2.853-6.57-2.853-2.471 0-4.661.95-6.563 2.853L142.466 119.622 30.262 7.417c-1.903-1.903-4.093-2.853-6.567-2.853-2.475 0-4.665.95-6.567 2.853L2.856 21.695C.95 23.597 0 25.784 0 28.262c0 2.478.953 4.665 2.856 6.567l133.043 133.048z"/><path d="M267.808 117.053c-1.902-1.903-4.093-2.853-6.57-2.853-2.471 0-4.661.95-6.563 2.853L142.466 229.257 30.262 117.05c-1.903-1.903-4.093-2.853-6.567-2.853-2.475 0-4.665.95-6.567 2.853L2.856 131.327C.95 133.23 0 135.42 0 137.893c0 2.474.953 4.665 2.856 6.57l133.043 133.046c1.902 1.903 4.093 2.854 6.567 2.854s4.661-.951 6.562-2.854l133.054-133.046c1.902-1.903 2.847-4.093 2.847-6.565 0-2.474-.951-4.661-2.847-6.567l-14.274-14.278z"/></g></svg><svg height="32" viewBox="0 0 32 32" width="32" x="4" y="58"><title>cross</title><path d="M31.708 25.708L22 16l9.708-9.708a1 1 0 0 0 0-1.414L27.122.292a1 1 0 0 0-1.414-.001L16 9.999 6.292.291a.998.998 0 0 0-1.414.001L.292 4.878a1 1 0 0 0 0 1.414L10 16 .292 25.708a.999.999 0 0 0 0 1.414l4.586 4.586a1 1 0 0 0 1.414 0L16 22l9.708 9.708a1 1 0 0 0 1.414 0l4.586-4.586a.999.999 0 0 0 0-1.414z"/></svg><svg height="32" viewBox="0 0 32 32" width="32" x="4" y="94"><title>menu</title><path d="M2 6h28v6H2zm0 8h28v6H2zm0 8h28v6H2z"/></svg><svg height="16" viewBox="0 0 26 16" width="28" x="4" y="130"><style>.st0{fill:#5f676c}</style><path id="XMLID_17_" class="st0" d="M24.8 3.8H4l3.9-2.3c.5-.3.5-.7 0-1C7.4.2 6.7.2 6.2.5L.3 4c-.5.3-.5.7 0 1l5.9 3.5c.2.1.5.2.8.2.3 0 .6-.1.8-.2.5-.3.5-.7 0-1L4 5.2h20.8c.7 0 1.2-.3 1.2-.7s-.5-.7-1.2-.7z"/><path id="XMLID_18_" class="st0" d="M19.7 7.5c-.5-.3-1.2-.3-1.7 0s-.5.7 0 1l3.9 2.3H1.2c-.7 0-1.2.3-1.2.7 0 .4.5.7 1.2.7H22l-3.9 2.3c-.5.3-.5.7 0 1 .2.1.5.2.8.2s.6-.1.8-.2l5.9-3.5c.5-.3.5-.7 0-1l-5.9-3.5z"/></svg><svg height="25" viewBox="0 0 494 494" width="22" x="4" y="150"><path d="M51.6 306c-1.5-9.6-10.5-16-19.8-14.6-9.6 1.5-16 10.5-14.6 19.8 3.8 23.9 26.2 67.3 84.5 74v27.4c0 9.6 7.9 17.5 17.5 17.5s17.5-7.9 17.5-17.5v-27.7c66.7-7.6 85.1-55.4 85.1-81.9 0-29.1-10.2-64.1-85.1-81.9v-88.9c35.8 6.1 42.8 29.1 43.4 32.1v-.3l34.4-7c-.6-2.3-11.7-52.2-77.5-60V72c0-9.6-7.9-17.5-17.5-17.5S102 62.4 102 72v24.5c-79 7.9-79.8 71.7-79.8 74.6v2.3c-.9 25.1 7 59.7 79.5 76.6v100.2C59.5 343.3 52.5 310 51.6 306zm128.8-25.7c6.7 7.9 6.7 15.7 6.7 23.3 0 1.7-.6 39-50.1 46.6v-92.4c25.6 7.1 37.6 15.8 43.4 22.5zM62.1 193.5c-5.5-6.7-5.2-12.8-5-18.9v-3.5c0-4.4 1.7-14.3 8.7-22.4 7.6-9 19.5-14.6 35.8-16.9V214c-23.5-6.5-34.5-14.7-39.5-20.5zm292 132h74c9.6 0 17.5 7.9 17.5 17.5s-7.9 17.5-17.5 17.5h-82.5c-.6 5-.6 10.2-.6 15.7 0 3.8 0 7.3.3 10.5h82.8c9.6 0 17.5 7.9 17.5 17.5s-7.9 17.5-17.5 17.5H352c4.4 11.1 10.8 19.5 18.9 25.4 30.9 21.9 81.3 4.7 81.9 4.7 9-3.2 19.2 1.5 22.4 10.8 3.2 9-1.5 19.2-10.8 22.4-1.7.6-24.5 8.5-52.5 8.5-19.8 0-42.3-4.1-61.2-17.5-17.5-12.2-29.4-30.3-35.5-53.9H294c-9.6 0-17.5-7.9-17.5-17.5S284.4 387 294 387h16c-.3-3.5-.3-7-.3-10.5 0-5.2.3-10.5.6-15.7H294c-9.6 0-17.5-7.9-17.5-17.5s7.9-17.5 17.5-17.5h22.7c6.7-21.6 18.1-38.5 34.4-50.4 45.5-33.5 110.1-14 112.8-13.1 9.3 2.9 14.3 12.5 11.7 21.9-2.9 9.3-12.5 14.3-21.9 11.7-1.2-.3-51-14.9-81.9 8.2-7.2 4.8-13.4 12.1-17.7 21.4zM285.3 95.3h7c-3.5-8.4-5.8-18.6-5.8-31.8C286.5 23.3 308 0 345.9 0c28.6 0 46.6 16 52.7 25.6l-29.1 19.2.3.3c-.3-.3-7.6-10.2-23.9-10.2-20.7 0-24.5 10.5-24.5 28.6 0 13.7 3.8 20.7 9.9 31.2 0 .3.3.3.3.6h26.8c9.6 0 17.5 7.9 17.5 17.5s-7.9 17.5-17.5 17.5h-13.7c.3 11.7-4.1 25.1-12.8 40.8h67c9.6 0 17.5 7.9 17.5 17.5s-7.9 17.5-17.5 17.5H298.7c-6.7 0-12.8-3.8-15.7-10.2-2.9-6.1-2-13.4 2.3-18.6 14-16.9 25.4-39.3 24.2-47.2h-24.2c-9.6 0-17.5-7.9-17.5-17.5s7.9-17.3 17.5-17.3z"/></svg><svg height="16" viewBox="0 0 20 12" width="20" x="4" y="179"><style>.st0{fill:#5f676c}</style><path class="st0" d="M0 0h20v1.1H0zm0 11h20v1.1H0z"/></svg><svg height="18" viewBox="0 0 494 494" width="16" x="4" y="199"><path d="M51.6 306c-1.5-9.6-10.5-16-19.8-14.6-9.6 1.5-16 10.5-14.6 19.8 3.8 23.9 26.2 67.3 84.5 74v27.4c0 9.6 7.9 17.5 17.5 17.5s17.5-7.9 17.5-17.5v-27.7c66.7-7.6 85.1-55.4 85.1-81.9 0-29.1-10.2-64.1-85.1-81.9v-88.9c35.8 6.1 42.8 29.1 43.4 32.1v-.3l34.4-7c-.6-2.3-11.7-52.2-77.5-60V72c0-9.6-7.9-17.5-17.5-17.5S102 62.4 102 72v24.5c-79 7.9-79.8 71.7-79.8 74.6v2.3c-.9 25.1 7 59.7 79.5 76.6v100.2C59.5 343.3 52.5 310 51.6 306zm128.8-25.7c6.7 7.9 6.7 15.7 6.7 23.3 0 1.7-.6 39-50.1 46.6v-92.4c25.6 7.1 37.6 15.8 43.4 22.5zM62.1 193.5c-5.5-6.7-5.2-12.8-5-18.9v-3.5c0-4.4 1.7-14.3 8.7-22.4 7.6-9 19.5-14.6 35.8-16.9V214c-23.5-6.5-34.5-14.7-39.5-20.5zm292 132h74c9.6 0 17.5 7.9 17.5 17.5s-7.9 17.5-17.5 17.5h-82.5c-.6 5-.6 10.2-.6 15.7 0 3.8 0 7.3.3 10.5h82.8c9.6 0 17.5 7.9 17.5 17.5s-7.9 17.5-17.5 17.5H352c4.4 11.1 10.8 19.5 18.9 25.4 30.9 21.9 81.3 4.7 81.9 4.7 9-3.2 19.2 1.5 22.4 10.8 3.2 9-1.5 19.2-10.8 22.4-1.7.6-24.5 8.5-52.5 8.5-19.8 0-42.3-4.1-61.2-17.5-17.5-12.2-29.4-30.3-35.5-53.9H294c-9.6 0-17.5-7.9-17.5-17.5S284.4 387 294 387h16c-.3-3.5-.3-7-.3-10.5 0-5.2.3-10.5.6-15.7H294c-9.6 0-17.5-7.9-17.5-17.5s7.9-17.5 17.5-17.5h22.7c6.7-21.6 18.1-38.5 34.4-50.4 45.5-33.5 110.1-14 112.8-13.1 9.3 2.9 14.3 12.5 11.7 21.9-2.9 9.3-12.5 14.3-21.9 11.7-1.2-.3-51-14.9-81.9 8.2-7.2 4.8-13.4 12.1-17.7 21.4zM285.3 95.3h7c-3.5-8.4-5.8-18.6-5.8-31.8C286.5 23.3 308 0 345.9 0c28.6 0 46.6 16 52.7 25.6l-29.1 19.2.3.3c-.3-.3-7.6-10.2-23.9-10.2-20.7 0-24.5 10.5-24.5 28.6 0 13.7 3.8 20.7 9.9 31.2 0 .3.3.3.3.6h26.8c9.6 0 17.5 7.9 17.5 17.5s-7.9 17.5-17.5 17.5h-13.7c.3 11.7-4.1 25.1-12.8 40.8h67c9.6 0 17.5 7.9 17.5 17.5s-7.9 17.5-17.5 17.5H298.7c-6.7 0-12.8-3.8-15.7-10.2-2.9-6.1-2-13.4 2.3-18.6 14-16.9 25.4-39.3 24.2-47.2h-24.2c-9.6 0-17.5-7.9-17.5-17.5s7.9-17.3 17.5-17.3z"/></svg><svg height="18" viewBox="0 0 579 579" width="16" x="4" y="221"><path d="M577.83 456.128c1.225 9.385-1.635 17.545-8.568 24.48l-81.396 80.781c-3.672 4.08-8.465 7.551-14.381 10.404-5.916 2.857-11.729 4.693-17.439 5.508-.408 0-1.635.105-3.676.309-2.037.203-4.689.307-7.953.307-7.754 0-20.301-1.326-37.641-3.979s-38.555-9.182-63.645-19.584c-25.096-10.404-53.553-26.012-85.376-46.818-31.823-20.805-65.688-49.367-101.592-85.68-28.56-28.152-52.224-55.08-70.992-80.783-18.768-25.705-33.864-49.471-45.288-71.299-11.425-21.828-19.993-41.616-25.705-59.364S4.59 177.362 2.55 164.51-.306 141.56.102 134.216c.408-7.344.612-11.424.612-12.24.816-5.712 2.652-11.526 5.508-17.442s6.324-10.71 10.404-14.382L98.022 8.756c5.712-5.712 12.24-8.568 19.584-8.568 5.304 0 9.996 1.53 14.076 4.59s7.548 6.834 10.404 11.322l65.484 124.236c3.672 6.528 4.692 13.668 3.06 21.42-1.632 7.752-5.1 14.28-10.404 19.584l-29.988 29.988c-.816.816-1.53 2.142-2.142 3.978s-.918 3.366-.918 4.59c1.632 8.568 5.304 18.36 11.016 29.376 4.896 9.792 12.444 21.726 22.644 35.802s24.684 30.293 43.452 48.653c18.36 18.77 34.68 33.354 48.96 43.76 14.277 10.4 26.215 18.053 35.803 22.949 9.588 4.896 16.932 7.854 22.031 8.871l7.648 1.531c.816 0 2.145-.307 3.979-.918 1.836-.613 3.162-1.326 3.979-2.143l34.883-35.496c7.348-6.527 15.912-9.791 25.705-9.791 6.938 0 12.443 1.223 16.523 3.672h.611l118.115 69.768c8.571 5.308 13.67 12.038 15.303 20.198z" fill="#0c72d2"/></svg><svg height="18" viewBox="0 0 431 431" width="16" x="4" y="243"><path d="M412.164 246.198a199.284 199.284 0 0 0 2.45-31.148c0-110.215-89.342-199.555-199.56-199.555-10.576 0-20.995.871-31.141 2.458C165.534 6.581 143.842 0 120.595 0 53.996 0 .005 53.984.005 120.59c0 23.242 6.585 44.916 17.952 63.332-1.573 10.172-2.439 20.528-2.439 31.132 0 110.223 89.34 199.536 199.532 199.536 10.585 0 21.007-.816 31.152-2.417 18.398 11.35 40.072 17.949 63.314 17.949 66.617 0 120.602-53.998 120.602-120.602.005-23.251-6.576-44.92-17.954-63.322zM309.801 305.81c-8.442 12.153-20.843 21.65-37.047 28.479-16.237 6.847-35.428 10.254-57.59 10.254-26.562 0-48.554-4.648-65.913-14.034-12.305-6.721-22.313-15.737-30.007-26.98-7.71-11.252-11.619-22.271-11.619-33.015 0-6.338 2.417-11.85 7.122-16.344 4.754-4.527 10.877-6.796 18.104-6.796 5.92 0 11.005 1.783 15.145 5.316 4.109 3.532 7.556 8.667 10.375 15.443 3.379 7.85 7.049 14.412 10.954 19.648 3.881 5.171 9.343 9.488 16.417 12.867 6.996 3.388 16.307 5.082 27.958 5.082 15.945 0 28.831-3.449 38.693-10.253 9.912-6.866 14.673-15.22 14.673-25.314 0-8.051-2.567-14.445-7.831-19.43-5.312-5.05-12.172-8.896-20.685-11.579-8.546-2.711-20.02-5.586-34.399-8.615-19.308-4.214-35.456-9.119-48.533-14.752-13.094-5.654-23.522-13.383-31.251-23.146-7.745-9.859-11.607-22.113-11.607-36.627 0-13.84 4.077-26.217 12.239-36.989 8.158-10.802 19.961-19.07 35.351-24.829 15.336-5.757 33.391-8.637 54.075-8.637 16.541 0 30.849 1.914 42.96 5.722 12.078 3.836 22.146 8.898 30.196 15.25 7.999 6.338 13.885 13.023 17.613 20.038 3.725 7.036 5.601 13.908 5.601 20.614 0 6.235-2.417 11.89-7.127 16.846-4.709 4.963-10.733 7.493-17.768 7.47-6.342 0-11.317-1.463-14.767-4.56-3.36-2.996-6.889-7.766-10.706-14.414-4.825-9.276-10.604-16.503-17.324-21.672-6.543-5.073-17.338-7.714-32.359-7.682-13.898 0-25.018 2.84-33.411 8.394-8.445 5.643-12.482 12.19-12.501 19.861.014 4.807 1.396 8.86 4.177 12.326 2.824 3.498 6.753 6.529 11.803 9.084a81.825 81.825 0 0 0 15.355 6.046c5.225 1.481 13.894 3.622 25.944 6.457 15.112 3.257 28.819 6.896 41.136 10.862 12.293 3.986 22.784 8.793 31.451 14.52 8.736 5.71 15.564 12.99 20.438 21.783 4.909 8.807 7.354 19.564 7.354 32.222.019 15.242-4.227 28.95-12.689 41.084z" fill="#0c72d2"/></svg><svg height="18" viewBox="0 0 60 60" width="16" x="4" y="265"><path d="M42.117 43.007a1 1 0 0 0-.234 1.986C52.399 46.231 58 49.567 58 51.5c0 2.714-10.652 6.5-28 6.5S2 54.214 2 51.5c0-1.933 5.601-5.269 16.117-6.507a1 1 0 0 0-.234-1.986C7.354 44.247 0 47.739 0 51.5 0 55.724 10.305 60 30 60s30-4.276 30-8.5c0-3.761-7.354-7.253-17.883-8.493z"/><path d="M29.823 54.757L45.164 32.6c5.754-7.671 4.922-20.28-1.781-26.982C39.761 1.995 34.945 0 29.823 0s-9.938 1.995-13.56 5.617c-6.703 6.702-7.535 19.311-1.804 26.952l15.364 22.188zM30 12c3.86 0 7 3.141 7 7s-3.14 7-7 7-7-3.141-7-7 3.14-7 7-7z"/></svg><svg height="18" viewBox="0 0 579 579" width="16" x="4" y="287"><path d="M577.83 456.128c1.225 9.385-1.635 17.545-8.568 24.48l-81.396 80.781c-3.672 4.08-8.465 7.551-14.381 10.404-5.916 2.857-11.729 4.693-17.439 5.508-.408 0-1.635.105-3.676.309-2.037.203-4.689.307-7.953.307-7.754 0-20.301-1.326-37.641-3.979s-38.555-9.182-63.645-19.584c-25.096-10.404-53.553-26.012-85.376-46.818-31.823-20.805-65.688-49.367-101.592-85.68-28.56-28.152-52.224-55.08-70.992-80.783-18.768-25.705-33.864-49.471-45.288-71.299-11.425-21.828-19.993-41.616-25.705-59.364S4.59 177.362 2.55 164.51-.306 141.56.102 134.216c.408-7.344.612-11.424.612-12.24.816-5.712 2.652-11.526 5.508-17.442s6.324-10.71 10.404-14.382L98.022 8.756c5.712-5.712 12.24-8.568 19.584-8.568 5.304 0 9.996 1.53 14.076 4.59s7.548 6.834 10.404 11.322l65.484 124.236c3.672 6.528 4.692 13.668 3.06 21.42-1.632 7.752-5.1 14.28-10.404 19.584l-29.988 29.988c-.816.816-1.53 2.142-2.142 3.978s-.918 3.366-.918 4.59c1.632 8.568 5.304 18.36 11.016 29.376 4.896 9.792 12.444 21.726 22.644 35.802s24.684 30.293 43.452 48.653c18.36 18.77 34.68 33.354 48.96 43.76 14.277 10.4 26.215 18.053 35.803 22.949 9.588 4.896 16.932 7.854 22.031 8.871l7.648 1.531c.816 0 2.145-.307 3.979-.918 1.836-.613 3.162-1.326 3.979-2.143l34.883-35.496c7.348-6.527 15.912-9.791 25.705-9.791 6.938 0 12.443 1.223 16.523 3.672h.611l118.115 69.768c8.571 5.308 13.67 12.038 15.303 20.198z"/></svg><svg height="18" viewBox="0 0 512 512" width="16" x="4" y="309"><g fill="#0c72d2"><path d="M49.106 178.729c6.472 4.567 25.981 18.131 58.528 40.685 32.548 22.554 57.482 39.92 74.803 52.099 1.903 1.335 5.946 4.237 12.131 8.71 6.186 4.476 11.326 8.093 15.416 10.852 4.093 2.758 9.041 5.852 14.849 9.277 5.806 3.422 11.279 5.996 16.418 7.7 5.14 1.718 9.898 2.569 14.275 2.569h.575c4.377 0 9.137-.852 14.277-2.569 5.137-1.704 10.615-4.281 16.416-7.7 5.804-3.429 10.752-6.52 14.845-9.277 4.093-2.759 9.229-6.376 15.417-10.852 6.184-4.477 10.232-7.375 12.135-8.71 17.508-12.179 62.051-43.11 133.615-92.79 13.894-9.703 25.502-21.411 34.827-35.116 9.332-13.699 13.993-28.07 13.993-43.105 0-12.564-4.523-23.319-13.565-32.264-9.041-8.947-19.749-13.418-32.117-13.418H45.679c-14.655 0-25.933 4.948-33.832 14.844C3.949 79.562 0 91.934 0 106.779c0 11.991 5.236 24.985 15.703 38.974 10.466 13.99 21.604 24.983 33.403 32.976z"/><path d="M483.072 209.275c-62.424 42.251-109.824 75.087-142.177 98.501-10.849 7.991-19.65 14.229-26.409 18.699-6.759 4.473-15.748 9.041-26.98 13.702-11.228 4.668-21.692 6.995-31.401 6.995h-.578c-9.707 0-20.177-2.327-31.405-6.995-11.228-4.661-20.223-9.229-26.98-13.702-6.755-4.47-15.559-10.708-26.407-18.699-25.697-18.842-72.995-51.68-141.896-98.501C17.987 202.047 8.375 193.762 0 184.437v226.685c0 12.57 4.471 23.319 13.418 32.265 8.945 8.949 19.701 13.422 32.264 13.422h420.266c12.56 0 23.315-4.473 32.261-13.422 8.949-8.949 13.418-19.694 13.418-32.265V184.437c-8.186 9.132-17.7 17.417-28.555 24.838z"/></g></svg><svg height="16" viewBox="0 0 192 211" width="16" x="4" y="331"><g fill="#0c72d2"><path d="M116.004,0H75.996C34.0916,0,0,34.086,0,75.9804v36.0392c0,31.1992,19.172,59.2384,48,70.66v23.3632   c0,1.582,0.9316,3.0156,2.3788,3.6564c0.5196,0.2304,1.0724,0.3436,1.6212,0.3436c0.9728,0,1.9356-0.3552,2.6856-1.0348   L77.8788,188h38.1252C157.9084,188,192,153.914,192,112.0196V75.9804C192,34.086,157.9084,0,116.004,0z M184,112.0196   C184,149.504,153.498,180,116.004,180H76.336c-0.9924,0-1.9492,0.3672-2.6856,1.0352L56,197.0236v-17.1172   c0-1.6956-1.0684-3.2072-2.668-3.7696C26.2188,166.5508,8,140.7852,8,112.0196V75.9804C8,38.496,38.502,8,75.996,8h40.008   C153.498,8,184,38.496,184,75.9804V112.0196z"/><path d="M148.8632,121.9728l-24.586-15.9688c-2.6892-1.746-5.8864-2.34-9.0212-1.6916c-3.1368,0.6604-5.8304,2.512-7.5804,5.2112   l-1.156,1.7772c-10.6408-3.5156-22.3732-8.008-29.3964-28.34l2.908-2.5272h0.002c4.9904-4.34,5.5156-11.9336,1.174-16.9336   L61.9748,41.3748c-1.4496-1.6676-3.9768-1.8396-5.6448-0.3944l-12.074,10.496c-10.594,9.2072-5.6428,22.8284-4.0156,27.3048   c0.072,0.1992,0.16,0.3908,0.2636,0.578c0.42,0.754,10.4492,18.6488,26.6424,35.1448   c16.26,16.5624,45.6172,31.8592,46.5176,32.3044c3.3536,2.176,7.1252,3.2188,10.8556,3.2188   c6.5508,0,12.9764-3.2108,16.8064-9.1016l8.7132-13.4176C151.242,125.6524,150.7148,123.1756,148.8632,121.9728z    M134.6172,136.5664c-3.6056,5.5508-11.0508,7.1288-16.9336,3.336c-0.2928-0.1524-29.4552-15.34-44.828-31   C58.4884,94.2656,48.9492,78.008,47.6464,75.7384c-3.17-8.8828-2.6092-14.344,1.8556-18.2228l9.0584-7.8712L75.168,68.75   c1.4744,1.6952,1.3048,4.1756-0.3848,5.6444l-4.908,4.2656c-1.1956,1.0392-1.6664,2.6836-1.1996,4.1956   c8.3692,27.1912,24.6408,32.5312,36.5216,36.4336l1.7304,0.57c1.7308,0.586,3.6292-0.082,4.6192-1.6132l2.838-4.3672   c0.586-0.9024,1.4804-1.5156,2.5196-1.7344c1.0428-0.2224,2.1092-0.0156,3.0136,0.5704l21.2324,13.7892L134.6172,136.5664z"/><path d="M105.1288,64.9884c-2.1288-0.6136-4.3396,0.6248-4.9432,2.7536c-0.6036,2.1252,0.6288,4.336,2.752,4.9416   c5.9608,1.6952,10.7068,6.4532,12.3884,12.418c0.4964,1.7616,2.1016,2.914,3.848,2.914c0.3592,0,0.7244-0.0468,1.0876-0.1484   c2.1252-0.6016,3.3636-2.8088,2.7636-4.9376C120.5976,74.3124,113.7384,67.4376,105.1288,64.9884z"/><path d="M135.5704,88.8748c0.3592,0,0.7244-0.0468,1.088-0.1484c2.1268-0.6016,3.3632-2.8124,2.7636-4.9372   c-4.7188-16.7308-18.0372-30.0784-34.756-34.836c-2.1248-0.6132-4.338,0.6328-4.9412,2.754   c-0.6036,2.1248,0.6288,4.3356,2.7536,4.9412c14.0664,4,25.2736,15.2344,29.2444,29.3124   C132.2208,87.7228,133.8244,88.8748,135.5704,88.8748z"/><path d="M102.9432,30.328c-2.1288-0.6132-4.3396,0.6252-4.9432,2.754c-0.6036,2.1252,0.6288,4.336,2.752,4.9416   c23.838,6.7812,42.824,25.8124,49.5508,49.664c0.496,1.7616,2.1016,2.914,3.8476,2.914c0.3592,0,0.7248-0.0468,1.088-0.1484   c2.1248-0.6016,3.3632-2.8124,2.7636-4.9376C150.5272,59.0116,129.4296,37.8672,102.9432,30.328z"/></g><g fill="#0c72d2"><path d="M116.004,0H75.996C34.0916,0,0,34.086,0,75.9804v36.0392c0,31.1992,19.172,59.2384,48,70.66v23.3632   c0,1.582,0.9316,3.0156,2.3788,3.6564c0.5196,0.2304,1.0724,0.3436,1.6212,0.3436c0.9728,0,1.9356-0.3552,2.6856-1.0348   L77.8788,188h38.1252C157.9084,188,192,153.914,192,112.0196V75.9804C192,34.086,157.9084,0,116.004,0z M184,112.0196   C184,149.504,153.498,180,116.004,180H76.336c-0.9924,0-1.9492,0.3672-2.6856,1.0352L56,197.0236v-17.1172   c0-1.6956-1.0684-3.2072-2.668-3.7696C26.2188,166.5508,8,140.7852,8,112.0196V75.9804C8,38.496,38.502,8,75.996,8h40.008   C153.498,8,184,38.496,184,75.9804V112.0196z"/><path d="M148.8632,121.9728l-24.586-15.9688c-2.6892-1.746-5.8864-2.34-9.0212-1.6916c-3.1368,0.6604-5.8304,2.512-7.5804,5.2112   l-1.156,1.7772c-10.6408-3.5156-22.3732-8.008-29.3964-28.34l2.908-2.5272h0.002c4.9904-4.34,5.5156-11.9336,1.174-16.9336   L61.9748,41.3748c-1.4496-1.6676-3.9768-1.8396-5.6448-0.3944l-12.074,10.496c-10.594,9.2072-5.6428,22.8284-4.0156,27.3048   c0.072,0.1992,0.16,0.3908,0.2636,0.578c0.42,0.754,10.4492,18.6488,26.6424,35.1448   c16.26,16.5624,45.6172,31.8592,46.5176,32.3044c3.3536,2.176,7.1252,3.2188,10.8556,3.2188   c6.5508,0,12.9764-3.2108,16.8064-9.1016l8.7132-13.4176C151.242,125.6524,150.7148,123.1756,148.8632,121.9728z    M134.6172,136.5664c-3.6056,5.5508-11.0508,7.1288-16.9336,3.336c-0.2928-0.1524-29.4552-15.34-44.828-31   C58.4884,94.2656,48.9492,78.008,47.6464,75.7384c-3.17-8.8828-2.6092-14.344,1.8556-18.2228l9.0584-7.8712L75.168,68.75   c1.4744,1.6952,1.3048,4.1756-0.3848,5.6444l-4.908,4.2656c-1.1956,1.0392-1.6664,2.6836-1.1996,4.1956   c8.3692,27.1912,24.6408,32.5312,36.5216,36.4336l1.7304,0.57c1.7308,0.586,3.6292-0.082,4.6192-1.6132l2.838-4.3672   c0.586-0.9024,1.4804-1.5156,2.5196-1.7344c1.0428-0.2224,2.1092-0.0156,3.0136,0.5704l21.2324,13.7892L134.6172,136.5664z"/><path d="M105.1288,64.9884c-2.1288-0.6136-4.3396,0.6248-4.9432,2.7536c-0.6036,2.1252,0.6288,4.336,2.752,4.9416   c5.9608,1.6952,10.7068,6.4532,12.3884,12.418c0.4964,1.7616,2.1016,2.914,3.848,2.914c0.3592,0,0.7244-0.0468,1.0876-0.1484   c2.1252-0.6016,3.3636-2.8088,2.7636-4.9376C120.5976,74.3124,113.7384,67.4376,105.1288,64.9884z"/><path d="M135.5704,88.8748c0.3592,0,0.7244-0.0468,1.088-0.1484c2.1268-0.6016,3.3632-2.8124,2.7636-4.9372   c-4.7188-16.7308-18.0372-30.0784-34.756-34.836c-2.1248-0.6132-4.338,0.6328-4.9412,2.754   c-0.6036,2.1248,0.6288,4.3356,2.7536,4.9412c14.0664,4,25.2736,15.2344,29.2444,29.3124   C132.2208,87.7228,133.8244,88.8748,135.5704,88.8748z"/><path d="M102.9432,30.328c-2.1288-0.6132-4.3396,0.6252-4.9432,2.754c-0.6036,2.1252,0.6288,4.336,2.752,4.9416   c23.838,6.7812,42.824,25.8124,49.5508,49.664c0.496,1.7616,2.1016,2.914,3.8476,2.914c0.3592,0,0.7248-0.0468,1.088-0.1484   c2.1248-0.6016,3.3632-2.8124,2.7636-4.9376C150.5272,59.0116,129.4296,37.8672,102.9432,30.328z"/></g></svg></svg>