<?xml version="1.0" encoding="iso-8859-1"?>
<!-- Generator: Adobe Illustrator 16.0.0, SVG Export Plug-In . SVG Version: 6.00 Build 0)  -->
<!DOCTYPE svg PUBLIC "-//W3C//DTD SVG 1.1//EN" "http://www.w3.org/Graphics/SVG/1.1/DTD/svg11.dtd">
<svg version="1.1" id="Capa_1" xmlns="http://www.w3.org/2000/svg" xmlns:xlink="http://www.w3.org/1999/xlink" x="0px" y="0px"
	 height="20px" width="30px" viewBox="0 0 95.438 95.438" style="enable-background:new 0 0 95.438 95.438;"
	 xml:space="preserve">
<g>
	<path style="fill:#010002;" d="M40.785,44.527c0.95,1.877,5.196,11.772,5.196,13.19c0,7.758-10.372,7.758-10.372,0
		C35.61,56.299,39.848,45.927,40.785,44.527z M46.921,40.135c0-1.077,0-2.863,0-5.98c0-3.809-3.446-7.079-8.013-7.079
		c0,0-0.026,0-10.662,0l-0.06-3.309c0-0.971-0.779-1.739-1.74-1.739h-4.166v-2.136c0.355-0.223,0.658-0.484,0.912-0.823
		c1.25,0,3.785,0,8.885,0c0.585,0.774,1.471,1.294,2.504,1.294c1.771,0,3.208-1.437,3.208-3.213c0-1.755-1.442-3.197-3.213-3.197
		c-1.066,0-1.957,0.551-2.54,1.356c-1.411,0-4.029,0-8.803,0c-0.588-0.806-1.479-1.356-2.545-1.356
		c-1.064,0-1.959,0.551-2.545,1.356c-2.718,0-5.95,0-9.714,0c-0.582-0.806-1.483-1.356-2.54-1.356c-1.776,0-3.218,1.442-3.218,3.197
		c0,1.776,1.442,3.213,3.218,3.213c1.03,0,1.911-0.525,2.499-1.294c1.607,0,4.523,0,9.805,0c0.249,0.347,0.557,0.611,0.917,0.829
		v2.125h-4.422c-0.955,0-1.734,0.774-1.734,1.74v3.314c-1.08,0-4.2,0-12.953,0v10.367c0.313,0,2.413,0,14.413,0
		c1.414,2.835,3.296,4.241,6.134,4.241c2.817,0,5.175-1.406,6.592-4.241c0,0,0,0,5.175,0c1.553,0,2.121,0.997,2.289,2.91
		c-0.461,0.308-0.779,0.805-0.779,1.406c0,0.963,0.779,1.716,1.74,1.716h10.757c0.966,0,1.735-0.758,1.735-1.716
		C48.056,41.005,47.584,40.379,46.921,40.135z M48.517,70.104c-0.147,0.746-0.138,1.518,0.085,2.268
		c0.187,0.694,0.557,1.347,1.072,1.891c1.737,1.76,4.582,1.802,6.363,0.088l8.813-8.596l1.14,1.16l-8.834,8.596
		c-2.402,2.34-6.273,2.288-8.64-0.114c-0.815-0.839-1.271-1.885-1.522-2.982H28.542c-2.506,0-4.544,2.04-4.544,4.53
		c0,2.521,2.042,4.541,4.544,4.541h31.975c1.041,0,1.993-0.403,2.78-1.035l20.807-15.752h11.334V49.257H95.34v-0.15H69.097
		L49.774,67.929C49.158,68.519,48.729,69.265,48.517,70.104z"/>
</g>
<g>
</g>
<g>
</g>
<g>
</g>
<g>
</g>
<g>
</g>
<g>
</g>
<g>
</g>
<g>
</g>
<g>
</g>
<g>
</g>
<g>
</g>
<g>
</g>
<g>
</g>
<g>
</g>
<g>
</g>
</svg>
