<?xml version="1.0" encoding="utf-8"?>
<!-- Generator: Adobe Illustrator 21.0.2, SVG Export Plug-In . SVG Version: 6.00 Build 0)  -->
<svg version="1.1" id="Слой_1" xmlns="http://www.w3.org/2000/svg" xmlns:xlink="http://www.w3.org/1999/xlink" x="0px" y="0px"
	 viewBox="0 0 400 480" style="enable-background:new 0 0 400 480;" height="20px" width="30px" xml:space="preserve">
<style type="text/css">
	.st0{fill:#1471D1;}
</style>
<g>
	<path class="st0" d="M203,12c12.3,11.4,15.6,26.4,16.9,42.3c2.6,30.5-0.7,60.9-2.7,91.2c-3.3,50.5,5.1,98.8,26.9,144.6
		c2.1,4.5,4.7,8.8,7.3,13c0.7,1.1,2.2,2.5,3.3,2.4c15.5-0.7,27.4-9.8,27.4-25.6c0-12.7-8.9-21.9-21.7-23c-1.3-0.1-2.6-0.3-4.4-0.5
		c1.7-11.5,3.3-22.8,5.1-34.1c5.5-36,11.1-72,16.7-108c3.9-25.2,17.4-44.3,38.5-58c7.6-5,16.2-8.5,24.3-12.5
		c1.3-0.6,2.9-0.6,4.3-0.8c0,114.3,0,228.7,0,343c-7.5,0.3-14.9,0.8-22.4,0.9c-18.6,0.1-37.3,0-55.9,0c-2,6.3-3.6,12.4-6,18.2
		c-9.5,23.3-26.1,40.7-46.5,54.8c-12.7,8.8-12.8,8.8-25.3,0c-19.8-14-36.4-30.7-45.7-53.5c-2.5-6.1-4.3-12.5-6.7-19.5
		c-25.3,0-51.1,0-77.3,0c0-114.9,0-229.3,0-345.1c9,4.6,17.7,8.3,25.7,13.2c19.9,12.1,33.6,29.4,39.2,52.1
		c3.4,13.7,4.7,27.9,6.8,41.9c5.2,34.2,10.4,68.4,15.6,102.6c0.2,1.5,0.4,2.9,0.4,3.3c-6.1,2.5-12.4,3.7-17.1,7.1
		c-8.2,5.9-10.5,14.8-7.8,24.5c2.9,10.6,10.5,16,20.9,18.5c5.3,1.2,8.5-0.1,11.2-5.1c14.6-27.3,23.8-56.1,29.1-86.6
		c6.1-35.1,2.4-70,0.4-105.1c-1.3-22.4-2.4-44.9,1.7-67.2c2-11.3,5.9-21.9,15.8-29.1C201.7,12,202.3,12,203,12z M201.6,19.4
		C194,29,191,39.5,190,50.5c-2.6,26.5-0.6,52.9,1.2,79.3c1.8,26.6,2.9,53.2-1.2,79.7c-4.9,32.2-14.3,62.9-29.8,91.6
		c-6.6,12.2-9,13-22.5,8.9c-0.3-0.1-0.7-0.2-1-0.3c-20.9-6.9-28.6-30.5-15.9-48.2c4.6-6.4,11.4-9.5,19-11.3
		c-0.8-5.5-1.5-10.8-2.3-16c-5.5-36-11.6-72-16.4-108.1c-3.1-22.9-10.8-42.8-28.7-58c-8.1-6.7-17-12.2-27.2-16.1
		c0,109.7,0,218.8,0,328.1c1.4,0.1,2.6,0.2,3.7,0.2c22.8,0.1,45.6,0.3,68.5,0.3c3.7,0,5.3,1,6,4.8c0.8,4.7,2.3,9.4,3.9,13.9
		c9.6,26.7,29,44.9,52.1,59.8c1.2,0.8,3.9,0.5,5.2-0.3c5.4-3.5,10.8-7.2,15.8-11.3c20.3-16.4,34.8-36.6,39.7-62.8
		c0.7-3.5,2.4-4,5.5-4c22.2,0,44.3-0.2,66.5-0.3c1.9,0,3.9,0,6,0c0-109.8,0-218.8,0-329c-6.4,3.6-12.4,6.4-17.9,10
		c-18.8,12.3-31.7,29.2-35.6,51.5c-5.8,33.3-10.4,66.8-15.5,100.2c-1.9,12.4-3.8,24.9-5.6,37.3c11.7,3.7,17.4,7.8,21.4,15
		c10.4,19-0.8,41.2-22.9,45.7c-11.3,2.3-11.7,2.1-17.5-7.5c-0.6-1-1.2-2-1.7-3c-15.6-29.2-25-60.4-29.7-93.2
		c-4.1-28.3-2.2-56.5-0.4-84.7c1.6-24.6,3.2-49.2,0.5-73.8C211.9,38.3,209,28.3,201.6,19.4z"/>
	<path class="st0" d="M201.6,19.4c7.4,8.9,10.2,18.9,11.4,29.3c2.7,24.6,1.1,49.2-0.5,73.8c-1.8,28.2-3.7,56.4,0.4,84.7
		c4.7,32.8,14.1,63.9,29.7,93.2c0.5,1,1.1,2,1.7,3c5.8,9.6,6.2,9.8,17.5,7.5c22.2-4.5,33.4-26.7,22.9-45.7c-4-7.3-9.6-11.3-21.4-15
		c1.9-12.4,3.7-24.8,5.6-37.3c5.1-33.4,9.7-66.9,15.5-100.2c3.9-22.3,16.8-39.2,35.6-51.5c5.5-3.6,11.5-6.5,17.9-10
		c0,110.2,0,219.2,0,329c-2.1,0-4.1,0-6,0c-22.2,0.1-44.3,0.3-66.5,0.3c-3.1,0-4.8,0.5-5.5,4c-4.9,26.1-19.5,46.3-39.7,62.8
		c-5,4.1-10.4,7.8-15.8,11.3c-1.3,0.8-4,1.1-5.2,0.3c-23.2-14.9-42.6-33.1-52.1-59.8c-1.6-4.5-3-9.2-3.9-13.9
		c-0.7-3.8-2.3-4.8-6-4.8c-22.8,0-45.6-0.2-68.5-0.3c-1.1,0-2.3-0.1-3.7-0.2c0-109.3,0-218.4,0-328.1c10.2,3.9,19.1,9.4,27.2,16.3
		c17.9,15.2,25.6,35.1,28.7,58c4.8,36.1,10.9,72.1,16.4,108.1c0.8,5.2,1.5,10.5,2.3,16c-7.6,1.8-14.4,4.9-19,11.3
		c-12.8,17.7-5,41.2,15.9,48.2c0.3,0.1,0.6,0.2,1,0.3c13.4,4,15.8,3.3,22.5-8.9c15.6-28.7,24.9-59.4,29.8-91.6
		c4-26.6,2.9-53.1,1.2-79.7c-1.8-26.4-3.7-52.8-1.2-79.3C191.1,39.5,194,29.1,201.6,19.4z M324.4,73.8c-6.1,7.2-11.6,13.8-17.3,20.2
		c-5.9,6.7-9.8,14.2-11.1,23c-3.2,21.9-6.5,43.8-9.8,65.7c-2.7,17.9-5.4,35.9-7.9,53.9c-0.3,1.9,0.3,5.3,1.5,5.9
		c12.6,6.2,20,16.1,23.2,29.6c0.3,1.2,2.5,2.7,3.6,2.7c5.9-0.4,11.8-1.3,17.7-2C324.4,206.4,324.4,140.6,324.4,73.8z M99.4,275.3
		c0.4-1.2,0.7-1.8,0.8-2.4c3-13.7,10.2-24,23.1-30.1c1.1-0.5,2-3.2,1.8-4.7c-5.5-38-12.1-75.9-16.4-114.1
		c-2.4-21.7-17.5-34-29.7-50.3c0,67.2,0,133,0,199.2C85.8,273.7,92.4,274.4,99.4,275.3z M143.1,367.5c-2.2-14.5,1.5-27.7,5.7-40.7
		c-0.8-0.4-0.9-0.6-1-0.6c-24.2-1.9-41.3-12.8-47-37.8c-0.2-1-1.9-2.3-3-2.4c-6.1-0.2-12.2-0.1-18.3-0.1c0,27.6,0,54.5,0,81.6
		C100.6,367.5,121.4,367.5,143.1,367.5z M260.2,367.3c21.8,0,42.7,0,63.5,0c0-27.3,0-54.1,0-81.2c-7.1,0-13.7,0-20.6,0
		c-5.3,26.2-22.4,38.5-48.7,40.1C258.4,340,262.6,353,260.2,367.3z M201.4,220.6c-4.8,16.2-9.5,31.4-13.7,46.7
		c-4.3,15.4-9.7,30.2-19.1,43.8c12.2,7.3,26,11.4,33.1,26.1c7-14.9,20.9-18.8,31.5-25.2c-6.4-15.2-13.3-29.5-18.5-44.5
		C209.5,252.6,206,237,201.4,220.6z M209.2,381c0,21.1,0,41.6,0,62.3c16.3-11.3,36.4-42.3,40.5-62.3C236.3,381,222.9,381,209.2,381z
		 M153.2,380.7c8.1,24.7,20,46.1,40.7,62.2c0-20.8,0-41.2,0-61.9c-1.5-0.1-2.6-0.3-3.8-0.3C178,380.7,165.9,380.7,153.2,380.7z
		 M239.4,326.6c-24.5,4.7-35.8,27.9-30,41.4c13,0,25.9,0,38.7,0C250.4,355,247.3,340.7,239.4,326.6z M155.1,367.9
		c2.9,0.1,5.7,0.4,8.5,0.4c9,0.1,18-0.2,26.9,0.3c3.5,0.2,4.1-1,4.5-4c2.2-19.3-13.1-33.9-29-37.4c-1-0.2-2.9,0.7-3.4,1.6
		C156.5,341,152.9,353.7,155.1,367.9z"/>
	<path class="st0" d="M324.4,73.8c0,66.7,0,132.6,0,199c-5.9,0.7-11.8,1.6-17.7,2c-1.2,0.1-3.4-1.5-3.6-2.7
		c-3.2-13.5-10.6-23.5-23.2-29.6c-1.2-0.6-1.7-4-1.5-5.9c2.5-18,5.2-35.9,7.9-53.9c3.2-21.9,6.5-43.8,9.8-65.7
		c1.3-8.8,5.2-16.4,11.1-23C312.8,87.7,318.2,81,324.4,73.8z M318,91.9c-10.8,10.3-14.7,17.4-16.1,27.2c-2.4,17.1-5,34.2-7.5,51.3
		c-3.1,21.1-6.2,42.1-9.5,63.2c-0.5,3.4,0.7,4.8,3.2,6.7c4.7,3.6,9.4,7.5,12.9,12.2c3.4,4.5,5.4,10.1,8.2,15.7
		c2.7-0.4,5.7-0.8,8.7-1.2C318,208.6,318,150.7,318,91.9z"/>
	<path class="st0" d="M99.4,275.3c-7-0.8-13.5-1.6-20.4-2.4c0-66.2,0-132,0-199.2c12.2,16.3,27.3,28.6,29.7,50.3
		c4.2,38.2,10.9,76.1,16.4,114.1c0.2,1.5-0.6,4.2-1.8,4.7c-12.9,6.1-20.1,16.4-23.1,30.1C100.1,273.5,99.8,274.1,99.4,275.3z
		 M85.1,92.2c0,58.5,0,116.5,0,175c3.2,0.4,6.3,0.7,9.6,1.1c3.5-12.1,9.7-21.9,20.5-28.1c3-1.7,3.5-3.6,3-6.8
		c-5.3-34.9-10.6-69.7-15.4-104.6C100.9,114.7,97.8,101.6,85.1,92.2z"/>
	<path class="st0" d="M143.1,367.5c-21.8,0-42.6,0-63.7,0c0-27.1,0-53.9,0-81.6c6.1,0,12.2-0.1,18.3,0.1c1.1,0,2.8,1.4,3,2.4
		c5.7,25.1,22.7,35.9,47,37.8c0.1,0,0.3,0.2,1,0.6C144.7,339.8,141,353,143.1,367.5z M139.8,332.1c0.2,0.1-0.2-0.3-0.6-0.4
		c-1.1-0.3-2.3-0.5-3.4-0.7c-19.8-4.4-33.6-15.7-39.5-35.3c-1.6-5.2-5-3.1-7.9-3.3c-3.8-0.3-3.1,2.7-3.1,4.8c0,19.8,0,39.6,0,59.5
		c0,1.4,0.2,2.9,0.4,4.3c17,0,33.6,0,49.5,0C136.7,351.3,138.2,342.2,139.8,332.1z"/>
	<path class="st0" d="M260.2,367.3c2.4-14.3-1.7-27.3-5.8-41c26.3-1.6,43.4-13.9,48.7-40.1c6.9,0,13.5,0,20.6,0c0,27,0,53.9,0,81.2
		C302.9,367.3,282,367.3,260.2,367.3z M308.1,292.4c-6.2,23-22,35.6-44.7,39.4c1.6,9.9,3.1,19.4,4.6,29c16.1,0,32.8,0,49.9,0
		c0-2.2,0-4,0-5.8c0-18.1,0-36.3,0-54.4C317.9,291.6,317.9,291.6,308.1,292.4z"/>
	<path class="st0" d="M201.4,220.6c4.5,16.3,8,31.9,13.2,46.9s12.1,29.3,18.5,44.5c-10.6,6.4-24.4,10.3-31.5,25.2
		c-7.1-14.7-20.9-18.8-33.1-26.1c9.4-13.5,14.9-28.4,19.1-43.8C191.9,252,196.7,236.8,201.4,220.6z M225.5,308.2
		c-11.5-18.7-17.7-39.7-23.9-62.2c-6,22.6-12.4,43.5-23.7,62.1c8.4,5.6,16.5,10.9,23.7,15.7C209.1,319,217,313.8,225.5,308.2z"/>
	<path class="st0" d="M209.2,381c13.7,0,27.1,0,40.5,0c-4.1,20.1-24.2,51.1-40.5,62.3C209.2,422.6,209.2,402.1,209.2,381z
		 M215.3,428.5c13-11.8,19.8-26,25.5-41.2c-8.7,0-17.1,0-25.5,0C215.3,401,215.3,414.2,215.3,428.5z"/>
	<path class="st0" d="M153.2,380.7c12.7,0,24.8,0,36.9,0c1.1,0,2.3,0.2,3.8,0.3c0,20.6,0,41.1,0,61.9
		C173.2,426.8,161.3,405.4,153.2,380.7z M162.4,387.2c5.9,15.4,12.6,29.7,25.4,41.1c0-14.2,0-27.5,0-41.4c-7.2,0-14.1,0-21.1,0
		C165.5,386.9,164.2,387.1,162.4,387.2z"/>
	<path class="st0" d="M239.4,326.6c7.9,14,11,28.4,8.7,41.4c-12.8,0-25.6,0-38.7,0C203.6,354.6,214.9,331.3,239.4,326.6z
		 M237.4,333.8c-13.3,3.4-25.3,17.5-22.2,28.2c8,0,16.2,0.1,24.3-0.2c1.1,0,3.2-2.6,3-3.6C241.1,350.2,239.2,342.2,237.4,333.8z"/>
	<path class="st0" d="M155.1,367.9c-2.2-14.2,1.4-26.9,7.5-39.1c0.5-0.9,2.4-1.8,3.4-1.6c15.9,3.5,31.2,18.1,29,37.4
		c-0.3,3-0.9,4.2-4.5,4c-9-0.4-17.9-0.2-26.9-0.3C160.8,368.3,158,368,155.1,367.9z M167.4,334.2c-5.3,9.5-7.7,20.7-5.8,27.5
		c9,0,18.1,0,27.1,0C189.4,349.7,180.6,338.4,167.4,334.2z"/>
</g>
</svg>
