<?xml version="1.0" encoding="utf-8"?>
<!-- Generator: Adobe Illustrator 21.0.2, SVG Export Plug-In . SVG Version: 6.00 Build 0)  -->
<svg version="1.1" id="Capa_1" xmlns="http://www.w3.org/2000/svg" xmlns:xlink="http://www.w3.org/1999/xlink" x="0px" y="0px"
	 viewBox="0 0 488.9 488.9" style="enable-background:new 0 0 488.9 488.9;" height="20px" width="30px" xml:space="preserve">
<style type="text/css">
	.st0{fill:#1471D1;}
</style>
<g>
	<g>
		<path class="st0" d="M285.8,174.1c-38.9,0-70.4,31.5-70.4,70.4s31.5,70.4,70.4,70.4s70.4-31.5,70.4-70.4
			C356,205.6,324.5,174.1,285.8,174.1z M306,272.2c-3.1,3.7-7.1,6.2-11.7,7.5c-2,0.6-2.9,1.6-2.8,3.7s0,4.2,0,6.2
			c0,1.9-0.9,2.8-2.8,2.9c-2.2,0.1-4.5,0.1-6.7,0c-2,0-2.9-1.1-2.9-3.1c0-1.5,0-3,0-4.6c0-3.3-0.1-3.5-3.4-4
			c-4.1-0.7-8.2-1.6-11.9-3.4c-3-1.4-3.3-2.2-2.4-5.3c0.6-2.3,1.3-4.6,2-6.9c0.8-2.7,1.5-3,4-1.7c4.2,2.2,8.6,3.4,13.2,4
			c3,0.4,5.9,0.1,8.7-1.1c5.2-2.3,6-8.3,1.6-11.9c-1.5-1.2-3.2-2.1-4.9-2.9c-4.5-2-9.3-3.5-13.5-6.1c-6.9-4.2-11.4-9.9-10.8-18.3
			c0.6-9.6,6-15.5,14.8-18.7c3.6-1.3,3.6-1.3,3.7-5c0-1.3,0-2.6,0-3.8c0.1-2.9,0.6-3.3,3.4-3.4c0.9,0,1.8,0,2.6,0c6,0,6,0,6.1,6
			c0,4.3,0,4.3,4.3,5c3.3,0.5,6.4,1.5,9.4,2.8c1.7,0.7,2.3,1.9,1.8,3.6c-0.8,2.6-1.5,5.2-2.3,7.8c-0.8,2.4-1.6,2.8-3.9,1.7
			c-4.7-2.3-9.7-3.2-14.9-3c-1.4,0.1-2.7,0.3-4,0.8c-4.5,2-5.2,6.9-1.4,10c1.9,1.6,4.2,2.7,6.5,3.6c4,1.7,8,3.2,11.8,5.3
			C311.1,246.8,314.5,261.9,306,272.2z"/>
		<circle class="st0" cx="183.4" cy="248" r="19.5"/>
		<circle class="st0" cx="388.1" cy="248" r="19.5"/>
		<path class="st0" d="M441.1,129.8H134.8c-17.7,0-32.1,14.4-32.1,32.1v165.2c0,17.7,14.4,32.1,32.1,32.1h306.4
			c17.7,0,32.1-14.4,32.1-32.1V161.9C473.3,144.2,458.9,129.8,441.1,129.8z M445.9,293.9c-1.9-0.3-3.8-0.5-5.7-0.5
			c-18,0-32.5,14.6-32.5,32.5c0,2,0.2,4,0.6,6H170.4c0.2-1.3,0.3-2.7,0.3-4c0-18-14.6-32.5-32.5-32.5c-2.8,0-5.5,0.4-8,1v-99.7
			c2.6,0.7,5.3,1,8,1c18,0,32.5-14.6,32.5-32.5c0-2.7-0.3-5.4-1-7.9h238.6c-0.4,1.9-0.6,3.9-0.6,6c0,18,14.6,32.5,32.5,32.5
			c2,0,3.9-0.2,5.7-0.5V293.9z"/>
		<path class="st0" d="M272.5,403.9c0,7.4-6.1,13.5-13.5,13.5H57c-7.4,0-13.5-6.1-13.5-13.5V85.1c0-7.4,6.1-13.5,13.5-13.5h201.9
			c7.4,0,13.5,6.1,13.5,13.5v2.4v10.1v4.8h27.9v-4.8v-45c0-28.9-23.7-52.6-52.6-52.6H68.3C39.3,0,15.7,23.7,15.7,52.6v383.7
			c0,28.9,23.7,52.6,52.6,52.6h179.5c28.9,0,52.6-23.7,52.6-52.6v-49.7h-27.9V403.9z M180.6,466.8H130c-7.5,0-13.6-6.1-13.6-13.6
			s6.1-13.6,13.6-13.6h50.6c7.5,0,13.6,6.1,13.6,13.6S188.1,466.8,180.6,466.8z"/>
	</g>
</g>
</svg>
