<svg xmlns="http://www.w3.org/2000/svg" width="25" height="25" viewBox="0 0 512 512"><path fill="#616161" d="M478.609 38.957H33.391C14.978 38.957 0 53.935 0 72.348v100.174c0 18.413 14.978 33.391 33.391 33.391h66.783v217.044c0 27.619 22.468 50.087 50.087 50.087h211.478c27.619 0 50.087-22.468 50.087-50.087V205.913h66.783c18.413 0 33.391-14.978 33.391-33.391V72.348c0-18.413-14.978-33.391-33.391-33.391zM244.87 439.652h-94.609c-9.206 0-16.696-7.49-16.696-16.696V139.13H244.87v300.522zm133.565-16.695c0 9.206-7.49 16.696-16.696 16.696h-50.087V139.13h66.783v283.827z"/></svg>