<svg xmlns="http://www.w3.org/2000/svg" width="15" height="10" viewBox="0 0 31.058 31.058"><path fill="#4b4d4f" d="M22.85 25.421h-7.321a.887.887 0 0 1 0-1.776h7.321a6.44 6.44 0 0 0 6.433-6.434 6.441 6.441 0 0 0-6.433-6.434H3.03l1.852 1.852a.887.887 0 1 1-1.254 1.255L.26 10.519l-.002-.001-.001-.002-.002-.001-.002-.002-.001-.001-.001-.001a.886.886 0 0 1-.224-.397v-.001a.92.92 0 0 1-.021-.107v-.003a.894.894 0 0 1 .06-.452.912.912 0 0 1 .199-.292l3.363-3.363a.887.887 0 0 1 1.254 1.255L3.03 9.004h19.82c4.526 0 8.208 3.683 8.208 8.208 0 4.527-3.682 8.209-8.208 8.209z"/></svg>