<svg id="Capa_1" xmlns="http://www.w3.org/2000/svg" viewBox="0 0 533.3 533.3" width="40" height="50"><style>.st0{fill:#1471d1}</style><path class="st0" d="M165.5 533.3C130 459.3 148.9 417 176.2 377c29.9-43.7 37.6-87 37.6-87s23.5 30.6 14.1 78.4c41.5-46.3 49.4-119.9 43.1-148.2 94 65.7 134.1 207.8 80 313.1C638.7 370.6 422.6 127 384.9 99.6c12.5 27.4 14.9 73.9-10.4 96.4C331.6 33.3 225.6 0 225.6 0c12.5 83.9-45.5 175.6-101.4 244.1-2-33.4-4.1-56.5-21.6-88.5-3.9 60.8-50.4 110.3-63 171.2-17 82.4 12.7 142.8 125.9 206.5z"/></svg>