<svg id="Слой_1" xmlns="http://www.w3.org/2000/svg" viewBox="0 0 400 480" width="40" height="50"><style>.st0{fill:#1471d1}</style><path class="st0" d="M203 12c12.3 11.4 15.6 26.4 16.9 42.3 2.6 30.5-.7 60.9-2.7 91.2-3.3 50.5 5.1 98.8 26.9 144.6 2.1 4.5 4.7 8.8 7.3 13 .7 1.1 2.2 2.5 3.3 2.4 15.5-.7 27.4-9.8 27.4-25.6 0-12.7-8.9-21.9-21.7-23-1.3-.1-2.6-.3-4.4-.5 1.7-11.5 3.3-22.8 5.1-34.1 5.5-36 11.1-72 16.7-108 3.9-25.2 17.4-44.3 38.5-58 7.6-5 16.2-8.5 24.3-12.5 1.3-.6 2.9-.6 4.3-.8v343c-7.5.3-14.9.8-22.4.9-18.6.1-37.3 0-55.9 0-2 6.3-3.6 12.4-6 18.2-9.5 23.3-26.1 40.7-46.5 54.8-12.7 8.8-12.8 8.8-25.3 0-19.8-14-36.4-30.7-45.7-53.5-2.5-6.1-4.3-12.5-6.7-19.5H59.1V41.8c9 4.6 17.7 8.3 25.7 13.2 19.9 12.1 33.6 29.4 39.2 52.1 3.4 13.7 4.7 27.9 6.8 41.9l15.6 102.6c.2 1.5.4 2.9.4 3.3-6.1 2.5-12.4 3.7-17.1 7.1-8.2 5.9-10.5 14.8-7.8 24.5 2.9 10.6 10.5 16 20.9 18.5 5.3 1.2 8.5-.1 11.2-5.1 14.6-27.3 23.8-56.1 29.1-86.6 6.1-35.1 2.4-70 .4-105.1-1.3-22.4-2.4-44.9 1.7-67.2 2-11.3 5.9-21.9 15.8-29.1.7.1 1.3.1 2 .1zm-1.4 7.4C194 29 191 39.5 190 50.5c-2.6 26.5-.6 52.9 1.2 79.3 1.8 26.6 2.9 53.2-1.2 79.7-4.9 32.2-14.3 62.9-29.8 91.6-6.6 12.2-9 13-22.5 8.9-.3-.1-.7-.2-1-.3-20.9-6.9-28.6-30.5-15.9-48.2 4.6-6.4 11.4-9.5 19-11.3-.8-5.5-1.5-10.8-2.3-16-5.5-36-11.6-72-16.4-108.1-3.1-22.9-10.8-42.8-28.7-58-8.1-6.7-17-12.2-27.2-16.1v328.1c1.4.1 2.6.2 3.7.2 22.8.1 45.6.3 68.5.3 3.7 0 5.3 1 6 4.8.8 4.7 2.3 9.4 3.9 13.9 9.6 26.7 29 44.9 52.1 59.8 1.2.8 3.9.5 5.2-.3 5.4-3.5 10.8-7.2 15.8-11.3 20.3-16.4 34.8-36.6 39.7-62.8.7-3.5 2.4-4 5.5-4 22.2 0 44.3-.2 66.5-.3h6v-329c-6.4 3.6-12.4 6.4-17.9 10-18.8 12.3-31.7 29.2-35.6 51.5-5.8 33.3-10.4 66.8-15.5 100.2-1.9 12.4-3.8 24.9-5.6 37.3 11.7 3.7 17.4 7.8 21.4 15 10.4 19-.8 41.2-22.9 45.7-11.3 2.3-11.7 2.1-17.5-7.5-.6-1-1.2-2-1.7-3-15.6-29.2-25-60.4-29.7-93.2-4.1-28.3-2.2-56.5-.4-84.7 1.6-24.6 3.2-49.2.5-73.8-1.3-10.6-4.2-20.6-11.6-29.5z"/><path class="st0" d="M201.6 19.4c7.4 8.9 10.2 18.9 11.4 29.3 2.7 24.6 1.1 49.2-.5 73.8-1.8 28.2-3.7 56.4.4 84.7 4.7 32.8 14.1 63.9 29.7 93.2.5 1 1.1 2 1.7 3 5.8 9.6 6.2 9.8 17.5 7.5 22.2-4.5 33.4-26.7 22.9-45.7-4-7.3-9.6-11.3-21.4-15 1.9-12.4 3.7-24.8 5.6-37.3 5.1-33.4 9.7-66.9 15.5-100.2 3.9-22.3 16.8-39.2 35.6-51.5 5.5-3.6 11.5-6.5 17.9-10v329h-6c-22.2.1-44.3.3-66.5.3-3.1 0-4.8.5-5.5 4-4.9 26.1-19.5 46.3-39.7 62.8-5 4.1-10.4 7.8-15.8 11.3-1.3.8-4 1.1-5.2.3-23.2-14.9-42.6-33.1-52.1-59.8-1.6-4.5-3-9.2-3.9-13.9-.7-3.8-2.3-4.8-6-4.8-22.8 0-45.6-.2-68.5-.3-1.1 0-2.3-.1-3.7-.2V51.8c10.2 3.9 19.1 9.4 27.2 16.3 17.9 15.2 25.6 35.1 28.7 58 4.8 36.1 10.9 72.1 16.4 108.1.8 5.2 1.5 10.5 2.3 16-7.6 1.8-14.4 4.9-19 11.3-12.8 17.7-5 41.2 15.9 48.2.3.1.6.2 1 .3 13.4 4 15.8 3.3 22.5-8.9 15.6-28.7 24.9-59.4 29.8-91.6 4-26.6 2.9-53.1 1.2-79.7-1.8-26.4-3.7-52.8-1.2-79.3 1.3-11 4.2-21.4 11.8-31.1zm122.8 54.4c-6.1 7.2-11.6 13.8-17.3 20.2-5.9 6.7-9.8 14.2-11.1 23-3.2 21.9-6.5 43.8-9.8 65.7-2.7 17.9-5.4 35.9-7.9 53.9-.3 1.9.3 5.3 1.5 5.9 12.6 6.2 20 16.1 23.2 29.6.3 1.2 2.5 2.7 3.6 2.7 5.9-.4 11.8-1.3 17.7-2 .1-66.4.1-132.2.1-199zm-225 201.5c.4-1.2.7-1.8.8-2.4 3-13.7 10.2-24 23.1-30.1 1.1-.5 2-3.2 1.8-4.7-5.5-38-12.1-75.9-16.4-114.1-2.4-21.7-17.5-34-29.7-50.3v199.2c6.8.8 13.4 1.5 20.4 2.4zm43.7 92.2c-2.2-14.5 1.5-27.7 5.7-40.7-.8-.4-.9-.6-1-.6-24.2-1.9-41.3-12.8-47-37.8-.2-1-1.9-2.3-3-2.4-6.1-.2-12.2-.1-18.3-.1v81.6h63.6zm117.1-.2h63.5v-81.2h-20.6c-5.3 26.2-22.4 38.5-48.7 40.1 4 13.8 8.2 26.8 5.8 41.1zm-58.8-146.7c-4.8 16.2-9.5 31.4-13.7 46.7-4.3 15.4-9.7 30.2-19.1 43.8 12.2 7.3 26 11.4 33.1 26.1 7-14.9 20.9-18.8 31.5-25.2-6.4-15.2-13.3-29.5-18.5-44.5-5.2-14.9-8.7-30.5-13.3-46.9zm7.8 160.4v62.3c16.3-11.3 36.4-42.3 40.5-62.3h-40.5zm-56-.3c8.1 24.7 20 46.1 40.7 62.2V381c-1.5-.1-2.6-.3-3.8-.3h-36.9zm86.2-54.1c-24.5 4.7-35.8 27.9-30 41.4h38.7c2.3-13-.8-27.3-8.7-41.4zm-84.3 41.3c2.9.1 5.7.4 8.5.4 9 .1 18-.2 26.9.3 3.5.2 4.1-1 4.5-4 2.2-19.3-13.1-33.9-29-37.4-1-.2-2.9.7-3.4 1.6-6.1 12.2-9.7 24.9-7.5 39.1z"/><path class="st0" d="M324.4 73.8v199c-5.9.7-11.8 1.6-17.7 2-1.2.1-3.4-1.5-3.6-2.7-3.2-13.5-10.6-23.5-23.2-29.6-1.2-.6-1.7-4-1.5-5.9 2.5-18 5.2-35.9 7.9-53.9 3.2-21.9 6.5-43.8 9.8-65.7 1.3-8.8 5.2-16.4 11.1-23 5.6-6.3 11-13 17.2-20.2zM318 91.9c-10.8 10.3-14.7 17.4-16.1 27.2-2.4 17.1-5 34.2-7.5 51.3-3.1 21.1-6.2 42.1-9.5 63.2-.5 3.4.7 4.8 3.2 6.7 4.7 3.6 9.4 7.5 12.9 12.2 3.4 4.5 5.4 10.1 8.2 15.7 2.7-.4 5.7-.8 8.7-1.2.1-58.4.1-116.3.1-175.1zM99.4 275.3c-7-.8-13.5-1.6-20.4-2.4V73.7c12.2 16.3 27.3 28.6 29.7 50.3 4.2 38.2 10.9 76.1 16.4 114.1.2 1.5-.6 4.2-1.8 4.7-12.9 6.1-20.1 16.4-23.1 30.1-.1.6-.4 1.2-.8 2.4zM85.1 92.2v175c3.2.4 6.3.7 9.6 1.1 3.5-12.1 9.7-21.9 20.5-28.1 3-1.7 3.5-3.6 3-6.8-5.3-34.9-10.6-69.7-15.4-104.6-1.9-14.1-5-27.2-17.7-36.6zm58 275.3H79.4v-81.6c6.1 0 12.2-.1 18.3.1 1.1 0 2.8 1.4 3 2.4 5.7 25.1 22.7 35.9 47 37.8.1 0 .3.2 1 .6-4 13-7.7 26.2-5.6 40.7zm-3.3-35.4c.2.1-.2-.3-.6-.4-1.1-.3-2.3-.5-3.4-.7-19.8-4.4-33.6-15.7-39.5-35.3-1.6-5.2-5-3.1-7.9-3.3-3.8-.3-3.1 2.7-3.1 4.8v59.5c0 1.4.2 2.9.4 4.3h49.5c1.5-9.7 3-18.8 4.6-28.9zm120.4 35.2c2.4-14.3-1.7-27.3-5.8-41 26.3-1.6 43.4-13.9 48.7-40.1h20.6v81.2c-20.8-.1-41.7-.1-63.5-.1zm47.9-74.9c-6.2 23-22 35.6-44.7 39.4 1.6 9.9 3.1 19.4 4.6 29h49.9v-60.2c0-9 0-9-9.8-8.2zm-106.7-71.8c4.5 16.3 8 31.9 13.2 46.9s12.1 29.3 18.5 44.5c-10.6 6.4-24.4 10.3-31.5 25.2-7.1-14.7-20.9-18.8-33.1-26.1 9.4-13.5 14.9-28.4 19.1-43.8 4.3-15.3 9.1-30.5 13.8-46.7zm24.1 87.6c-11.5-18.7-17.7-39.7-23.9-62.2-6 22.6-12.4 43.5-23.7 62.1 8.4 5.6 16.5 10.9 23.7 15.7 7.5-4.8 15.4-10 23.9-15.6zM209.2 381h40.5c-4.1 20.1-24.2 51.1-40.5 62.3V381zm6.1 47.5c13-11.8 19.8-26 25.5-41.2h-25.5v41.2zm-62.1-47.8h36.9c1.1 0 2.3.2 3.8.3v61.9c-20.7-16.1-32.6-37.5-40.7-62.2zm9.2 6.5c5.9 15.4 12.6 29.7 25.4 41.1v-41.4h-21.1c-1.2 0-2.5.2-4.3.3zm77-60.6c7.9 14 11 28.4 8.7 41.4h-38.7c-5.8-13.4 5.5-36.7 30-41.4zm-2 7.2c-13.3 3.4-25.3 17.5-22.2 28.2 8 0 16.2.1 24.3-.2 1.1 0 3.2-2.6 3-3.6-1.4-8-3.3-16-5.1-24.4zm-82.3 34.1c-2.2-14.2 1.4-26.9 7.5-39.1.5-.9 2.4-1.8 3.4-1.6 15.9 3.5 31.2 18.1 29 37.4-.3 3-.9 4.2-4.5 4-9-.4-17.9-.2-26.9-.3-2.8 0-5.6-.3-8.5-.4zm12.3-33.7c-5.3 9.5-7.7 20.7-5.8 27.5h27.1c.7-12-8.1-23.3-21.3-27.5z"/></svg>