<svg id="Capa_1" xmlns="http://www.w3.org/2000/svg" viewBox="0 0 399 399" height="20" width="30"><style>.st0{fill:#1471d1}</style><g id="Layer_5_59_"><path class="st0" d="M225.1 276.6c-7.1 4.4-16.2 6.8-25.6 6.8s-18.5-2.4-25.6-6.8l-116-71.1s-10.5-6.4-10.5 8.1v71c0 37.4 68.1 77.7 152 77.7s152-40.3 152-77.7v-75c0-11.7-7.4-6-7.4-6l-118.9 73z"/><path class="st0" d="M392.3 148.9c8.9-5.5 8.9-14.4 0-19.9L215.7 40.7c-8.9-5.5-23.5-5.5-32.4 0L6.7 129.1c-8.9 5.5-8.9 14.4 0 19.9l176.6 108.3c8.9 5.5 23.5 5.5 32.4 0M385 309.5V189.9s.1-5.7-3.3-3.8c-2.7 1.5-9.3 5.2-11.6 7.2-2.7 2.3-2.1 7.6-2.1 7.6v108.6c0 1.5-1.3 2.3-2 2.6-6.1 3.6-10.2 10.2-10.2 17.8 0 11.4 9.3 20.7 20.7 20.7 11.4 0 20.7-9.3 20.7-20.7 0-7.6-4.1-14.3-10.3-17.9-.6-.3-1.9-1-1.9-2.5z"/></g></svg>