<svg xmlns="http://www.w3.org/2000/svg" width="24" height="24" viewBox="0 0 24 24"><title>check-circle</title><path fill="#1471d1" d="M22 10.069c-.55 0-1 .45-1 1V12c0 4.962-4.038 8.994-9 8.994s-9-4.038-9-9 4.038-9 9-9c1.3 0 2.55.269 3.719.8.5.231 1.094.006 1.325-.494s.006-1.094-.494-1.325a10.925 10.925 0 0 0-4.544-.981c-6.063 0-11 4.938-11 11s4.938 11 11 11c6.063 0 10.994-4.931 11-10.994v-.931c-.006-.55-.456-1-1.006-1z"/><path fill="#1471d1" d="M23.706 2.294a1.005 1.005 0 0 0-1.413 0L11.999 12.588l-2.294-2.294c-.387-.387-1.025-.387-1.413 0s-.387 1.025 0 1.413l3 3a.999.999 0 0 0 1.412 0l11-11a.992.992 0 0 0 0-1.413z"/></svg>