<svg xmlns="http://www.w3.org/2000/svg" width="16" height="18" viewBox="0 0 155.724 155.723"><path d="M42.735 121.521c-12.77-10.273-20.942-26.025-20.942-43.691 0-26.114 17.882-47.992 42.051-54.23V9.154C31.854 15.646 7.776 43.927 7.776 77.83c0 20.951 9.199 39.738 23.767 52.578 11.276 10.503 18.284-3.514 11.192-8.887zm80.854-96.775c-7.18-6.485-17.693 4.028-10.801 9.236 12.888 10.27 21.143 26.097 21.143 43.848 0 26.118-17.885 48-42.052 54.234v14.449c31.99-6.499 56.068-34.776 56.068-68.684 0-21.227-9.445-40.233-24.358-53.083zM70.037 35.707L92.85 22.046c3.319-1.988 3.326-5.226.018-7.228L69.844.883c-3.312-1.999-5.985-.49-5.969 3.381l.124 28.035c.01 3.869 2.715 5.396 6.038 3.408zm15.846 84.322l-23.027 13.935c-3.311 2.002-3.304 5.239.019 7.228l22.811 13.662c3.319 1.984 6.03.462 6.047-3.412l.12-28.034c.012-3.868-2.665-5.378-5.97-3.379z" fill="#c9c9c9"/></svg>