<?xml version="1.0" encoding="utf-8"?>
<!-- Generator: Adobe Illustrator 21.0.2, SVG Export Plug-In . SVG Version: 6.00 Build 0)  -->
<svg version="1.1" id="Capa_1" xmlns="http://www.w3.org/2000/svg" xmlns:xlink="http://www.w3.org/1999/xlink" x="0px" y="0px"
	 viewBox="0 0 218.6 218.6" style="enable-background:new 0 0 218.6 218.6;" xml:space="preserve">
<style type="text/css">
	.st0{fill:#666;}
</style>
<path class="st0" d="M160.8,64.5c-1.2-1.9-2.7-3.1-4-4c0-2.3-0.2-5.6-0.7-9.4c0.4-4.5,1.7-29.4-13.5-40.6C133.1,3.7,122.7,0,112.3,0
	c-8.4,0-16.5,2.4-22.6,6.8c-5.5,3.9-8.6,8.2-10.2,11.2c-4.8,0.2-14.7,2.1-19.1,14.7c-4.1,11.9-0.8,19.3,1.7,22.7
	c-0.2,2-0.2,3.7-0.2,5.1c-1.4,0.9-2.8,2.1-4,4c-2.7,4.2-3.2,9.9-1.4,16.9c3.4,13,11.3,15.9,15.6,16.5c2.6,5.2,8.3,15.9,14.1,21.2
	c2.3,2.1,5.3,3.9,8.9,5.4c4.6,1.8,9.4,2.7,14.4,2.7s9.8-0.9,14.4-2.7c3.6-1.4,6.6-3.2,8.9-5.4c5.7-5.4,11.5-16,14.1-21.2
	c4.2-0.6,12.2-3.4,15.6-16.5C164,74.4,163.5,68.8,160.8,64.5z M152.5,78.9c-2.1,7.9-5.8,9.1-7.8,9.1c-0.1,0-0.3,0-0.3,0
	c-2.3-0.6-4.5,0.6-5.5,2.8c-2,4.3-8.2,16.3-13.2,21c-1.4,1.3-3.3,2.4-5.7,3.4c-6.8,2.7-14.6,2.7-21.4,0c-2.4-1-4.3-2.1-5.7-3.4
	c-5-4.7-11.2-16.7-13.2-21c-0.8-1.8-2.5-3-4.3-3c-0.4,0-0.8,0-1.2,0.1c-0.1,0-0.2,0-0.3,0c-2,0-5.7-1.2-7.8-9.1c-1-3.9-1-7,0-8.8
	c0.6-1,1.5-1.4,1.7-1.4c2.7-0.3,4.3-2.6,4.1-5.3c0-0.1-0.2-2.4,0-5.9c3.4-1.5,8.9-4.4,13.6-9.4c2.4-2.5,4.1-5.7,5.3-8.5
	c3.4,2.7,8.1,6,14.4,8.7c10.8,4.8,32.2,7,41.3,7.8c0.4,4.3,0.2,7.3,0.1,7.3c-0.2,2.7,1.4,5.1,4.1,5.4c0.3,0.1,1.1,0.4,1.7,1.4
	C153.5,71.9,153.5,75,152.5,78.9z M184.6,145.6l-43.7-17.5c-1.3-0.5-2.7-0.5-3.9,0.1c-1.2,0.6-2.2,1.6-2.7,2.9l-11,30.4l-2.2-6.3
	l3.5-8.5c0.6-1.5,0.5-3.3-0.5-4.7c-0.9-1.4-2.5-2.2-4.2-2.2H98.6c-1.7,0-3.2,0.8-4.2,2.2c-0.9,1.4-1.1,3.1-0.5,4.7l3.5,8.5l-2.2,6.3
	l-11-30.4c-0.5-1.3-1.4-2.3-2.7-2.9c-1.2-0.6-2.6-0.6-3.9-0.1L34,145.6c-13.4,5.4-22.1,18.2-22.1,32.6v35.3c0,2.8,2.2,5,5,5h184.8
	c2.8,0,5-2.2,5-5v-35.3C206.7,163.8,198,151,184.6,145.6z M183.1,192.7c0,2.8-2.2,5-5,5h-33.6c-2.8,0-5-2.2-5-5v-15.6
	c0-2.8,2.2-5,5-5h33.6c2.8,0,5,2.2,5,5L183.1,192.7L183.1,192.7z"/>
</svg>
