<svg id="Layer_1" xmlns="http://www.w3.org/2000/svg" viewBox="0 0 26 16" width="28"><style>.st0{fill:#5f676c}</style><path id="XMLID_17_" class="st0" d="M24.8 3.8H4l3.9-2.3c.5-.3.5-.7 0-1C7.4.2 6.7.2 6.2.5L.3 4c-.5.3-.5.7 0 1l5.9 3.5c.2.1.5.2.8.2.3 0 .6-.1.8-.2.5-.3.5-.7 0-1L4 5.2h20.8c.7 0 1.2-.3 1.2-.7s-.5-.7-1.2-.7z"/><path id="XMLID_18_" class="st0" d="M19.7 7.5c-.5-.3-1.2-.3-1.7 0s-.5.7 0 1l3.9 2.3H1.2c-.7 0-1.2.3-1.2.7 0 .4.5.7 1.2.7H22l-3.9 2.3c-.5.3-.5.7 0 1 .2.1.5.2.8.2s.6-.1.8-.2l5.9-3.5c.5-.3.5-.7 0-1l-5.9-3.5z"/></svg>