<?xml version="1.0" encoding="utf-8"?>
<!-- Generator: Adobe Illustrator 21.0.2, SVG Export Plug-In . SVG Version: 6.00 Build 0)  -->
<svg version="1.1" id="Layer_1" xmlns="http://www.w3.org/2000/svg" xmlns:xlink="http://www.w3.org/1999/xlink" x="0px" y="0px"
	 viewBox="0 0 512 512" style="enable-background:new 0 0 512 512;" xml:space="preserve">
<style type="text/css">
	.st0{fill:#1471d1;}
</style>
<g>
	<g>
		<path class="st0" d="M453.6,185.3C450.7,137,430.5,92,396,57.6C358.6,20.5,308.9,0,256,0c-52.9,0-102.6,20.5-140,57.6
			C81.5,92,61.3,137,58.4,185.3C31.5,205.4,14,237.5,14,273.5c0,60.6,49.3,110,110,110c12.1,0,22-9.8,22-22v-176
			c0-12.1-9.8-22-22-22c-6.3,0-12.5,0.6-18.6,1.6C120.3,96,182.2,44,256,44s135.7,52,150.6,121.1c-6-1-12.2-1.6-18.6-1.6
			c-12.1,0-22,9.8-22,22v176c0,12.1,9.8,22,22,22c7.5,0,14.9-0.8,22-2.2v52c0,11-9,20-20,20h-37.9c-3-8.5-11.1-14.7-20.7-14.7H256
			c-12.1,0-22,9.8-22,22v14.7V490c0,12.1,9.8,22,22,22h75.3c9.6,0,17.7-6.1,20.7-14.7H390c35.3,0,64-28.7,64-64v-71.9
			c26.7-20.1,44-52,44-87.9C498,237.5,480.5,205.4,453.6,185.3z"/>
	</g>
</g>
</svg>
