<svg xmlns="http://www.w3.org/2000/svg" width="25" height="25" viewBox="0 0 47 47"><g fill="#616161"><path d="M42.539 8.23L20.046 2.203a6.202 6.202 0 0 0-1.601-.211c-2.652 0-4.963 1.714-5.621 4.169L9.902 17.065h4.285l1.162-4.335 25.992 6.965-2.276 8.499c-.188.697-.977 1.16-1.807 1.09v4.14c.062.002.123.013.184.013 2.654 0 4.965-1.717 5.623-4.17l3.75-13.997c.81-3.034-1.107-6.191-4.276-7.04zm.275 5.967l-.401 1.5L16.42 8.732l.402-1.499c.174-.649.841-1.102 1.623-1.102.177 0 .354.024.529.07l22.493 6.027c.948.254 1.565 1.156 1.347 1.969z"/><path d="M29.236 19.135H5.951C2.67 19.135 0 21.689 0 24.827v14.489c0 3.139 2.67 5.691 5.951 5.691h23.287c3.281 0 5.951-2.554 5.951-5.691V24.827c-.001-3.138-2.669-5.692-5.953-5.692zm1.812 20.181c0 .843-.829 1.553-1.812 1.553H5.951c-.981 0-1.811-.71-1.811-1.553V24.827c0-.841.83-1.552 1.811-1.552h23.287c.982 0 1.811.711 1.811 1.552l-.001 14.489z"/><path d="M11.772 36.212h-4.14c-.572 0-1.035.463-1.035 1.034v1.035c0 .572.463 1.035 1.035 1.035h4.14c.572 0 1.035-.463 1.035-1.035v-1.035a1.034 1.034 0 0 0-1.035-1.034zm7.892 0h-4.14c-.571 0-1.035.463-1.035 1.034v1.035c0 .572.463 1.035 1.035 1.035h4.14c.571 0 1.035-.463 1.035-1.035v-1.035c0-.571-.464-1.034-1.035-1.034zm7.891 0h-4.14c-.571 0-1.035.463-1.035 1.034v1.035c0 .572.463 1.035 1.035 1.035h4.14c.572 0 1.035-.463 1.035-1.035v-1.035c0-.571-.463-1.034-1.035-1.034zm-9.53-4.153h7.848c.57 0 1.035-.434 1.035-.965v-3.865c0-.53-.465-.963-1.035-.963h-7.848c-.569 0-1.035.433-1.035.963v3.865c.001.531.466.965 1.035.965zm1.036-3.278c0-.532.465-.965 1.035-.965h3.708c.569 0 1.035.433 1.035.965v.76c0 .531-.466.964-1.035.964h-3.708c-.57 0-1.035-.433-1.035-.964v-.76z"/></g></svg>