<svg xmlns="http://www.w3.org/2000/svg" width="24" height="24" viewBox="0 0 490.1 490.1"><g fill="#616161"><path d="M136.85 150.6h157v26.7h-157zm0 45.9h157v26.7h-157zm0 46h157v26.7h-157zm0 46h78.4v26.7h-78.4z"/><path d="M232.35 380.5h-115c-5.4 0-9.9-4.4-9.9-9.9V131.5c0-5.4 4.4-9.9 9.9-9.9h195.9c5.4 0 9.9 4.4 9.9 9.9v153.7c8.9-2.1 18.3-3.3 27.8-3.3 9.7 0 19 1.2 28 3.3V82.5c0-20.8-16.9-37.7-37.7-37.7h-65.1c-8.3-26-32.6-44.8-61.3-44.8s-53 18.8-61.3 44.8h-64.2c-20.8 0-37.7 16.9-37.7 37.7v319.9c0 20.8 16.9 37.7 37.7 37.7h146.9c-3.9-11.8-6-24.3-6-37.4 0-7.6.8-15 2.1-22.2zM214.85 42c12.4 0 22.5 10.1 22.5 22.5S227.25 87 214.85 87s-22.5-10.1-22.5-22.5c0-12.5 10.1-22.5 22.5-22.5z"/><path d="M350.95 315.1c-48.3 0-87.5 39.2-87.5 87.5s39.2 87.5 87.5 87.5 87.5-39.2 87.5-87.5-39.2-87.5-87.5-87.5zm25.2 122.1c-3.8 4.6-8.8 7.8-14.6 9.4-2.5.7-3.7 2-3.5 4.6.1 2.6 0 5.2 0 7.8 0 2.3-1.2 3.5-3.5 3.6-2.8.1-5.6.1-8.3 0-2.4 0-3.6-1.4-3.6-3.8 0-1.9 0-3.8-.1-5.7 0-4.2-.2-4.3-4.2-5-5.1-.8-10.2-2-14.9-4.3-3.7-1.8-4.1-2.7-3-6.6.8-2.9 1.6-5.8 2.5-8.6 1-3.3 1.9-3.7 5-2.1 5.2 2.7 10.7 4.2 16.5 4.9 3.7.5 7.4.1 10.8-1.4 6.4-2.8 7.4-10.3 2-14.7-1.9-1.5-3.9-2.6-6.2-3.6-5.6-2.5-11.5-4.4-16.9-7.6-8.6-5.2-14.1-12.3-13.5-22.8.7-11.9 7.4-19.3 18.3-23.3 4.5-1.6 4.5-1.6 4.5-6.3v-4.8c.1-3.5.7-4.2 4.2-4.3h3.3c7.5 0 7.5 0 7.6 7.5 0 5.3 0 5.3 5.3 6.2 4.1.6 7.9 1.8 11.7 3.5 2.1.9 2.8 2.4 2.2 4.5-.9 3.2-1.8 6.5-2.9 9.7-1 3-2 3.5-4.9 2.1-5.9-2.8-12-4-18.5-3.7-1.7.1-3.4.3-4.9 1-5.6 2.5-6.5 8.6-1.7 12.4 2.4 1.9 5.2 3.3 8 4.5 5 2.1 10 4 14.7 6.6 15.1 8.6 19.1 27.4 8.6 40.3z"/></g></svg>