<svg xmlns="http://www.w3.org/2000/svg" width="18" height="18" fill="#ffffff" viewBox="0 0 493.3 493.3"><path d="M51.6 306c-1.5-9.6-10.5-16-19.8-14.6-9.6 1.5-16 10.5-14.6 19.8 3.8 23.9 26.2 67.3 84.5 74v27.4c0 9.6 7.9 17.5 17.5 17.5s17.5-7.9 17.5-17.5v-27.7c66.7-7.6 85.1-55.4 85.1-81.9 0-29.1-10.2-64.1-85.1-81.9v-88.9c35.8 6.1 42.8 29.1 43.4 32.1v-.3l34.4-7c-.6-2.3-11.7-52.2-77.5-60V72c0-9.6-7.9-17.5-17.5-17.5S102 62.4 102 72v24.5c-79 7.9-79.8 71.7-79.8 74.6v2.3c-.9 25.1 7 59.7 79.5 76.6v100.2C59.5 343.3 52.5 310 51.6 306zm128.8-25.7c6.7 7.9 6.7 15.7 6.7 23.3 0 1.7-.6 39-50.1 46.6v-92.4c25.6 7.1 37.6 15.8 43.4 22.5zM62.1 193.5c-5.5-6.7-5.2-12.8-5-18.9v-3.5c0-4.4 1.7-14.3 8.7-22.4 7.6-9 19.5-14.6 35.8-16.9V214c-23.5-6.5-34.5-14.7-39.5-20.5zm292 132h74c9.6 0 17.5 7.9 17.5 17.5s-7.9 17.5-17.5 17.5h-82.5c-.6 5-.6 10.2-.6 15.7 0 3.8 0 7.3.3 10.5h82.8c9.6 0 17.5 7.9 17.5 17.5s-7.9 17.5-17.5 17.5H352c4.4 11.1 10.8 19.5 18.9 25.4 30.9 21.9 81.3 4.7 81.9 4.7 9-3.2 19.2 1.5 22.4 10.8 3.2 9-1.5 19.2-10.8 22.4-1.7.6-24.5 8.5-52.5 8.5-19.8 0-42.3-4.1-61.2-17.5-17.5-12.2-29.4-30.3-35.5-53.9H294c-9.6 0-17.5-7.9-17.5-17.5S284.4 387 294 387h16c-.3-3.5-.3-7-.3-10.5 0-5.2.3-10.5.6-15.7H294c-9.6 0-17.5-7.9-17.5-17.5s7.9-17.5 17.5-17.5h22.7c6.7-21.6 18.1-38.5 34.4-50.4 45.5-33.5 110.1-14 112.8-13.1 9.3 2.9 14.3 12.5 11.7 21.9-2.9 9.3-12.5 14.3-21.9 11.7-1.2-.3-51-14.9-81.9 8.2-7.2 4.8-13.4 12.1-17.7 21.4zM285.3 95.3h7c-3.5-8.4-5.8-18.6-5.8-31.8C286.5 23.3 308 0 345.9 0c28.6 0 46.6 16 52.7 25.6l-29.1 19.2.3.3c-.3-.3-7.6-10.2-23.9-10.2-20.7 0-24.5 10.5-24.5 28.6 0 13.7 3.8 20.7 9.9 31.2 0 .3.3.3.3.6h26.8c9.6 0 17.5 7.9 17.5 17.5s-7.9 17.5-17.5 17.5h-13.7c.3 11.7-4.1 25.1-12.8 40.8h67c9.6 0 17.5 7.9 17.5 17.5s-7.9 17.5-17.5 17.5H298.7c-6.7 0-12.8-3.8-15.7-10.2-2.9-6.1-2-13.4 2.3-18.6 14-16.9 25.4-39.3 24.2-47.2h-24.2c-9.6 0-17.5-7.9-17.5-17.5s7.9-17.3 17.5-17.3z"/></svg>