<?xml version="1.0" encoding="utf-8"?>
<!-- Generator: Adobe Illustrator 21.0.2, SVG Export Plug-In . SVG Version: 6.00 Build 0)  -->
<svg version="1.1" id="Capa_1" xmlns="http://www.w3.org/2000/svg" xmlns:xlink="http://www.w3.org/1999/xlink" x="0px" y="0px"
	 viewBox="0 0 95.4 95.4" style="enable-background:new 0 0 95.4 95.4;" width="40px" height="50px" xml:space="preserve">
<style type="text/css">
	.st0{fill:#1471D1;}
</style>
<g fill="#0c72d2">
	<path class="st0" d="M40.8,44.5c1,1.9,5.2,11.8,5.2,13.2c0,7.8-10.4,7.8-10.4,0C35.6,56.3,39.8,45.9,40.8,44.5z M46.9,40.1
		c0-1.1,0-2.9,0-6c0-3.8-3.4-7.1-8-7.1c0,0,0,0-10.7,0l-0.1-3.3c0-1-0.8-1.7-1.7-1.7h-4.2v-2.1c0.4-0.2,0.7-0.5,0.9-0.8
		c1.3,0,3.8,0,8.9,0c0.6,0.8,1.5,1.3,2.5,1.3c1.8,0,3.2-1.4,3.2-3.2c0-1.8-1.4-3.2-3.2-3.2c-1.1,0-2,0.6-2.5,1.4c-1.4,0-4,0-8.8,0
		c-0.6-0.8-1.5-1.4-2.5-1.4c-1.1,0-2,0.6-2.5,1.4c-2.7,0-5.9,0-9.7,0C7.8,14.5,6.9,14,5.9,14c-1.8,0-3.2,1.4-3.2,3.2
		c0,1.8,1.4,3.2,3.2,3.2c1,0,1.9-0.5,2.5-1.3c1.6,0,4.5,0,9.8,0c0.2,0.3,0.6,0.6,0.9,0.8V22h-4.4c-1,0-1.7,0.8-1.7,1.7v3.3
		c-1.1,0-4.2,0-13,0v10.4c0.3,0,2.4,0,14.4,0c1.4,2.8,3.3,4.2,6.1,4.2c2.8,0,5.2-1.4,6.6-4.2c0,0,0,0,5.2,0c1.6,0,2.1,1,2.3,2.9
		c-0.5,0.3-0.8,0.8-0.8,1.4c0,1,0.8,1.7,1.7,1.7h10.8c1,0,1.7-0.8,1.7-1.7C48.1,41,47.6,40.4,46.9,40.1z M48.5,70.1
		c-0.1,0.7-0.1,1.5,0.1,2.3c0.2,0.7,0.6,1.3,1.1,1.9c1.7,1.8,4.6,1.8,6.4,0.1l8.8-8.6l1.1,1.2l-8.8,8.6c-2.4,2.3-6.3,2.3-8.6-0.1
		c-0.8-0.8-1.3-1.9-1.5-3H28.5c-2.5,0-4.5,2-4.5,4.5c0,2.5,2,4.5,4.5,4.5h32c1,0,2-0.4,2.8-1l20.8-15.8h11.3V49.3h-0.1v-0.2H69.1
		L49.8,67.9C49.2,68.5,48.7,69.3,48.5,70.1z"/>
</g>
</svg>
