<?xml version="1.0" encoding="utf-8"?>
<!-- Generator: Adobe Illustrator 21.0.2, SVG Export Plug-In . SVG Version: 6.00 Build 0)  -->
<svg version="1.1" id="Capa_1" xmlns="http://www.w3.org/2000/svg" xmlns:xlink="http://www.w3.org/1999/xlink" x="0px" y="0px"
	 viewBox="0 0 60 60" style="enable-background:new 0 0 60 60;" width="40px" height="50px" xml:space="preserve">
<style type="text/css">
	.st0{fill:#1471D1;}
</style>
<g>
	<path class="st0" d="M57.5,17c1.4,0,2.5-1.1,2.5-2.5v-3c0-1.4-1.1-2.5-2.5-2.5S55,10.1,55,11.5V12h-1V9h-3V8c0-2.2-1.8-4-4-4
		s-4,1.8-4,4v1c0,0.6-0.4,1-1,1s-1-0.4-1-1V8c0-2.2-1.8-4-4-4s-4,1.8-4,4v1c0,0.6-0.4,1-1,1s-1-0.4-1-1V8c0-2.2-1.8-4-4-4
		s-4,1.8-4,4v1c0,0.6-0.4,1-1,1s-1-0.4-1-1V8c0-2.2-1.8-4-4-4s-4,1.8-4,4v1c0,0.6-0.4,1-1,1s-1-0.4-1-1V8c0-2.2-1.8-4-4-4S3,5.8,3,8
		v2H0v7h3v26H0v7h3v2c0,2.2,1.8,4,4,4s4-1.8,4-4v-1c0-0.6,0.4-1,1-1s1,0.4,1,1v1c0,2.2,1.8,4,4,4s4-1.8,4-4v-1c0-0.6,0.4-1,1-1
		s1,0.4,1,1v1c0,2.2,1.8,4,4,4s4-1.8,4-4v-1c0-0.6,0.4-1,1-1c0.6,0,1,0.4,1,1v1c0,2.2,1.8,4,4,4s4-1.8,4-4v-1c0-0.6,0.4-1,1-1
		s1,0.4,1,1v1c0,2.2,1.8,4,4,4s4-1.8,4-4v-2h3v-1h6v-5h-6v-1h-3V17h3v-3h1v0.5C55,15.9,56.1,17,57.5,17z M15,43c0,1.7-1.3,3-3,3
		s-3-1.3-3-3V17c0-1.7,1.3-3,3-3s3,1.3,3,3V43z M25,43c0,1.7-1.3,3-3,3s-3-1.3-3-3V17c0-1.7,1.3-3,3-3s3,1.3,3,3V43z M35,43
		c0,1.7-1.3,3-3,3s-3-1.3-3-3V17c0-1.7,1.3-3,3-3s3,1.3,3,3V43z M45,43c0,1.7-1.3,3-3,3s-3-1.3-3-3V17c0-1.7,1.3-3,3-3s3,1.3,3,3V43
		z"/>
</g>
</svg>
