<svg xmlns="http://www.w3.org/2000/svg" width="25" height="25" viewBox="0 0 297 297"><path d="M260.387 0H115.896C95.772 0 79.4 16.373 79.4 36.497v74.426c0 20.124 16.373 36.497 36.497 36.497h144.491c20.124 0 36.497-16.373 36.497-36.497V36.497C296.884 16.373 280.511 0 260.387 0zM115.896 20.049h144.491c9.02 0 16.361 7.3 16.441 16.302H99.456c.079-9.003 7.42-16.302 16.44-16.302zm144.491 107.322H115.896c-9.07 0-16.448-7.378-16.448-16.448V68.019h177.387v42.904c0 9.07-7.378 16.448-16.448 16.448zm-34.725 41.82H10.14c-5.536 0-10.024 4.488-10.024 10.024v107.761C.116 292.512 4.604 297 10.14 297h215.522c5.536 0 10.024-4.488 10.024-10.024V179.215c0-5.536-4.488-10.024-10.024-10.024zm-32.446 107.76H42.586c-3.305-10.676-11.745-19.116-22.421-22.421v-42.869c10.676-3.305 19.116-11.745 22.421-22.421h150.63c3.305 10.676 11.745 19.116 22.421 22.421v42.869c-10.676 3.305-19.116 11.745-22.421 22.421zm22.422-80.547a20.049 20.049 0 0 1-7.165-7.165h7.165v7.165zM27.33 189.239a20.049 20.049 0 0 1-7.165 7.165v-7.165h7.165zm-7.165 80.547a20.049 20.049 0 0 1 7.165 7.165h-7.165v-7.165zm188.308 7.165a20.049 20.049 0 0 1 7.165-7.165v7.165h-7.165z"/><path d="M117.901 196.131c-20.382 0-36.964 16.582-36.964 36.964s16.582 36.964 36.964 36.964 36.964-16.582 36.964-36.964-16.582-36.964-36.964-36.964zm0 53.88c-9.327 0-16.916-7.589-16.916-16.916s7.589-16.916 16.916-16.916 16.916 7.589 16.916 16.916c0 9.328-7.589 16.916-16.916 16.916z"/><circle cx="57.286" cy="233.095" r="6.735"/><circle cx="178.516" cy="233.095" r="6.735"/><path d="M16.656 124.833c5.536 0 10.024-4.488 10.024-10.024V42.133h23.056c5.536 0 10.024-4.488 10.024-10.024s-4.488-10.024-10.024-10.024h-33.08c-5.536 0-10.024 4.488-10.024 10.024v82.7c0 5.536 4.488 10.024 10.024 10.024zm270.154 46.864c-5.536 0-10.024 4.488-10.024 10.024v72.676H253.73c-5.536 0-10.024 4.488-10.024 10.024s4.488 10.024 10.024 10.024h33.08c5.536 0 10.024-4.488 10.024-10.024v-82.7c0-5.536-4.488-10.024-10.024-10.024z"/></svg>