<svg xmlns="http://www.w3.org/2000/svg" width="40" height="50" viewBox="0 0 95.438 95.438"><path d="M40.785 44.527c.95 1.877 5.196 11.772 5.196 13.19 0 7.758-10.372 7.758-10.372 0 .001-1.418 4.239-11.79 5.176-13.19zm6.136-4.392v-5.98c0-3.809-3.446-7.079-8.013-7.079H28.246l-.06-3.309c0-.971-.779-1.739-1.74-1.739H22.28v-2.136a3.3 3.3 0 0 0 .912-.823h8.885c.585.774 1.471 1.294 2.504 1.294a3.21 3.21 0 0 0 3.208-3.213c0-1.755-1.442-3.197-3.213-3.197-1.066 0-1.957.551-2.54 1.356h-8.803c-.588-.806-1.479-1.356-2.545-1.356-1.064 0-1.959.551-2.545 1.356H8.429c-.582-.806-1.483-1.356-2.54-1.356-1.776 0-3.218 1.442-3.218 3.197a3.215 3.215 0 0 0 3.218 3.213c1.03 0 1.911-.525 2.499-1.294h9.805c.249.347.557.611.917.829v2.125h-4.422c-.955 0-1.734.774-1.734 1.74v3.314H.001v10.367h14.413c1.414 2.835 3.296 4.241 6.134 4.241 2.817 0 5.175-1.406 6.592-4.241h5.175c1.553 0 2.121.997 2.289 2.91-.461.308-.779.805-.779 1.406 0 .963.779 1.716 1.74 1.716h10.757c.966 0 1.735-.758 1.735-1.716a1.725 1.725 0 0 0-1.136-1.625zm1.596 29.969a4.715 4.715 0 0 0 .085 2.268 4.45 4.45 0 0 0 1.072 1.891c1.737 1.76 4.582 1.802 6.363.088l8.813-8.596 1.14 1.16-8.834 8.596c-2.402 2.34-6.273 2.288-8.64-.114-.815-.839-1.271-1.885-1.522-2.982H28.542c-2.506 0-4.544 2.04-4.544 4.53a4.539 4.539 0 0 0 4.544 4.541h31.975c1.041 0 1.993-.403 2.78-1.035l20.807-15.752h11.334V49.257h-.098v-.15H69.097L49.774 67.929a4.523 4.523 0 0 0-1.257 2.175z" fill="#010002"/></svg>