<svg id="Layer_1" xmlns="http://www.w3.org/2000/svg" viewBox="0 0 453 453" height="20" width="30"><style>.st0{fill:#1471d1}</style><path class="st0" d="M420.1 110.2h-140l49.7-81.6c4.3-7.1 2.1-16.3-5-20.6-7.1-4.3-16.3-2.1-20.6 5L245 110.2h-37L148.8 13c-4.3-7.1-13.5-9.3-20.6-5-7.1 4.3-9.3 13.5-5 20.6l49.7 81.6h-140C14.7 110.2 0 124.9 0 143.1v271.3c0 18.1 14.7 32.9 32.9 32.9h387.3c18.1 0 32.9-14.7 32.9-32.9V143.1c-.1-18.2-14.8-32.9-33-32.9zM317.7 374.9c0 9.9-8 17.9-17.9 17.9H71.2c-9.9 0-17.9-8-17.9-17.9V182.5c0-9.9 8-17.9 17.9-17.9h228.6c9.9 0 17.9 8 17.9 17.9v192.4zm66.1-5.7c-17.1 0-31-13.9-31-31s13.9-31 31-31 31 13.9 31 31-13.9 31-31 31zm0-119c-17.1 0-31-13.9-31-31s13.9-31 31-31 31 13.9 31 31-13.9 31-31 31z"/></svg>