<svg id="Capa_1" xmlns="http://www.w3.org/2000/svg" viewBox="0 0 95.4 95.4" height="20" width="30"><style>.st0{fill:#1471d1}</style><path class="st0" d="M40.8 44.5c1 1.9 5.2 11.8 5.2 13.2 0 7.8-10.4 7.8-10.4 0 0-1.4 4.2-11.8 5.2-13.2zm6.1-4.4v-6c0-3.8-3.4-7.1-8-7.1H28.2l-.1-3.3c0-1-.8-1.7-1.7-1.7h-4.2v-2.1c.4-.2.7-.5.9-.8H32c.6.8 1.5 1.3 2.5 1.3 1.8 0 3.2-1.4 3.2-3.2 0-1.8-1.4-3.2-3.2-3.2-1.1 0-2 .6-2.5 1.4h-8.8c-.6-.8-1.5-1.4-2.5-1.4-1.1 0-2 .6-2.5 1.4H8.5c-.7-.9-1.6-1.4-2.6-1.4-1.8 0-3.2 1.4-3.2 3.2 0 1.8 1.4 3.2 3.2 3.2 1 0 1.9-.5 2.5-1.3h9.8c.2.3.6.6.9.8V22h-4.4c-1 0-1.7.8-1.7 1.7V27H0v10.4h14.4c1.4 2.8 3.3 4.2 6.1 4.2s5.2-1.4 6.6-4.2h5.2c1.6 0 2.1 1 2.3 2.9-.5.3-.8.8-.8 1.4 0 1 .8 1.7 1.7 1.7h10.8c1 0 1.7-.8 1.7-1.7.1-.7-.4-1.3-1.1-1.6zm1.6 30c-.1.7-.1 1.5.1 2.3.2.7.6 1.3 1.1 1.9 1.7 1.8 4.6 1.8 6.4.1l8.8-8.6L66 67l-8.8 8.6c-2.4 2.3-6.3 2.3-8.6-.1-.8-.8-1.3-1.9-1.5-3H28.5c-2.5 0-4.5 2-4.5 4.5s2 4.5 4.5 4.5h32c1 0 2-.4 2.8-1l20.8-15.8h11.3V49.3h-.1v-.2H69.1L49.8 67.9c-.6.6-1.1 1.4-1.3 2.2z"/></svg>