<svg id="Слой_1" xmlns="http://www.w3.org/2000/svg" viewBox="0 0 113 112" width="40" height="50"><style>.st0{fill:#0c72d2}</style><path d="M83.5 67c1.4 0 2.5-1.1 2.5-2.5v-3c0-1.4-1.1-2.5-2.5-2.5S81 60.1 81 61.5v.5h-1v-3h-3v-1c0-2.2-1.8-4-4-4s-4 1.8-4 4v1c0 .6-.4 1-1 1s-1-.4-1-1v-1c0-2.2-1.8-4-4-4s-4 1.8-4 4v1c0 .6-.4 1-1 1s-1-.4-1-1v-1c0-2.2-1.8-4-4-4s-4 1.8-4 4v1c0 .6-.4 1-1 1s-1-.4-1-1v-1c0-2.2-1.8-4-4-4s-4 1.8-4 4v1c0 .6-.4 1-1 1s-1-.4-1-1v-1c0-2.2-1.8-4-4-4s-4 1.8-4 4v2h-3v7h3v26h-3v7h3v2c0 2.2 1.8 4 4 4s4-1.8 4-4v-1c0-.6.4-1 1-1s1 .4 1 1v1c0 2.2 1.8 4 4 4s4-1.8 4-4v-1c0-.6.4-1 1-1s1 .4 1 1v1c0 2.2 1.8 4 4 4s4-1.8 4-4v-1c0-.6.4-1 1-1s1 .4 1 1v1c0 2.2 1.8 4 4 4s4-1.8 4-4v-1c0-.6.4-1 1-1s1 .4 1 1v1c0 2.2 1.8 4 4 4s4-1.8 4-4v-2h3v-1h6v-5h-6v-1h-3V67h3v-3h1v.5c0 1.4 1.1 2.5 2.5 2.5zM41 93c0 1.7-1.3 3-3 3s-3-1.3-3-3V67c0-1.7 1.3-3 3-3s3 1.3 3 3v26zm10 0c0 1.7-1.3 3-3 3s-3-1.3-3-3V67c0-1.7 1.3-3 3-3s3 1.3 3 3v26zm10 0c0 1.7-1.3 3-3 3s-3-1.3-3-3V67c0-1.7 1.3-3 3-3s3 1.3 3 3v26zm10 0c0 1.7-1.3 3-3 3s-3-1.3-3-3V67c0-1.7 1.3-3 3-3s3 1.3 3 3v26zM17.8 45.3c-2.8-5.7-1.3-9 .8-12.1 2.3-3.4 2.9-6.7 2.9-6.7s1.8 2.4 1.1 6.1c3.2-3.6 3.8-9.3 3.3-11.5 7.3 5.1 10.4 16.1 6.2 24.3 22.3-12.6 5.5-31.5 2.6-33.6 1 2.1 1.2 5.7-.8 7.5C30.7 6.6 22.5 4 22.5 4c1 6.5-3.5 13.6-7.9 18.9-.2-2.6-.3-4.4-1.7-6.9-.3 4.7-3.9 8.5-4.9 13.3-1.3 6.4 1.1 11.1 9.8 16z" fill="#0c72d2"/><path class="st0" d="M78.2 26.1c.5 1 2.6 6 2.6 6.7 0 3.9-5.3 3.9-5.3 0 .1-.7 2.2-6 2.7-6.7zm3.1-2.2v-3c0-1.9-1.8-3.6-4.1-3.6h-5.4v-1.7c0-.5-.4-.9-.9-.9h-2.1v-1.1c.2-.1.3-.2.5-.4h4.5c.3.4.7.7 1.3.7.9 0 1.6-.7 1.6-1.6 0-.9-.7-1.6-1.6-1.6-.5 0-1 .3-1.3.7h-4.5c-.3-.4-.8-.7-1.3-.7s-1 .3-1.3.7h-4.9c-.3-.4-.8-.7-1.3-.7-.9 0-1.6.7-1.6 1.6 0 .9.7 1.6 1.6 1.6.5 0 1-.3 1.3-.7h5c.1.2.3.3.5.4v1.1H65c-.5 0-.9.4-.9.9v1.7h-6.6v5.3h7.3c.7 1.4 1.7 2.2 3.1 2.2 1.4 0 2.6-.7 3.4-2.2h2.6c.8 0 1.1.5 1.2 1.5-.2.2-.4.4-.4.7 0 .5.4.9.9.9H81c.5 0 .9-.4.9-.9s-.2-.8-.6-.9zm.8 15.2c-.1.4-.1.8 0 1.2.1.4.3.7.5 1 .9.9 2.3.9 3.2 0l4.5-4.4.6.6-4.5 4.4c-1.2 1.2-3.2 1.2-4.4-.1-.4-.4-.6-1-.8-1.5H72c-1.3 0-2.3 1-2.3 2.3 0 1.3 1 2.3 2.3 2.3h16.3c.5 0 1-.2 1.4-.5l10.6-8h5.8v-8H92.6L82.8 38c-.3.3-.6.7-.7 1.1z" fill="#0c72d2"/></svg>