<svg id="Capa_1" xmlns="http://www.w3.org/2000/svg" viewBox="0 0 60 60" height="20" width="30"><style>.st0{fill:#1471d1}</style><path class="st0" d="M57.5 17c1.4 0 2.5-1.1 2.5-2.5v-3c0-1.4-1.1-2.5-2.5-2.5S55 10.1 55 11.5v.5h-1V9h-3V8c0-2.2-1.8-4-4-4s-4 1.8-4 4v1c0 .6-.4 1-1 1s-1-.4-1-1V8c0-2.2-1.8-4-4-4s-4 1.8-4 4v1c0 .6-.4 1-1 1s-1-.4-1-1V8c0-2.2-1.8-4-4-4s-4 1.8-4 4v1c0 .6-.4 1-1 1s-1-.4-1-1V8c0-2.2-1.8-4-4-4s-4 1.8-4 4v1c0 .6-.4 1-1 1s-1-.4-1-1V8c0-2.2-1.8-4-4-4S3 5.8 3 8v2H0v7h3v26H0v7h3v2c0 2.2 1.8 4 4 4s4-1.8 4-4v-1c0-.6.4-1 1-1s1 .4 1 1v1c0 2.2 1.8 4 4 4s4-1.8 4-4v-1c0-.6.4-1 1-1s1 .4 1 1v1c0 2.2 1.8 4 4 4s4-1.8 4-4v-1c0-.6.4-1 1-1s1 .4 1 1v1c0 2.2 1.8 4 4 4s4-1.8 4-4v-1c0-.6.4-1 1-1s1 .4 1 1v1c0 2.2 1.8 4 4 4s4-1.8 4-4v-2h3v-1h6v-5h-6v-1h-3V17h3v-3h1v.5c0 1.4 1.1 2.5 2.5 2.5zM15 43c0 1.7-1.3 3-3 3s-3-1.3-3-3V17c0-1.7 1.3-3 3-3s3 1.3 3 3v26zm10 0c0 1.7-1.3 3-3 3s-3-1.3-3-3V17c0-1.7 1.3-3 3-3s3 1.3 3 3v26zm10 0c0 1.7-1.3 3-3 3s-3-1.3-3-3V17c0-1.7 1.3-3 3-3s3 1.3 3 3v26zm10 0c0 1.7-1.3 3-3 3s-3-1.3-3-3V17c0-1.7 1.3-3 3-3s3 1.3 3 3v26z"/></svg>