<svg xmlns="http://www.w3.org/2000/svg" width="25" height="25" viewBox="0 0 488.9 488.9"><g class="smartphone" fill="#1471d1"><path d="M285.75 174.1c-38.9 0-70.4 31.5-70.4 70.4s31.5 70.4 70.4 70.4 70.4-31.5 70.4-70.4c-.1-38.9-31.6-70.4-70.4-70.4zm20.2 98.1c-3.1 3.7-7.1 6.2-11.7 7.5-2 .6-2.9 1.6-2.8 3.7s0 4.2 0 6.2c0 1.9-.9 2.8-2.8 2.9-2.2.1-4.5.1-6.7 0-2 0-2.9-1.1-2.9-3.1v-4.6c0-3.3-.1-3.5-3.4-4-4.1-.7-8.2-1.6-11.9-3.4-3-1.4-3.3-2.2-2.4-5.3.6-2.3 1.3-4.6 2-6.9.8-2.7 1.5-3 4-1.7 4.2 2.2 8.6 3.4 13.2 4 3 .4 5.9.1 8.7-1.1 5.2-2.3 6-8.3 1.6-11.9-1.5-1.2-3.2-2.1-4.9-2.9-4.5-2-9.3-3.5-13.5-6.1-6.9-4.2-11.4-9.9-10.8-18.3.6-9.6 6-15.5 14.8-18.7 3.6-1.3 3.6-1.3 3.7-5v-3.8c.1-2.9.6-3.3 3.4-3.4h2.6c6 0 6 0 6.1 6 0 4.3 0 4.3 4.3 5 3.3.5 6.4 1.5 9.4 2.8 1.7.7 2.3 1.9 1.8 3.6-.8 2.6-1.5 5.2-2.3 7.8-.8 2.4-1.6 2.8-3.9 1.7-4.7-2.3-9.7-3.2-14.9-3-1.4.1-2.7.3-4 .8-4.5 2-5.2 6.9-1.4 10 1.9 1.6 4.2 2.7 6.5 3.6 4 1.7 8 3.2 11.8 5.3 11.6 6.9 14.9 22 6.4 32.3z"/><circle cx="183.45" cy="248" r="19.5"/><circle cx="388.15" cy="248" r="19.5"/><path d="M441.15 129.8h-306.4c-17.7 0-32.1 14.4-32.1 32.1v165.2c0 17.7 14.4 32.1 32.1 32.1h306.4c17.7 0 32.1-14.4 32.1-32.1V161.9c0-17.7-14.4-32.1-32.1-32.1zm4.7 164.1c-1.9-.3-3.8-.5-5.7-.5-18 0-32.5 14.6-32.5 32.5 0 2 .2 4 .6 6h-237.9c.2-1.3.3-2.7.3-4 0-18-14.6-32.5-32.5-32.5-2.8 0-5.5.4-8 1v-99.7c2.6.7 5.3 1 8 1 18 0 32.5-14.6 32.5-32.5 0-2.7-.3-5.4-1-7.9h238.6c-.4 1.9-.6 3.9-.6 6 0 18 14.6 32.5 32.5 32.5 2 0 3.9-.2 5.7-.5v98.6z"/><path d="M272.45 403.9c0 7.4-6.1 13.5-13.5 13.5H57.05c-7.4 0-13.5-6.1-13.5-13.5V85.1c0-7.4 6.1-13.5 13.5-13.5h201.9c7.4 0 13.5 6.1 13.5 13.5v17.3h27.9V52.6c0-28.9-23.7-52.6-52.6-52.6H68.25c-28.9 0-52.6 23.7-52.6 52.6v383.7c0 28.9 23.7 52.6 52.6 52.6h179.5c28.9 0 52.6-23.7 52.6-52.6v-49.7h-27.9v17.3zm-91.8 62.9h-50.6c-7.5 0-13.6-6.1-13.6-13.6s6.1-13.6 13.6-13.6h50.6c7.5 0 13.6 6.1 13.6 13.6s-6.1 13.6-13.6 13.6z"/></g></svg>