<svg xmlns="http://www.w3.org/2000/svg" width="25" height="25" viewBox="0 0 28.047 28.047"><path fill="#616161" d="M25.818.433H2.231C.998.433 0 1.451 0 2.699v22.654c0 1.25.998 2.262 2.231 2.262h23.587c1.23 0 2.229-1.012 2.229-2.262V2.699c.001-1.248-.998-2.266-2.229-2.266zM3.644 2.06h20.763c1.083 0 1.963.895 1.963 1.994V8.54H1.68V4.054c0-1.1.876-1.994 1.964-1.994zm6.024 8.736H26.37v5.982H9.668v-5.982zM1.68 23.995V10.796h5.812v15.193H3.644c-1.088.001-1.964-.892-1.964-1.994zm22.727 1.995H9.668v-6.957H26.37v4.963c0 1.101-.88 1.994-1.963 1.994z"/></svg>